<svg width="46" height="45" viewBox="0 0 46 45" fill="none" xmlns="http://www.w3.org/2000/svg">
<path d="M39.8 40.2749L41.45 41.9249H4.32495L5.97495 40.2749H39.8Z" fill="white"/>
<path d="M5.97495 18.15L4.32495 16.5H41.525L39.875 18.15H5.97495Z" fill="white"/>
<path d="M4.32495 13.875H41.525V16.5H4.32495V13.875Z" fill="white"/>
<path d="M4.32495 41.925H41.525V44.625H4.32495V41.925Z" fill="white"/>
<path d="M5.9751 18.2251H39.8001V40.2751H5.9751V18.2251Z" fill="white"/>
<path d="M15.125 18.1499L12.35 23.9999H8.82495L12.575 18.1499H15.125Z" fill="white"/>
<path d="M15.1251 18.2249L12.3501 23.9999H15.8751L17.7501 18.1499H15.1251V18.2249Z" fill="white"/>
<path d="M12.35 24V25.275C12.35 25.8 12.125 26.175 11.825 26.55C11.525 26.85 11.075 27.075 10.55 27.075C9.57495 27.075 8.82495 26.325 8.82495 25.35V24H12.35Z" fill="#E53935"/>
<path d="M15.8751 24V25.275C15.8751 25.8 15.6501 26.175 15.3501 26.55C15.0501 26.85 14.6001 27.075 14.0751 27.075C13.1001 27.075 12.3501 26.325 12.3501 25.35V24H15.8751Z" fill="#E53935"/>
<path d="M25.4751 18.2251L26.4501 24.0751H29.9751L28.1001 18.2251H25.4751Z" fill="white"/>
<path d="M17.75 18.2249L15.875 23.9999H19.4L20.375 18.1499H17.75V18.2249Z" fill="white"/>
<path d="M20.2999 18.2249L19.3999 23.9999H22.9249V18.1499H20.2999V18.2249Z" fill="white"/>
<path d="M22.8501 18.2249V23.9999H26.3751L25.4001 18.1499H22.8501V18.2249Z" fill="white"/>
<path d="M33.4249 23.9999H29.8999L28.0249 18.1499H30.5749L33.4249 23.9999Z" fill="white"/>
<path d="M36.95 23.9999H33.425L30.575 18.1499H33.125L36.95 23.9999Z" fill="white"/>
<path d="M19.4 24V25.275C19.4 25.8 19.175 26.175 18.875 26.55C18.575 26.85 18.125 27.075 17.6 27.075C16.625 27.075 15.875 26.325 15.875 25.35V24H19.4Z" fill="#E53935"/>
<path d="M22.85 24V25.275C22.85 25.8 22.625 26.175 22.325 26.55C22.025 26.85 21.575 27.075 21.05 27.075C20.075 27.075 19.325 26.325 19.325 25.35V24H22.85Z" fill="#E53935"/>
<path d="M26.3751 23.925V25.2C26.3751 25.725 26.1501 26.1 25.8501 26.475C25.5501 26.775 25.1001 27 24.5751 27C23.6001 27 22.8501 26.175 22.8501 25.275V24H26.3751V23.925Z" fill="#E53935"/>
<path d="M29.9 24V25.275C29.9 25.8 29.675 26.175 29.375 26.55C29.075 26.85 28.625 27.075 28.1 27.075C27.125 27.075 26.375 26.325 26.375 25.35V24H29.9Z" fill="#E53935"/>
<path d="M33.4249 24V25.275C33.4249 25.8 33.1999 26.175 32.8999 26.55C32.5999 26.85 32.1499 27.075 31.6249 27.075C30.6499 27.075 29.8999 26.325 29.8999 25.35V24H33.4249Z" fill="#E53935"/>
<path d="M36.95 24V25.275C36.95 25.8 36.725 26.175 36.425 26.55C36.125 26.85 35.675 27.075 35.15 27.075C34.175 27.075 33.425 26.325 33.425 25.35V24H36.95Z" fill="#E53935"/>
<path d="M28.1 0.825076C35.525 2.47508 41.6 7.72508 44.525 14.7751C44.6 14.9251 44.675 15.0001 44.825 15.0001C44.9 15.0001 44.9 15.0001 44.975 15.0001C45.125 14.9251 45.2 14.7001 45.2 14.5501C42.125 7.27508 35.825 1.87508 28.25 0.150076C28.1 0.0750759 27.875 0.225076 27.8 0.375076C27.8 0.600076 27.875 0.750076 28.1 0.825076Z" fill="#0C4393"/>
<path d="M1.17505 15.0749C3.12505 10.0499 6.80005 5.84993 11.525 3.14993C11.675 3.07493 11.75 2.84993 11.675 2.69993C11.6 2.54993 11.375 2.47493 11.225 2.54993C6.35005 5.32493 2.52505 9.59993 0.500049 14.7749C0.425049 14.9249 0.500049 15.1499 0.725049 15.2249C0.800049 15.2249 0.800049 15.2249 0.875049 15.2249C0.950049 15.2249 1.10005 15.1499 1.17505 15.0749Z" fill="#0C4393"/>
<path d="M14.3 1.8C14.375 1.8 14.375 1.8 14.45 1.8C15.65 1.35 17 0.975 18.275 0.675C18.5 0.6 18.575 0.45 18.575 0.3C18.5 0.075 18.35 0 18.125 0C16.775 0.3 15.5 0.675 14.225 1.125C14 1.2 13.925 1.425 14 1.575C14.075 1.725 14.225 1.8 14.3 1.8Z" fill="#0C4393"/>
<path d="M44.825 31.5749C44 33.8249 42.8 35.9999 41.3 37.9499C41.15 38.0999 41.225 38.3249 41.375 38.3999C41.45 38.4749 41.525 38.4749 41.6 38.4749C41.675 38.4749 41.825 38.3999 41.9 38.3249C43.475 36.2999 44.675 34.1249 45.575 31.7999C45.65 31.6499 45.575 31.4249 45.35 31.3499C45.05 31.2749 44.825 31.3499 44.825 31.5749Z" fill="#0C4393"/>
<path d="M14.525 11.325H11.675C11.45 11.325 11.3 11.475 11.3 11.7C11.3 11.925 11.45 12.075 11.675 12.075H14.525C14.75 12.075 14.9 11.925 14.9 11.7C14.825 11.475 14.675 11.325 14.525 11.325Z" fill="#0C4393"/>
<path d="M33.725 11.325H17.45C17.225 11.325 17.075 11.475 17.075 11.7C17.075 11.925 17.225 12.075 17.45 12.075H33.8C34.025 12.075 34.175 11.925 34.175 11.7C34.1 11.475 33.95 11.325 33.725 11.325Z" fill="#0C4393"/>
<path d="M8.44995 38.3999H8.67495H12.05H15.65C15.8 38.3999 16.025 38.2499 16.025 38.0249V29.0249C16.025 28.7999 15.875 28.6499 15.65 28.6499H8.44995C8.29995 28.6499 8.07495 28.7999 8.07495 29.0249V37.7999V38.0249C8.07495 38.2499 8.22495 38.3999 8.44995 38.3999ZM8.74995 33.8999H11.675V37.6499H8.74995V33.8999ZM12.35 37.6499V33.8999H15.275V37.6499H12.35ZM15.275 33.2249H12.35V29.3999H15.275V33.2249ZM11.675 29.3999V33.2249H8.74995V29.3999H11.675Z" fill="#0C4393"/>
<path d="M37.7 33.5249V29.0249C37.7 28.7999 37.55 28.6499 37.325 28.6499H30.125C29.9 28.6499 29.75 28.7999 29.75 29.0249V33.5249V38.0249C29.75 38.2499 29.9 38.3999 30.125 38.3999H37.1H37.325C37.55 38.3999 37.7 38.2499 37.7 38.0249V37.7999V33.5249ZM37.025 33.1499H34.1V29.3249H37.025V33.1499ZM33.35 29.3999V33.2249H30.5V29.3999H33.35ZM30.5 33.8999H33.425V37.7249H30.5V33.8999ZM34.1 37.6499V33.8249H37.025V37.6499H34.1Z" fill="#0C4393"/>
<path d="M45.2 44.2499H41.825V41.9999V41.9249C41.825 41.8499 41.825 41.7749 41.75 41.6999C41.75 41.6999 41.75 41.6249 41.675 41.6249C41.675 41.6249 41.675 41.6249 41.6 41.6249L40.1 40.1249V35.9999C42.575 32.4749 44.075 28.1999 44.075 23.6249C44.075 18.2999 41.75 13.7249 41.6 13.6499C38 6.9749 30.95 2.3999 22.85 2.3999C14.75 2.3999 7.70005 6.9749 4.10005 13.6499C4.02505 13.7249 3.95005 13.7999 3.95005 13.9499C2.45005 16.8749 1.62505 20.1749 1.62505 23.6249C1.62505 28.2749 3.12505 32.5499 5.60005 35.9999V40.1249L4.02505 41.6999L3.95005 41.7749C3.95005 41.8499 3.95005 41.8499 3.95005 41.9249V44.2499H1.17505C0.950049 44.2499 0.800049 44.3999 0.800049 44.6249C0.800049 44.7749 0.950049 44.9999 1.17505 44.9999H4.32505H41.525H45.275C45.5 44.9999 45.65 44.8499 45.65 44.6249C45.575 44.3999 45.425 44.2499 45.2 44.2499ZM39.425 39.8999C35.4501 39.8999 32.225 39.8999 27.875 39.8999V27.3749C28.55 27.5249 29.375 27.2249 29.9 26.4749C30.725 27.7499 32.6 27.7499 33.425 26.4749C34.55 28.1999 37.25 27.3749 37.25 25.3499V24.2249V24.1499C37.25 24.0749 37.175 23.9249 37.175 23.9249L33.8 18.6749H39.425V35.8499V36.9749V39.8999ZM11.6 26.2499C11.3 26.5499 11 26.6999 10.625 26.6999C9.87505 26.6999 9.20005 26.0999 9.20005 25.2749V24.3749H12.05C11.975 24.9749 12.2 25.6499 11.6 26.2499ZM5.15005 16.8749H40.625L39.65 17.8499C25.55 17.8499 20.225 17.8499 6.12505 17.8499L5.15005 16.8749ZM41.15 16.1999H4.62505V14.2499H41.075V16.1999H41.15ZM33.05 25.2749C33.05 27.1499 30.2 27.1499 30.2 25.2749V24.3749H33.05V25.2749ZM13.775 21.8999L15.425 18.5249H17.3L15.65 23.6249H12.95L13.775 21.8999ZM17.975 18.5249H19.925L19.25 22.4249L19.025 23.6999H16.25L17.975 18.5249ZM22.55 18.5249V23.6249H19.775L20.6 18.5249H22.55ZM25.175 18.5249L26 23.6249H23.225V18.5249H25.175ZM27.8 18.5249L29.45 23.6249H26.675L25.85 18.5249H27.8ZM30.35 18.5249L32.825 23.6249H30.125L28.475 18.5249H30.35ZM19.7001 24.3749H22.55C22.55 24.4499 22.55 25.2749 22.55 25.1999C22.55 25.2749 22.625 25.7249 22.175 26.2499C21.5 26.9249 20.225 26.6999 19.85 25.7999C19.625 25.3499 19.775 25.1249 19.7001 24.3749ZM23.225 24.3749H26.075C26.075 24.4499 26.075 25.3499 26.075 25.2749C26.075 25.6499 25.925 25.9499 25.7 26.1749C25.4 26.4749 25.1 26.6249 24.725 26.6249C22.85 26.6249 23.3 24.5249 23.225 24.3749ZM26.75 24.3749H29.6C29.525 24.9749 29.75 25.6499 29.225 26.2499C28.925 26.5499 28.475 26.6999 27.95 26.6249C26.375 26.3999 26.825 24.5249 26.75 24.3749ZM33.8 24.3749H36.65C36.575 24.5249 37.025 26.6999 35.225 26.6999C34.475 26.6999 33.8 26.0999 33.8 25.2749V24.3749ZM33.65 23.6999L31.175 18.5999H32.975L36.275 23.6999H33.65ZM14.6 18.5249L12.125 23.6249H9.50005L12.8 18.5249H14.6ZM12.725 24.3749H15.5C15.425 24.9749 15.65 25.6499 15.125 26.2499C14.225 27.1499 12.725 26.5499 12.725 25.2749V24.3749ZM16.175 24.3749H19.025C18.9501 24.8999 19.25 25.6499 18.65 26.2499L18.5751 26.3249C17.675 27.1499 16.25 26.5499 16.25 25.2749V24.3749H16.175ZM18.5751 27.1499C18.875 26.9999 19.175 26.6999 19.4 26.3999C20.225 27.5999 22.025 27.6749 22.925 26.3999C23.75 27.5999 25.55 27.5999 26.375 26.3999C26.6 26.6999 26.825 26.9999 27.2 27.1499V39.8999H18.5751V27.1499ZM43.475 23.5499C43.475 27.6749 42.275 31.4999 40.175 34.7249V18.2999L41.75 16.7249L41.825 16.6499C41.825 16.5749 41.825 16.5749 41.825 16.4999V15.5249C42.875 17.9999 43.475 20.6999 43.475 23.5499ZM22.85 2.9999C30.575 2.9999 37.25 7.2749 40.775 13.4999H4.92505C8.45005 7.1999 15.2 2.9999 22.85 2.9999ZM2.30005 23.5499C2.30005 20.6999 2.90005 17.9999 3.95005 15.5249C3.95005 16.4249 3.95005 16.5749 3.95005 16.6499C3.95005 16.7249 4.02505 16.7249 4.02505 16.7249L5.60005 18.2999V34.6499C3.50005 31.4999 2.30005 27.6749 2.30005 23.5499ZM6.27505 18.5249H11.9L8.52505 23.7749C8.52505 23.7749 8.52505 23.7749 8.52505 23.8499C8.52505 23.9249 8.52505 23.9249 8.52505 23.9999V25.2749C8.52505 26.3999 9.50005 27.3749 10.625 27.3749C11.375 27.3749 12.05 26.9999 12.35 26.3999C13.1 27.5999 14.9 27.7499 15.875 26.3999C16.25 26.9999 17 27.3749 17.9 27.2999V39.8249C13.85 39.8249 10.4 39.8249 6.35005 39.8249C6.27505 31.9499 6.27505 26.0249 6.27505 18.5249ZM6.12505 40.5749H18.2001H27.575C27.725 40.5749 40.25 40.5749 39.725 40.5749L40.7 41.5499C27.275 41.5499 18.575 41.5499 5.22505 41.5499L6.12505 40.5749ZM4.62505 44.2499V42.2999H41.075V44.2499C29.6 44.2499 16.1 44.2499 4.62505 44.2499Z" fill="#0C4393"/>
</svg>
