<svg width="46" height="46" viewBox="0 0 46 46" fill="none" xmlns="http://www.w3.org/2000/svg">
<path d="M6.75488 39.42V9.85504C6.75488 8.46004 7.87988 7.29004 9.31988 7.29004H30.4249V39.42H6.75488Z" fill="white"/>
<path d="M34.9701 12.06V9.85505C34.9701 9.58505 34.9251 9.36005 34.8351 9.09005C34.8351 9.00005 34.7901 8.95505 34.7451 8.86505C34.7001 8.73005 34.6101 8.59505 34.5201 8.46005C34.3401 8.14505 34.0701 7.92005 33.7551 7.74005C33.5751 7.65005 33.3951 7.56005 33.2151 7.51505C33.0801 7.47005 32.9001 7.42505 32.7201 7.42505C32.6301 7.42505 32.5401 7.42505 32.4501 7.42505H9.45508C10.0851 7.47005 10.6251 7.74005 11.0301 8.14505C11.4801 8.59505 11.7501 9.22505 11.7501 9.90005V12.105H34.9701V12.06Z" fill="#E53935"/>
<path d="M25.97 37.575V44.685L23.135 41.805L20.3 44.6399V37.575H25.97Z" fill="#E53935"/>
<path d="M28.535 34.6499C27.545 35.6399 26.96 37.0349 26.96 38.4749C25.52 38.4749 24.17 39.0599 23.18 40.0499C22.19 39.0599 20.795 38.4749 19.4 38.4749C19.4 37.0349 18.815 35.6849 17.825 34.6499C18.815 33.6599 19.4 32.2649 19.4 30.8699C20.84 30.8699 22.19 30.2849 23.18 29.2949C24.17 30.2849 25.565 30.8699 26.96 30.8699C26.96 32.2649 27.5 33.6599 28.535 34.6499Z" fill="white"/>
<path d="M35.4651 39.33C34.5651 38.475 34.0701 37.26 34.0701 36.045V19.8H36.8151V36C36.8151 37.26 36.3201 38.43 35.4651 39.33Z" fill="white"/>
<path d="M36.275 15.6599H34.61C34.025 15.6599 33.53 16.1549 33.53 16.7399V26.7749H37.355V16.7399C37.355 16.1099 36.86 15.6599 36.275 15.6599Z" fill="white"/>
<path d="M36.4101 15.6601H34.4751V14.3101C34.4751 13.7701 34.9251 13.3201 35.4651 13.3201C36.0051 13.3201 36.4551 13.7701 36.4551 14.3101V15.6601H36.4101Z" fill="#E53935"/>
<path d="M42.3049 30.1501C42.1249 30.0601 41.9449 30.1501 41.8549 30.3301C40.9099 32.3101 39.6499 34.1551 38.0749 35.8201C37.9399 35.9551 37.9399 36.1801 38.0749 36.3151C38.2099 36.4501 38.4349 36.4501 38.5699 36.3151C40.1899 34.6051 41.4949 32.7151 42.4849 30.6451C42.5749 30.4651 42.4849 30.2401 42.3049 30.1501Z" fill="#0C4393"/>
<path d="M5.72005 9.26994C5.81005 9.13494 5.81005 8.90994 5.63005 8.77494C5.49505 8.68494 5.27005 8.68494 5.13505 8.86494C2.52505 12.5099 1.17505 16.8299 1.17505 21.3299C1.17505 21.6899 1.17505 22.0049 1.22005 22.3649C1.22005 22.8149 1.94005 22.7699 1.89505 22.3199C1.89505 22.0049 1.85005 21.6449 1.85005 21.3299C1.89505 17.0099 3.20005 12.8249 5.72005 9.26994Z" fill="#0C4393"/>
<path d="M26.4201 0.674933C27.6801 0.899933 28.8951 1.21493 30.1101 1.66493C30.2901 1.70993 30.4701 1.61993 30.5601 1.43993C30.6051 1.25993 30.5151 1.07993 30.3351 0.989933C29.1201 0.539933 27.8151 0.179933 26.5551 -6.7397e-05C26.3301 -0.0450674 26.1501 0.0899326 26.1501 0.269933C26.1051 0.449933 26.2401 0.629933 26.4201 0.674933Z" fill="#0C4393"/>
<path d="M32.5851 1.98008C32.4051 1.89008 32.2251 1.98008 32.1351 2.11508C32.0451 2.29508 32.1351 2.47508 32.2701 2.56508C38.7501 5.85008 43.1601 12.3301 43.7901 19.5301C43.7901 19.7101 43.9701 19.8451 44.1501 19.8451C44.1501 19.8451 44.1501 19.8451 44.1951 19.8451C44.3751 19.8451 44.5101 19.6651 44.5101 19.4851C43.8351 12.0601 39.2901 5.35508 32.5851 1.98008Z" fill="#0C4393"/>
<path d="M25.5649 33.7501H23.9449L23.4499 32.2201C23.3599 31.9501 22.9099 31.9501 22.8199 32.2201L22.3249 33.7501H20.7049C20.5699 33.7501 20.4349 33.8401 20.3899 33.9751C20.3449 34.1101 20.3899 34.2901 20.5249 34.3351L21.8299 35.2801L21.3349 36.8101C21.2899 36.9451 21.3349 37.1251 21.4699 37.1701C21.5149 37.2151 21.6049 37.2151 21.6499 37.2151C21.7399 37.2151 21.7849 37.2151 21.8299 37.1701L23.1349 36.2251L24.4399 37.1701C24.5749 37.2601 24.7099 37.2601 24.8449 37.1701C24.9799 37.0801 25.0249 36.9451 24.9799 36.8101L24.4849 35.2801L25.7899 34.3351C25.9249 34.2451 25.9699 34.1101 25.9249 33.9751C25.8799 33.8851 25.7449 33.7501 25.5649 33.7501ZM23.8549 34.9201C23.7199 35.0101 23.6749 35.1451 23.7199 35.2801L23.9899 36.0451L23.3599 35.5501C23.2699 35.5501 23.2249 35.5501 23.1349 35.5501C23.0449 35.5501 22.9999 35.5501 22.9549 35.5951L22.3249 36.0901L22.5949 35.3251C22.6399 35.1901 22.5949 35.0101 22.4599 34.9651L21.8299 34.4701H22.6399C22.7749 34.4701 22.9099 34.3801 22.9549 34.2451L23.2249 33.4801L23.4949 34.2451C23.5399 34.3801 23.6749 34.4701 23.8099 34.4701H24.6199L23.8549 34.9201Z" fill="#0C4393"/>
<path d="M37.1751 33.7051C40.0551 30.3751 41.8101 26.0551 41.8101 21.3751C41.8101 10.9801 33.3501 2.4751 22.9101 2.4751C18.2751 2.4751 14.0001 4.1851 10.6701 6.9751C10.5351 6.9751 9.23009 6.9751 9.32009 6.9751C7.70009 6.9751 6.44009 8.2801 6.44009 9.8551V12.1051C4.86509 14.8501 3.96509 18.0001 3.96509 21.3751C3.96509 24.7051 4.86509 27.8551 6.39509 30.6001V39.4651C6.39509 39.6451 6.53009 39.8251 6.75509 39.8251H18.6351C19.0851 39.9151 19.5351 40.0051 19.9851 40.0501V44.6851C19.9851 44.8201 20.0751 44.9551 20.2101 45.0001C20.3451 45.0451 20.4801 45.0001 20.5701 44.9101L23.1801 42.3001L25.7901 44.9101C25.8801 45.0001 26.0151 45.0451 26.1501 45.0001C26.2851 44.9551 26.3751 44.8201 26.3751 44.6851V39.9151C26.6451 39.8701 26.9151 39.8251 27.1851 39.7801H30.4251C30.6051 39.7801 30.7851 39.6451 30.7851 39.4201V38.5201C31.8651 38.0251 32.9001 37.4401 33.8451 36.7201C33.9801 37.7101 34.4751 38.6551 35.1501 39.4201V40.5001C35.1501 40.6801 35.2851 40.8601 35.5101 40.8601C35.6901 40.8601 35.8701 40.7251 35.8701 40.5001V39.4201C36.7251 38.4751 37.2651 37.2601 37.2651 36.0001V33.7051H37.1751ZM4.68509 21.3751C4.68509 18.6301 5.31509 15.9751 6.44009 13.6351V29.0701C5.31509 26.7301 4.68509 24.1201 4.68509 21.3751ZM33.8901 26.4151V16.7401C33.8901 16.3351 34.2051 15.9751 34.6551 15.9751H36.3201C36.7251 15.9751 37.0851 16.2901 37.0851 16.7401V26.4151H33.8901ZM36.0951 15.3001H34.8351V14.3101C34.8351 13.9501 35.1051 13.6801 35.4651 13.6801C35.8251 13.6801 36.0951 13.9501 36.0951 14.3101V15.3001ZM12.1101 11.7001V9.8101C12.1101 9.0001 11.7951 8.1901 11.1201 7.6501H32.4501C33.7101 7.6501 34.6101 8.6851 34.6101 9.8101V11.7001H12.1101ZM23.1351 39.5551C22.1451 38.7001 20.9751 38.2051 19.6701 38.1151C19.5801 36.8101 19.0851 35.5951 18.2301 34.6501C19.0851 33.7051 19.5801 32.4451 19.6701 31.1851C20.9751 31.0951 22.1901 30.6001 23.1351 29.7451C24.0801 30.6001 25.2951 31.0951 26.6001 31.1851C26.6901 32.4451 27.1851 33.7051 28.0401 34.6501C27.1851 35.5951 26.6901 36.8101 26.6001 38.1151C25.3401 38.2051 24.1251 38.7001 23.1351 39.5551ZM23.4051 41.5351C23.3601 41.4901 23.2701 41.4451 23.1801 41.4451C23.0901 41.4451 23.0001 41.4901 22.9551 41.5351L20.7051 43.8301V38.9701C21.5601 39.1951 22.3251 39.6451 22.9551 40.2751C23.0001 40.3201 23.0901 40.3651 23.1801 40.3651C23.2701 40.3651 23.3601 40.3201 23.4051 40.2751C24.0351 39.6451 24.8001 39.1951 25.6551 38.9701V43.8301L23.4051 41.5351ZM26.3301 39.1051V38.8801C26.5551 38.8351 26.7351 38.8351 26.9601 38.8351C27.1401 38.8351 27.3201 38.7001 27.3201 38.4751C27.3201 37.1251 27.8601 35.8651 28.8051 34.9201C28.8501 34.8301 28.8501 34.7401 28.8501 34.6501C28.8501 34.5601 28.8051 34.4701 28.7601 34.4251C27.8151 33.4801 27.2751 32.1751 27.2751 30.8701C27.2751 30.6901 27.1401 30.5101 26.9151 30.5101C25.5651 30.5101 24.3051 29.9701 23.3601 29.0251C23.2251 28.8901 23.0001 28.8901 22.8651 29.0251C21.9201 29.9701 20.6601 30.5101 19.3101 30.5101C19.1301 30.5101 18.9501 30.6451 18.9501 30.8701C18.9501 32.2201 18.4101 33.4801 17.4651 34.4251C17.4201 34.4701 17.3751 34.5601 17.3751 34.6501C17.3751 34.7401 17.4201 34.8301 17.4651 34.8751C18.4101 35.8201 18.9501 37.0801 18.9501 38.4301C18.9501 38.6101 19.0851 38.7901 19.3101 38.7901C19.5351 38.7901 19.7151 38.7901 19.9401 38.8351V39.0601H7.11509V9.8551C7.11509 8.6401 8.10509 7.6501 9.32009 7.6501H9.41009C10.7601 7.8301 11.4351 8.8201 11.4351 9.8101V12.0151C11.4351 12.1951 11.5701 12.3751 11.7951 12.3751H30.0651V39.0601H26.3301V39.1051ZM30.7401 12.3751H34.9701C35.1501 12.3751 35.3301 12.2401 35.3301 12.0151V9.8101C35.3301 8.2801 34.1151 6.9751 32.4951 6.9751C25.0251 6.9751 19.5801 6.9751 11.7951 6.9751C14.8551 4.5901 18.6801 3.1501 22.8651 3.1501C32.9001 3.1501 41.0901 11.3401 41.0901 21.3751C41.0901 25.6501 39.6051 29.5201 37.1751 32.6251V27.0901H37.3551C37.5351 27.0901 37.7151 26.9551 37.7151 26.7301V16.7401C37.7151 16.1101 37.3101 15.6151 36.7701 15.3901V14.6701H37.7151C38.2101 14.6701 38.6151 15.0751 38.6151 15.5701V22.2751C38.6151 22.4551 38.7501 22.6351 38.9751 22.6351C39.1551 22.6351 39.3351 22.5001 39.3351 22.2751V15.5701C39.3351 14.7151 38.6151 13.9951 37.7601 13.9951H36.7701C36.6351 13.4551 36.0951 13.0051 35.5101 13.0051C34.7901 13.0051 34.2051 13.5901 34.2051 14.3101V15.3901C33.6651 15.5701 33.2601 16.1101 33.2601 16.7401V26.7751C33.2601 26.9551 33.3951 27.1351 33.6201 27.1351H33.8001V36.0001C32.8551 36.7201 31.8651 37.3051 30.7851 37.8451V12.3751H30.7401ZM35.4651 38.7901C34.7901 38.0251 34.4301 36.9901 34.4301 36.0001V27.0901H36.5001V36.0001C36.5001 37.0351 36.0951 38.0251 35.4651 38.7901Z" fill="#0C4393"/>
<path d="M25.5651 16.3799H22.4601C22.2801 16.3799 22.1001 16.5149 22.1001 16.7399C22.1001 16.9199 22.2351 17.0999 22.4601 17.0999H25.5651C25.7451 17.0999 25.9251 16.9649 25.9251 16.7399C25.9251 16.5149 25.7901 16.3799 25.5651 16.3799Z" fill="#0C4393"/>
<path d="M10.85 17.055H19.355C19.535 17.055 19.715 16.92 19.715 16.695C19.715 16.515 19.58 16.335 19.355 16.335H10.85C10.67 16.335 10.49 16.47 10.49 16.695C10.49 16.92 10.67 17.055 10.85 17.055Z" fill="#0C4393"/>
<path d="M25.565 20.97H15.89C15.71 20.97 15.53 21.105 15.53 21.33C15.53 21.51 15.665 21.69 15.89 21.69H25.565C25.745 21.69 25.925 21.555 25.925 21.33C25.925 21.105 25.79 20.97 25.565 20.97Z" fill="#0C4393"/>
<path d="M10.85 21.645H13.145C13.325 21.645 13.505 21.51 13.505 21.285C13.505 21.105 13.37 20.925 13.145 20.925H10.85C10.67 20.925 10.49 21.06 10.49 21.285C10.49 21.465 10.67 21.645 10.85 21.645Z" fill="#0C4393"/>
<path d="M20.03 25.5149H10.85C10.67 25.5149 10.49 25.6499 10.49 25.8749C10.49 26.0549 10.625 26.2349 10.85 26.2349H20.03C20.21 26.2349 20.39 26.0999 20.39 25.8749C20.345 25.6949 20.21 25.5149 20.03 25.5149Z" fill="#0C4393"/>
<path d="M15.44 30.105H10.85C10.67 30.105 10.49 30.24 10.49 30.465C10.49 30.69 10.625 30.825 10.85 30.825H15.44C15.62 30.825 15.8 30.69 15.8 30.465C15.8 30.24 15.62 30.105 15.44 30.105Z" fill="#0C4393"/>
<path d="M15.44 34.6951H10.85C10.67 34.6951 10.49 34.8301 10.49 35.0551C10.49 35.2351 10.625 35.4151 10.85 35.4151H15.44C15.62 35.4151 15.8 35.2801 15.8 35.0551C15.755 34.8301 15.62 34.6951 15.44 34.6951Z" fill="#0C4393"/>
<path d="M4.32509 33.5249C4.14509 33.5249 3.96509 33.6599 3.96509 33.8849V38.4749C3.96509 38.6549 4.10009 38.8349 4.32509 38.8349C4.50509 38.8349 4.68509 38.6999 4.68509 38.4749V33.8399C4.68509 33.6599 4.50509 33.5249 4.32509 33.5249Z" fill="#0C4393"/>
<path d="M4.32509 30.2849C4.14509 30.2849 3.96509 30.4199 3.96509 30.6449V31.9499C3.96509 32.1299 4.10009 32.3099 4.32509 32.3099C4.50509 32.3099 4.68509 32.1749 4.68509 31.9499V30.6449C4.68509 30.4199 4.50509 30.2849 4.32509 30.2849Z" fill="#0C4393"/>
</svg>
