<svg width="46" height="45" viewBox="0 0 46 45" fill="none" xmlns="http://www.w3.org/2000/svg">
<path d="M43.2926 34.3718V36.7091H7.2444C6.56253 36.7091 6.00977 36.1563 6.00977 35.4745V34.3718H43.2926Z" fill="white"/>
<path d="M31.1023 18.5168V34.3719H6.00977V18.5168C6.00977 17.2951 7.00018 16.3047 8.22193 16.3047H28.8901C30.1119 16.3047 31.1023 17.2951 31.1023 18.5168Z" fill="white"/>
<path d="M42.52 29.0322V34.3718H31.1021V22.3091H37.2689L39.4438 26.3725L42.52 29.0322Z" fill="white"/>
<path d="M37.266 27.9996H33.7869V24.9973H35.6608L37.266 27.9996Z" fill="#E53935"/>
<path d="M40.0955 36.0107C40.0955 37.9988 38.4835 39.6107 36.4955 39.6107C34.5074 39.6107 32.8955 37.9988 32.8955 36.0107C32.8955 34.0227 34.5074 32.4175 36.4955 32.4175C38.4835 32.4175 40.0955 34.0227 40.0955 36.0107Z" fill="#E53935"/>
<path d="M18.556 36.0107C18.556 37.9988 16.944 39.6107 14.956 39.6107C12.9679 39.6107 11.356 37.9988 11.356 36.0107C11.356 34.0227 12.9679 32.4175 14.956 32.4175C16.944 32.4175 18.556 34.0227 18.556 36.0107Z" fill="#E53935"/>
<path d="M37.8455 36.0106C37.8455 36.763 37.241 37.3674 36.4955 37.3674C35.75 37.3674 35.1455 36.763 35.1455 36.0106C35.1455 35.2651 35.75 34.6606 36.4955 34.6606C37.241 34.6606 37.8455 35.2651 37.8455 36.0106Z" fill="white"/>
<path d="M16.306 36.0106C16.306 36.763 15.7015 37.3674 14.956 37.3674C14.2104 37.3674 13.606 36.763 13.606 36.0106C13.606 35.2651 14.2104 34.6606 14.956 34.6606C15.7015 34.6606 16.306 35.2651 16.306 36.0106Z" fill="white"/>
<path d="M42.7331 15.9008C42.7886 16.0755 42.9769 16.1742 43.1555 16.1175C43.332 16.0608 43.429 15.8715 43.372 15.6949C42.335 12.4714 40.5444 9.51096 38.195 7.13303C38.0651 7.00183 37.8526 6.99958 37.72 7.1304C37.5883 7.26058 37.5869 7.47304 37.7174 7.60521C39.9934 9.90844 41.7276 12.777 42.7331 15.9008Z" fill="#0C4393"/>
<path d="M44.0928 18.6171C44.0613 18.4335 43.8816 18.3121 43.7045 18.3436C43.5221 18.3754 43.3994 18.5492 43.4316 18.7319C43.5569 19.4543 43.6448 20.188 43.6926 20.9124C43.7045 21.0899 43.852 21.2259 44.0272 21.2259C44.035 21.2259 44.0422 21.2256 44.0501 21.2253C44.2351 21.2129 44.3754 21.0531 44.363 20.8678C44.3132 20.1201 44.2226 19.3625 44.0928 18.6171Z" fill="#0C4393"/>
<path d="M29.7821 42.2257C26.4862 43.4122 22.92 43.7326 19.4654 43.1494C19.2863 43.1232 19.1093 43.242 19.0784 43.425C19.0477 43.6076 19.171 43.7811 19.3539 43.8119C20.5129 44.0071 21.6837 44.1042 22.8538 44.1042C25.2852 44.1042 27.7114 43.685 30.009 42.8573C30.1841 42.7947 30.2747 42.6022 30.2117 42.4276C30.1488 42.2529 29.9553 42.1614 29.7821 42.2257Z" fill="#0C4393"/>
<path d="M13.1564 3.54225C13.3217 3.45796 13.3879 3.25593 13.3033 3.09064C13.2194 2.92441 13.016 2.86107 12.8521 2.94341C7.38448 5.72542 3.30147 10.649 1.64931 16.4513C1.59813 16.6295 1.70176 16.8154 1.88016 16.8662C2.05397 16.9161 2.24304 16.817 2.29468 16.6351C3.89643 11.0117 7.85544 6.23963 13.1564 3.54225Z" fill="#0C4393"/>
<path d="M17.2972 1.95853C17.9007 1.79881 18.5179 1.66536 19.1331 1.56173C19.3161 1.5309 19.4395 1.35741 19.4086 1.17473C19.3777 0.991437 19.202 0.873697 19.0216 0.899219C18.386 1.00648 17.7485 1.14423 17.1254 1.30919C16.9463 1.35674 16.8394 1.54037 16.8867 1.71976C16.9339 1.89775 17.1161 2.00588 17.2972 1.95853Z" fill="#0C4393"/>
<path d="M43.2929 34.0355H42.8563V29.0317C42.8563 28.9377 42.8161 28.8437 42.7422 28.7765L41.1303 27.3862C41.5601 25.8012 41.7884 24.1355 41.7884 22.4161C41.7884 11.8646 33.1982 3.28101 22.6466 3.28101C12.0885 3.28101 3.50488 11.8646 3.50488 22.4161C3.50488 25.5258 4.26383 28.5549 5.67428 31.2549V34.3713V35.4728C5.67428 36.3392 6.37951 37.0444 7.24591 37.0444H11.1616C11.4101 37.9646 11.9877 38.7504 12.7601 39.2743C12.7601 39.2743 12.7607 39.2746 12.7609 39.2748H9.22495C9.03936 39.2748 8.88918 39.4249 8.88918 39.6106C8.88918 39.7962 9.03936 39.9464 9.22495 39.9464H14.9705C14.9972 39.9663 15.0238 39.9864 15.0571 39.9996C17.4549 41.034 20.0071 41.5646 22.6466 41.5646C25.3798 41.5646 27.9787 40.9871 30.3358 39.9464H42.5197C42.7054 39.9464 42.8556 39.7962 42.8556 39.6106C42.8556 39.4249 42.7054 39.2748 42.5197 39.2748H38.6914C39.4641 38.7508 40.0422 37.9646 40.2907 37.0444H43.2929C43.481 37.0444 43.6287 36.8967 43.6287 36.7086V34.3713C43.6287 34.1833 43.481 34.0355 43.2929 34.0355ZM42.1847 29.1862V34.0355H39.8877C39.2509 32.8984 37.9489 32.081 36.4959 32.081C35.0452 32.081 33.7825 32.8668 33.1041 34.0355H31.4384V22.6444H37.0668L39.1489 26.5333C39.169 26.5668 39.1959 26.6004 39.2228 26.6272L40.3646 27.6146L40.9287 28.1049L42.1847 29.1862ZM32.5803 36.3728H18.872C18.9291 35.858 18.8674 35.2714 18.6638 34.7071H32.7884C32.6407 35.1168 32.5601 35.5534 32.5601 36.0101C32.5601 36.131 32.5668 36.2519 32.5803 36.3728ZM4.17652 22.4161C4.17652 12.234 12.4646 3.95265 22.6466 3.95265C32.8287 3.95265 41.1168 12.234 41.1168 22.4161C41.1168 23.9609 40.9287 25.4586 40.5661 26.896L39.7131 26.1571L37.5638 22.1541C37.5034 22.04 37.3959 21.9728 37.2683 21.9728H31.4384V18.5138C31.4384 17.1101 30.2966 15.9683 28.893 15.9683H8.21978C6.81607 15.9683 5.67428 17.1101 5.67428 18.5138V29.6899C4.7004 27.4131 4.17652 24.9415 4.17652 22.4161ZM6.34593 18.5138C6.34593 17.4795 7.18548 16.6399 8.21978 16.6399H28.893C29.9273 16.6399 30.7668 17.4795 30.7668 18.5138V34.0355H18.3482C17.6698 32.8668 16.4071 32.081 14.9563 32.081C13.5056 32.081 12.243 32.8668 11.5646 34.0355C11.4449 34.0355 6.20447 34.0355 6.34593 34.0355C6.34593 28.2331 6.34593 24.1367 6.34593 18.5138ZM7.24591 36.3728C6.74891 36.3728 6.34593 35.9698 6.34593 35.4728V34.7071C6.49778 34.7071 11.5477 34.7071 11.2489 34.7071C11.0464 35.2686 10.9832 35.856 11.0407 36.3728C10.9571 36.3728 7.14685 36.3728 7.24591 36.3728ZM11.719 36.3728C11.4363 34.6781 12.8802 32.7526 14.9563 32.7526C17.0091 32.7526 18.4782 34.6641 18.1937 36.3728C18.0589 37.8989 16.7042 39.2743 14.9563 39.2743C13.2186 39.2743 11.8542 37.9065 11.719 36.3728ZM17.1527 39.2743C17.9251 38.7504 18.5027 37.9646 18.7511 37.0444H32.7011C32.7616 37.2862 32.8556 37.5146 32.9631 37.7362C31.603 38.6569 30.6337 39.0554 30.1948 39.2748H17.1519C17.1521 39.2746 17.1524 39.2744 17.1527 39.2743ZM22.6466 40.893C20.6457 40.893 18.6851 40.5774 16.8184 39.9464H28.475C26.6418 40.564 24.6812 40.893 22.6466 40.893ZM31.7062 39.2748C31.9344 39.1444 32.4514 38.884 33.3056 38.3071C33.5743 38.6833 33.9101 39.0123 34.2997 39.2743C34.2997 39.2743 34.3002 39.2746 34.3004 39.2748H31.7062ZM36.4959 39.2743C34.6883 39.2743 33.2317 37.7977 33.2317 36.0101C33.2317 34.175 34.736 32.7526 36.4959 32.7526C38.3952 32.7526 39.9599 34.3947 39.74 36.3728C39.5486 37.9996 38.1799 39.2743 36.4959 39.2743ZM42.9571 36.3728H40.4116C40.4692 35.8549 40.4057 35.268 40.2034 34.7071H42.5205H42.9571V36.3728Z" fill="#0C4393"/>
<path d="M35.9586 24.8408C35.8982 24.7265 35.784 24.6594 35.6631 24.6594H33.7892C33.6012 24.6594 33.4534 24.8139 33.4534 24.9953V27.9975C33.4534 28.1856 33.6012 28.3333 33.7892 28.3333H37.2683H37.2817C37.4631 28.3333 37.6175 28.1856 37.6175 27.9975C37.6175 27.9102 37.5772 27.8295 37.5236 27.7691L35.9586 24.8408ZM34.125 27.6616V25.331H35.4616L36.7041 27.6616H34.125Z" fill="#0C4393"/>
<path d="M36.4959 34.3242C35.5749 34.3242 34.8101 35.0829 34.8101 36.01C34.8101 36.9373 35.5666 37.7026 36.4959 37.7026C37.4367 37.7026 38.1817 36.9247 38.1817 36.01C38.1817 35.0776 37.4134 34.3242 36.4959 34.3242ZM36.4959 37.031C35.9079 37.031 35.4817 36.5212 35.4817 36.01C35.4817 35.4399 35.9571 34.9959 36.4959 34.9959C37.0261 34.9959 37.5101 35.429 37.5101 36.01C37.5101 36.5658 37.0542 37.031 36.4959 37.031Z" fill="#0C4393"/>
<path d="M16.6018 36.3727C16.8383 35.3081 16.0077 34.3242 14.9563 34.3242C13.8858 34.3242 13.0769 35.3198 13.3108 36.3727C13.4689 37.1043 14.1193 37.7026 14.9563 37.7026C15.768 37.7026 16.4401 37.1208 16.6018 36.3727ZM14.9563 34.9959C15.6129 34.9959 16.1615 35.641 15.9033 36.3727C15.7556 36.7556 15.3862 37.031 14.9563 37.031C14.5265 37.031 14.157 36.7556 14.0093 36.3727C13.752 35.6437 14.2972 34.9959 14.9563 34.9959Z" fill="#0C4393"/>
<path d="M6.21973 39.2749H3.15858C2.97301 39.2749 2.82275 39.4251 2.82275 39.6107C2.82275 39.7963 2.97301 39.9466 3.15858 39.9466H6.21973C6.40529 39.9466 6.55554 39.7963 6.55554 39.6107C6.55554 39.4251 6.40529 39.2749 6.21973 39.2749Z" fill="#0C4393"/>
<path d="M15.9101 29.8915H15.9168C16.7027 29.8915 17.3407 29.2535 17.3407 28.4743V20.9251C17.3407 20.1393 16.7027 19.5012 15.9101 19.5012C15.131 19.5012 14.4929 20.1393 14.4929 20.9251V28.4743C14.4929 29.2535 15.131 29.8915 15.9101 29.8915ZM15.1646 20.9251C15.1646 20.5087 15.5004 20.1729 15.9168 20.1729C16.3332 20.1729 16.6691 20.5087 16.6691 20.9251V28.4743C16.6691 28.884 16.3332 29.2199 15.9168 29.2199H15.9101C15.5004 29.2199 15.1646 28.884 15.1646 28.4743V20.9251Z" fill="#0C4393"/>
<path d="M26.4819 29.8915C27.2676 29.8915 27.9057 29.2535 27.9057 28.4743V20.9251C27.9057 20.1393 27.2676 19.5012 26.4819 19.5012C25.7027 19.5012 25.0647 20.1393 25.0647 20.9251V28.4743C25.0647 29.2535 25.7027 29.8915 26.4819 29.8915ZM25.7363 20.9251C25.7363 20.5087 26.0721 20.1729 26.4819 20.1729C26.8983 20.1729 27.2341 20.5087 27.2341 20.9251V28.4743C27.2341 28.884 26.8983 29.2199 26.4819 29.2199C26.0721 29.2199 25.7363 28.884 25.7363 28.4743V20.9251Z" fill="#0C4393"/>
<path d="M21.1959 29.8915H21.2027C21.9885 29.8915 22.6265 29.2535 22.6265 28.4743V20.9251C22.6265 20.1393 21.9885 19.5012 21.1959 19.5012C20.4168 19.5012 19.7788 20.1393 19.7788 20.9251V28.4743C19.7788 29.2535 20.4168 29.8915 21.1959 29.8915ZM20.4504 20.9251C20.4504 20.5087 20.7862 20.1729 21.2027 20.1729C21.6191 20.1729 21.9549 20.5087 21.9549 20.9251V28.4743C21.9549 28.884 21.6191 29.2199 21.2027 29.2199H21.1959C20.7862 29.2199 20.4504 28.884 20.4504 28.4743V20.9251Z" fill="#0C4393"/>
<path d="M10.6242 29.8915H10.631C11.4168 29.8915 12.0548 29.2535 12.0548 28.4743V20.9251C12.0548 20.1393 11.4168 19.5012 10.6242 19.5012C9.84513 19.5012 9.20703 20.1393 9.20703 20.9251V28.4743C9.20703 29.2535 9.84513 29.8915 10.6242 29.8915ZM9.87869 20.9251C9.87869 20.5087 10.2145 20.1729 10.631 20.1729C11.0473 20.1729 11.3832 20.5087 11.3832 20.9251V28.4743C11.3832 28.884 11.0473 29.2199 10.631 29.2199H10.6242C10.2145 29.2199 9.87869 28.884 9.87869 28.4743V20.9251Z" fill="#0C4393"/>
</svg>
