<svg width="46" height="45" viewBox="0 0 46 45" fill="none" xmlns="http://www.w3.org/2000/svg">
<path d="M29.4801 17.9099V20.8799H27.1851V19.0349C27.1851 18.3599 26.6451 17.8199 25.9701 17.8199H20.1201C19.4451 17.8199 18.9051 18.3599 18.9051 19.0349V20.8799H16.6101V17.9099C16.6101 16.8299 17.5101 15.9299 18.5901 15.9299H27.5001C28.5801 15.9299 29.4801 16.8299 29.4801 17.9099Z" fill="#E53935"/>
<path d="M37.2649 29.3401V41.5351C37.2649 42.5701 36.41 43.4251 35.375 43.4251H10.715C9.67995 43.4251 8.82495 42.5701 8.82495 41.5351V29.3401H37.2649Z" fill="white"/>
<path d="M38.3 24.93V31.32H7.79004V24.93C7.79004 24.48 7.97004 23.985 8.28504 23.67L10.265 21.51C10.625 21.105 11.12 20.925 11.66 20.925H34.475C35.015 20.925 35.51 21.15 35.87 21.51L37.85 23.67C38.12 23.985 38.3 24.435 38.3 24.93Z" fill="white"/>
<path d="M12.2451 28.1699H17.6001V31.3199H12.2451V28.1699Z" fill="#E53935"/>
<path d="M13.0549 31.3201H16.7899V34.5151H13.0549V31.3201Z" fill="#E53935"/>
<path d="M28.49 28.1699H33.845V31.3199H28.49V28.1699Z" fill="#E53935"/>
<path d="M29.3 31.3201H33.0351V34.5151H29.3V31.3201Z" fill="#E53935"/>
<path d="M32.4951 14.7599C30.3801 14.8049 28.5351 13.6799 27.5451 11.9699L12.2901 12.2849C10.7601 12.3299 9.50008 11.1149 9.45508 9.58493C9.45508 8.81993 9.72508 8.14493 10.2201 7.60493C10.7151 7.10993 11.3901 6.79493 12.1551 6.74993L27.4101 6.43493C28.3551 4.67993 30.1551 3.50993 32.2701 3.46493C34.3851 3.41993 36.2301 4.54493 37.2651 6.25493L34.0251 6.29993L32.0001 9.13492L34.1151 11.8349L37.3551 11.7899C36.4101 13.5449 34.6101 14.7149 32.4951 14.7599Z" fill="white"/>
<path d="M44.5101 19.935C44.6001 20.385 45.2751 20.295 45.1851 19.8449C44.4651 15.48 42.4851 11.43 39.4251 8.14495C39.2901 8.00995 39.0651 8.00995 38.9301 8.14495C38.7951 8.27995 38.7951 8.50495 38.9301 8.63995C41.9001 11.79 43.8351 15.705 44.5101 19.935Z" fill="#0C4393"/>
<path d="M45.1401 23.085C44.9601 23.085 44.7801 23.22 44.7801 23.445C44.7801 24.93 44.6001 26.415 44.2851 27.855C44.2401 28.035 44.3751 28.215 44.5551 28.26C44.7351 28.305 44.9151 28.17 44.9601 27.99C45.2751 26.505 45.4551 24.975 45.5001 23.4C45.5001 23.265 45.3201 23.085 45.1401 23.085Z" fill="#0C4393"/>
<path d="M4.955 35.0099C2.57 31.5449 1.31 27.6749 1.22 23.7599C1.22 23.5799 1.085 23.4449 0.86 23.3999C0.68 23.3999 0.5 23.5799 0.5 23.7599C0.59 27.8099 1.895 31.8149 4.37 35.3699C4.46 35.5049 4.55 35.5499 4.685 35.5499C4.73 35.5499 4.82 35.5499 4.865 35.5049C5.045 35.4149 5.09 35.1899 4.955 35.0099Z" fill="#0C4393"/>
<path d="M3.87507 12.3749C4.05507 12.4649 4.23507 12.4199 4.37007 12.2399C7.07007 7.7399 11.3451 4.3649 16.3401 2.6999C16.5201 2.6549 16.6101 2.4299 16.5651 2.2499C16.5201 2.0699 16.2951 1.9799 16.1151 2.0249C10.9401 3.7799 6.57507 7.24489 3.74007 11.8799C3.65007 12.0599 3.69507 12.2399 3.87507 12.3749Z" fill="#0C4393"/>
<path d="M19.13 1.9799C20.3 1.7999 21.47 1.6649 22.64 1.6199C22.82 1.6199 23 1.4399 23 1.2599C23 1.0799 22.865 0.944902 22.64 0.899902C21.425 0.944902 20.21 1.0349 18.995 1.2599C18.815 1.3049 18.68 1.4849 18.725 1.6649C18.77 1.8899 18.95 2.0249 19.13 1.9799Z" fill="#0C4393"/>
<path d="M41.99 43.1101H36.995C37.4 42.7051 37.625 42.1651 37.625 41.5801V36.72C40.82 33.21 42.8 28.575 42.8 23.445C42.8 16.605 39.245 10.53 33.935 7.02005L34.16 6.70505L37.265 6.66005C37.4 6.66005 37.49 6.57005 37.58 6.48005C37.625 6.39005 37.625 6.25505 37.58 6.12005C35.735 2.97005 31.505 2.16005 28.625 4.54505C26.87 4.00505 24.98 3.73505 23.09 3.73505C19.445 3.73505 16.07 4.72505 13.1 6.48005H12.155C10.535 6.52505 9.14004 7.78505 9.14004 9.54005C5.54004 13.05 3.29004 18 3.29004 23.445C3.29004 28.575 5.27004 33.21 8.46504 36.72V41.535C8.46504 42.1201 8.69004 42.705 9.09504 43.065H5.09004C4.91004 43.065 4.73004 43.245 4.73004 43.425C4.73004 43.605 4.86504 43.785 5.09004 43.785H41.99C42.17 43.785 42.35 43.6501 42.35 43.425C42.35 43.245 42.17 43.1101 41.99 43.1101ZM23.045 4.41005C24.755 4.41005 26.42 4.63505 27.995 5.08505C27.68 5.40005 27.41 5.76005 27.185 6.16505L14.54 6.43505C17.105 5.13005 19.985 4.41005 23.045 4.41005ZM12.155 7.15505L27.41 6.84005C27.545 6.84005 27.635 6.75005 27.725 6.66005C29.57 3.24005 34.295 2.88005 36.635 5.94005L34.025 5.98505C33.935 5.98505 33.8 6.03005 33.755 6.12005L31.775 8.91005C31.685 9.04505 31.685 9.18005 31.775 9.31505L33.89 12.06C33.98 12.15 34.07 12.195 34.16 12.195L36.77 12.15C34.565 15.3 29.84 15.165 27.86 11.835C27.815 11.745 27.68 11.655 27.545 11.655L12.2 11.97C10.895 11.97 9.81504 10.89 9.81504 9.58505C9.77004 8.28005 10.805 7.15505 12.155 7.15505ZM8.46504 35.6851C5.67504 32.4 4.01004 28.125 4.01004 23.445C4.01004 18.36 5.99004 13.77 9.23004 10.35C9.59004 11.655 10.805 12.645 12.29 12.645L27.365 12.33C29.84 16.2 35.51 15.975 37.67 11.925C37.715 11.835 37.715 11.7 37.67 11.565C37.625 11.475 37.49 11.385 37.355 11.385L34.295 11.475L32.45 9.13505L33.575 7.56005C38.705 10.98 42.125 16.785 42.125 23.445C42.125 28.08 40.46 32.3551 37.67 35.6851V31.68H38.3C38.48 31.68 38.66 31.5 38.66 31.32V24.93C38.66 24.39 38.435 23.85 38.075 23.445C36.455 21.915 36.005 20.565 34.475 20.565H29.84V17.91C29.84 16.605 28.805 15.57 27.5 15.57H18.59C17.33 15.57 16.25 16.605 16.25 17.91V20.565H11.66C11.03 20.565 10.445 20.835 10.04 21.285L8.01504 23.4C7.65504 23.805 7.43004 24.345 7.43004 24.885V31.275C7.43004 31.455 7.61004 31.635 7.79004 31.635H8.46504V35.6851ZM25.97 17.505H20.12C19.265 17.505 18.59 18.225 18.59 19.08V20.565H16.97V17.91C16.97 17.01 17.69 16.29 18.59 16.29H27.5C28.4 16.29 29.12 17.01 29.12 17.91V20.565H27.5V19.08C27.5 18.225 26.825 17.505 25.97 17.505ZM26.825 19.08V20.565H19.265V19.08C19.265 18.585 19.67 18.225 20.12 18.225H25.925C26.42 18.225 26.825 18.585 26.825 19.08ZM8.82504 28.98C8.64504 28.98 8.46504 29.115 8.46504 29.34V31.005H8.15004V24.93C8.15004 24.57 8.28504 24.165 8.55504 23.895L10.535 21.735C10.805 21.42 11.255 21.24 11.66 21.24H34.475C35.555 21.24 35.825 22.14 37.58 23.895C37.85 24.165 37.985 24.525 37.985 24.93V31.005H37.67V29.34C37.67 29.16 37.49 28.98 37.31 28.98H34.205V28.17C34.205 27.99 34.07 27.81 33.845 27.81H28.49C28.31 27.81 28.13 27.945 28.13 28.17V28.98H17.96V28.17C17.96 27.99 17.825 27.81 17.6 27.81H12.245C12.065 27.81 11.885 27.945 11.885 28.17V28.98H8.82504ZM28.85 31.005V28.5301H33.53V31.005H28.85ZM32.72 31.68V34.2H29.66V31.68H32.72ZM28.175 29.7V31.005H17.96V29.7H28.175ZM12.605 31.005V28.5301H17.285V31.005H12.605ZM16.43 31.68V34.2H13.37V31.68H16.43ZM11.885 29.7V31.005H9.14004V29.7H11.885ZM36.95 41.535C36.95 42.39 36.23 43.065 35.42 43.065H10.715C9.86004 43.065 9.18504 42.39 9.18504 41.535V31.68H12.74V34.515C12.74 34.695 12.92 34.875 13.1 34.875H16.835C17.015 34.875 17.195 34.695 17.195 34.515V31.68H29.03V34.515C29.03 34.695 29.165 34.875 29.39 34.875H33.125C33.305 34.875 33.485 34.695 33.485 34.515V31.68H36.95V41.535ZM36.95 31.005H34.205V29.7H36.95V31.005Z" fill="#0C4393"/>
<path d="M12.3801 10.5299C12.9201 10.5299 13.3251 10.0799 13.3251 9.58489C13.3251 9.08989 12.8751 8.63989 12.3801 8.63989C11.8401 8.63989 11.4351 9.08989 11.4351 9.58489C11.4351 10.0799 11.8401 10.5299 12.3801 10.5299Z" fill="#0C4393"/>
</svg>
