<svg width="46" height="47" viewBox="0 0 46 47" fill="none" xmlns="http://www.w3.org/2000/svg">
<path d="M26.1049 9.77497L44.1499 27.955C45.5449 29.35 45.5449 31.6 44.1499 32.995L32.5849 44.65C31.1899 46.045 28.9849 46.045 27.5899 44.65L9.58993 26.47C8.91493 25.795 8.55493 24.895 8.55493 23.95C8.55493 21.745 8.55493 20.08 8.55493 17.83C8.55493 16.885 8.91493 15.985 9.58993 15.31L15.0799 9.77497C15.7549 9.09997 16.6549 8.73997 17.5999 8.73997H23.6299C24.5299 8.69497 25.4299 9.09997 26.1049 9.77497Z" fill="white"/>
<path d="M15.0349 17.5149C15.9799 17.5149 16.7449 16.7499 16.7449 15.7599C16.7449 14.8149 15.9799 14.0049 15.0349 14.0049C14.0899 14.0049 13.3249 14.7699 13.3249 15.7599C13.2799 16.7049 14.0449 17.5149 15.0349 17.5149Z" fill="#E53935"/>
<path d="M27.59 1.67502C28.67 1.99002 29.795 2.39502 30.83 2.84502C30.875 2.84502 30.92 2.89002 30.965 2.89002C31.1 2.89002 31.235 2.80002 31.28 2.66502C31.37 2.48502 31.28 2.26002 31.1 2.21502C30.02 1.72002 28.895 1.31502 27.725 1.00002C27.545 0.95502 27.365 1.04502 27.32 1.27002C27.275 1.45002 27.41 1.63002 27.59 1.67502Z" fill="#0C4393"/>
<path d="M43.6549 22.0151C43.6549 22.1951 43.8349 22.3751 44.0149 22.3751C44.1949 22.3751 44.3749 22.1951 44.3299 22.0151C44.1049 14.9951 40.4149 8.3351 34.5199 4.1951C34.3399 4.1051 34.1599 4.1051 34.0249 4.2851C33.9349 4.4651 33.9349 4.6451 34.1149 4.7801C39.8299 8.7851 43.3849 15.2201 43.6549 22.0151Z" fill="#0C4393"/>
<path d="M23.135 44.7401C22.325 44.7851 21.47 44.7851 20.66 44.6951C20.48 44.6951 20.3 44.8301 20.3 45.0101C20.3 45.1901 20.435 45.3701 20.615 45.3701C21.47 45.4151 22.37 45.4601 23.18 45.4151C23.36 45.4151 23.54 45.2351 23.495 45.0551C23.45 44.8751 23.315 44.6951 23.135 44.7401Z" fill="#0C4393"/>
<path d="M17.375 44.2C14.315 43.48 11.48 42.04 9.13999 40.06C9.00499 39.925 8.77999 39.97 8.64499 40.105C8.50999 40.24 8.55499 40.465 8.68999 40.6C11.12 42.625 14.09 44.11 17.195 44.875C17.375 44.92 17.555 44.83 17.6 44.605C17.69 44.425 17.555 44.245 17.375 44.2Z" fill="#0C4393"/>
<path d="M1.12988 19.585C1.17488 19.405 1.03988 19.225 0.81488 19.18C0.63488 19.135 0.45488 19.27 0.40988 19.495C-0.08512 23.23 0.36488 27.1 1.71488 30.655C1.80488 30.835 1.98488 30.925 2.16488 30.88C2.34488 30.79 2.43488 30.61 2.38988 30.43C1.08488 26.92 0.67988 23.185 1.12988 19.585Z" fill="#0C4393"/>
<path d="M1.08502 17.65C1.26502 17.695 1.44502 17.605 1.49002 17.38C1.67002 16.705 1.85002 15.985 2.07502 15.355C2.12002 15.175 2.03002 14.95 1.85002 14.905C1.67002 14.86 1.49002 14.95 1.40002 15.13C1.17502 15.805 0.95002 16.525 0.77002 17.245C0.81502 17.425 0.905019 17.605 1.08502 17.65Z" fill="#0C4393"/>
<path d="M44.375 27.6849L41.9 25.1649C41.99 24.4449 42.035 23.6799 42.035 22.9149C42.035 12.0249 33.26 3.15991 22.46 3.15991C18.815 3.15991 15.395 4.14991 12.47 5.94991C9.95001 4.28491 7.07001 4.05991 5.49501 5.63491C3.92001 7.20991 4.10001 10.0899 5.76501 12.6099C3.92001 15.6249 2.88501 19.1349 2.88501 22.9149C2.88501 33.8049 11.66 42.6699 22.46 42.6699C23.315 42.6699 24.17 42.5799 24.98 42.4899L27.365 44.8749C28.895 46.4049 31.325 46.4049 32.855 44.8749L44.42 33.2199C45.86 31.6899 45.86 29.2149 44.375 27.6849ZM22.46 3.92491C32.855 3.92491 41.315 12.4749 41.315 22.9599C41.315 23.4999 41.27 24.0399 41.225 24.5799L26.33 9.50491C25.61 8.78491 24.62 8.37991 23.585 8.37991H17.555C16.79 8.37991 16.07 8.60491 15.44 9.00991C14.765 7.92991 14 7.11991 13.1 6.44491C15.845 4.82491 19.04 3.92491 22.46 3.92491ZM9.23001 15.1299C8.15001 14.4549 7.34001 13.6449 6.57501 12.6099C8.06001 10.2699 10.085 8.28991 12.425 6.80491C13.37 7.52491 14.18 8.37991 14.855 9.45991C14.81 9.50491 14.81 9.50491 14.765 9.50491C13.595 10.7649 9.68001 14.6799 9.23001 15.1299ZM5.99001 6.17491C7.29501 4.86991 9.63501 5.04991 11.795 6.39991C9.54501 7.88491 7.65501 9.77491 6.17001 12.0249C4.86501 9.81991 4.73001 7.47991 5.99001 6.17491ZM22.46 41.9949C12.065 41.9949 3.60501 33.4449 3.60501 22.9599C3.60501 19.4499 4.55001 16.1199 6.21501 13.2849C6.93501 14.2299 7.74501 14.9949 8.82501 15.7149C8.42001 16.3449 8.19501 17.1099 8.19501 17.8749C8.19501 20.0799 8.19501 21.7449 8.19501 23.9499C8.19501 24.9849 8.60001 25.9749 9.32001 26.7399L24.35 41.8599C23.72 41.9499 23.09 41.9949 22.46 41.9949ZM43.88 32.7249L32.315 44.3799C31.055 45.6399 29.075 45.6399 27.815 44.3799L9.81501 26.1999C9.23001 25.6149 8.87001 24.7599 8.87001 23.9049C8.87001 21.6999 8.87001 20.0349 8.87001 17.7849C8.87001 17.1549 9.05001 16.5249 9.41001 15.9849C10.625 16.6599 11.975 17.0649 13.325 16.8849C14.09 17.9649 15.62 18.0549 16.475 17.1549C17.285 16.3449 17.285 14.9949 16.475 14.1849L16.43 14.1399C15.98 13.5549 14.45 13.2849 13.55 14.1849C13.01 14.7249 12.83 15.4899 13.01 16.1649C12.02 16.2099 10.94 15.9399 9.86001 15.3999L15.305 9.99991C15.89 9.41491 16.7 9.05491 17.555 9.05491H23.585C24.44 9.05491 25.25 9.36991 25.835 9.99991L43.88 28.1799C45.095 29.4399 45.095 31.4649 43.88 32.7249ZM14.045 14.7699C14.495 14.3199 15.125 14.2299 15.71 14.5449C15.575 14.8599 15.395 15.1749 15.17 15.3999C14.81 15.8049 14.315 16.0299 13.73 16.1649C13.55 15.7149 13.685 15.1749 14.045 14.7699ZM15.98 16.7499C15.485 17.2449 14.63 17.2449 14.135 16.8399C14.72 16.6599 15.215 16.3449 15.62 15.9399C15.845 15.7149 16.025 15.4449 16.205 15.1299C16.52 15.6249 16.43 16.2999 15.98 16.7499Z" fill="#0C4393"/>
<path d="M24.5749 12.2499C24.4399 12.1149 24.2149 12.1149 24.0799 12.2499L12.0199 24.3999C11.9749 24.4449 11.9299 24.5349 11.9299 24.6699C11.9299 24.7599 11.9749 24.8499 12.0199 24.9399L29.5699 42.6249C29.7049 42.7599 29.8849 42.8499 30.0649 42.8499C30.2449 42.8499 30.4249 42.7599 30.5599 42.6249L42.1249 30.9699C42.3949 30.6999 42.3949 30.2499 42.1249 29.9799L24.5749 12.2499ZM30.0649 42.1299L12.7849 24.6699L24.3499 13.0149L41.6299 30.4749L30.0649 42.1299Z" fill="#0C4393"/>
<path d="M24.44 21.8801C24.305 21.7451 24.08 21.7451 23.945 21.8801L18.995 26.9201C18.86 27.0551 18.86 27.2801 18.995 27.4151C19.13 27.5501 19.355 27.5501 19.49 27.4151L24.485 22.3751C24.575 22.2401 24.575 22.0151 24.44 21.8801Z" fill="#0C4393"/>
<path d="M25.7449 21.07L27.0499 19.765C27.1849 19.63 27.1849 19.405 27.0499 19.27C26.9149 19.135 26.6899 19.135 26.5549 19.27L25.2499 20.575C25.1149 20.71 25.1149 20.935 25.2499 21.07C25.3849 21.205 25.6099 21.205 25.7449 21.07Z" fill="#0C4393"/>
<path d="M24.08 16.7951L19.31 21.6101C19.175 21.7451 19.175 21.9701 19.31 22.1051C19.445 22.2401 19.67 22.2401 19.805 22.1051L24.575 17.2901C24.71 17.1551 24.71 16.9301 24.575 16.7951C24.44 16.6601 24.215 16.6601 24.08 16.7951Z" fill="#0C4393"/>
<path d="M17.87 23.05L16.52 24.445C16.385 24.58 16.385 24.805 16.52 24.94C16.655 25.075 16.88 25.075 17.015 24.94L18.365 23.545C18.5 23.41 18.5 23.185 18.365 23.05C18.23 22.915 18.005 22.915 17.87 23.05Z" fill="#0C4393"/>
<path d="M22.505 28.3151L21.425 29.3951C21.29 29.5301 21.29 29.7551 21.425 29.8901C21.56 30.0251 21.785 30.0251 21.92 29.8901L23 28.8101C23.135 28.6751 23.135 28.4501 23 28.3151C22.865 28.1801 22.64 28.1801 22.505 28.3151Z" fill="#0C4393"/>
<path d="M23.81 27.46C23.945 27.595 24.17 27.595 24.305 27.46L29.48 22.24C29.615 22.105 29.615 21.88 29.48 21.745C29.345 21.61 29.12 21.61 28.985 21.745L23.81 26.965C23.675 27.1 23.675 27.325 23.81 27.46Z" fill="#0C4393"/>
<path d="M30.1549 34.2101L29.3449 33.4001L31.2349 31.4651L32.0449 32.2751L30.1549 34.2101ZM31.0099 35.0651L30.5599 34.6151L32.8099 32.3201L33.2599 32.7701L31.0099 35.0651ZM32.2249 35.2901L27.5449 30.5651L29.2549 28.8551C29.4799 28.6301 29.7499 28.4501 30.0199 28.3601C30.2899 28.2701 30.5599 28.2251 30.8299 28.2251C31.0999 28.2251 31.3699 28.3151 31.6399 28.4051C31.9099 28.5401 32.1349 28.6751 32.3149 28.8551C32.5849 29.1251 32.7649 29.4401 32.8999 29.8001C33.0349 30.1601 33.0349 30.5201 32.9899 30.8801C32.9449 31.2401 32.7199 31.6001 32.4499 31.8701L31.5499 32.7701L33.1249 34.3451L32.2249 35.2901ZM30.7399 31.9601L31.5049 31.1501C31.6399 31.0151 31.7299 30.8801 31.7299 30.7001C31.7299 30.5201 31.7299 30.3851 31.6399 30.2501C31.5499 30.0701 31.4599 29.9351 31.3249 29.7551C31.1449 29.5751 31.0099 29.4851 30.8299 29.3951C30.6499 29.3501 30.5149 29.3051 30.3349 29.3501C30.1999 29.3951 30.0649 29.4851 29.9299 29.6201L29.1649 30.3851L30.7399 31.9601Z" fill="#E53935"/>
</svg>
