<svg width="46" height="45" viewBox="0 0 46 45" fill="none" xmlns="http://www.w3.org/2000/svg">
<path d="M26.1671 8.95051L44.0674 26.8507C45.4375 28.2208 45.4375 30.4423 44.0674 31.8125L32.6007 43.2791C31.2306 44.6493 29.0091 44.6493 27.6389 43.2791L9.74079 25.381C9.08181 24.7219 8.71201 23.8268 8.71314 22.8949C8.71592 20.7167 8.71592 19.0725 8.71314 16.8943C8.71201 15.9624 9.08181 15.0672 9.74079 14.4081L15.1985 8.95051C15.8565 8.29245 16.7489 7.92285 17.6794 7.92285H23.6862C24.6167 7.92285 25.5091 8.29245 26.1671 8.95051Z" fill="white"/>
<path d="M15.1676 16.5627C16.1118 16.5627 16.8774 15.7972 16.8774 14.8529C16.8774 13.9086 16.1118 13.1431 15.1676 13.1431C14.2232 13.1431 13.4578 13.9086 13.4578 14.8529C13.4578 15.7972 14.2232 16.5627 15.1676 16.5627Z" fill="#E53935"/>
<path d="M27.645 1.00966C28.7398 1.30336 29.8259 1.69635 30.8738 2.17707C30.9204 2.19871 30.9693 2.20881 31.0177 2.20881C31.1486 2.20881 31.2739 2.13386 31.3322 2.00762C31.412 1.83408 31.3356 1.6288 31.1621 1.54915C30.0795 1.05155 28.9563 0.645081 27.824 0.341212C27.6411 0.295995 27.4506 0.401986 27.4006 0.58562C27.351 0.769947 27.4604 0.959735 27.645 1.00966Z" fill="#0C4393"/>
<path d="M43.5996 21.0245C43.6061 21.2115 43.7597 21.3581 43.9447 21.3581H43.9572C44.1483 21.3513 44.2971 21.1906 44.2904 21.0002C44.045 14.1024 40.3969 7.55172 34.5315 3.47629C34.3748 3.36692 34.1591 3.40542 34.0504 3.56272C33.9414 3.71939 33.9802 3.93476 34.1372 4.04344C39.8243 7.99603 43.3616 14.3435 43.5996 21.0245Z" fill="#0C4393"/>
<path d="M23.2112 43.3645C22.3911 43.4043 21.5597 43.3956 20.7403 43.3348C20.5486 43.3166 20.3842 43.4644 20.3704 43.6541C20.3561 43.8445 20.4993 44.0107 20.6897 44.0248C21.5588 44.0886 22.4458 44.0956 23.2456 44.0545C23.4363 44.0451 23.5832 43.883 23.5738 43.692C23.564 43.5015 23.3958 43.3355 23.2112 43.3645Z" fill="#0C4393"/>
<path d="M17.5229 42.8373C14.5061 42.1195 11.6768 40.7145 9.33987 38.7739C9.19303 38.6525 8.97531 38.6727 8.85308 38.8192C8.73118 38.9657 8.7515 39.1838 8.89834 39.306C11.3162 41.3141 14.2432 42.7677 17.3628 43.5098C17.5409 43.5542 17.7338 43.4444 17.7791 43.2532C17.8234 43.0675 17.7086 42.8811 17.5229 42.8373Z" fill="#0C4393"/>
<path d="M1.36941 18.604C1.39409 18.4142 1.26072 18.2414 1.07134 18.2164C0.877892 18.188 0.708776 18.3257 0.684094 18.5148C0.208413 22.1777 0.658789 25.9824 1.9862 29.5177C2.05478 29.6991 2.25785 29.7867 2.43153 29.7196C2.61012 29.6528 2.70055 29.4536 2.63369 29.2746C1.34576 25.8447 0.90859 22.1547 1.36941 18.604Z" fill="#0C4393"/>
<path d="M1.34702 16.7079C1.52457 16.7523 1.71781 16.6426 1.76324 16.452C1.92461 15.7741 2.12214 15.0989 2.35002 14.4452C2.4128 14.265 2.3176 14.0678 2.13735 14.005C1.95904 13.9416 1.75992 14.0368 1.69707 14.2171C1.46144 14.8929 1.25755 15.5911 1.09079 16.2913C1.04654 16.4776 1.16131 16.6639 1.34702 16.7079Z" fill="#0C4393"/>
<path d="M44.3118 26.6063L41.8337 24.1282C41.9167 23.405 41.9682 22.6723 41.9682 21.9272C41.9682 11.216 33.2539 2.50195 22.5427 2.50195C18.9266 2.50195 15.5402 3.49811 12.6379 5.22592C10.1315 3.56898 7.28339 3.36917 5.71756 4.9347C4.16551 6.48674 4.35109 9.30361 5.97612 11.7959C4.16427 14.7477 3.11743 18.2171 3.11743 21.9272C3.11743 32.6384 11.8314 41.3531 22.5427 41.3531C23.3906 41.3531 24.2193 41.2769 25.0376 41.1668L27.3945 43.5239C28.9018 45.0304 31.3385 45.03 32.8454 43.5239L44.3118 32.0571C45.8177 30.5519 45.8187 28.1125 44.3118 26.6063ZM22.5427 3.19335C32.8728 3.19335 41.2768 11.5975 41.2768 21.9272C41.2768 22.4573 41.2487 22.9806 41.2052 23.4997L26.4118 8.7063C25.6843 7.97843 24.7165 7.57733 23.6865 7.57733H17.6796C16.9178 7.57733 16.1913 7.79942 15.5696 8.20813C14.8885 7.14771 14.1423 6.3616 13.2527 5.66944C15.9931 4.09735 19.1633 3.19335 22.5427 3.19335ZM9.43505 14.2393C8.38079 13.5772 7.53724 12.785 6.80686 11.781C8.30019 9.47302 10.2852 7.51334 12.6149 6.05124C13.5707 6.7548 14.3702 7.5944 15.0314 8.64284C15.007 8.666 14.9781 8.68241 14.9542 8.7063C13.7405 9.92276 9.87367 13.7775 9.43505 14.2393ZM6.2064 5.42352C7.48761 4.14285 9.82999 4.30235 11.9901 5.631C9.77003 7.07353 7.86031 8.95374 6.3887 11.1529C5.0868 9.0076 4.937 6.69292 6.2064 5.42352ZM22.5427 40.6617C12.2129 40.6617 3.80882 32.2576 3.80882 21.9272C3.80882 18.455 4.7617 15.2026 6.41478 12.4116C7.1192 13.3289 7.94952 14.1124 8.99742 14.7872C8.59275 15.411 8.36669 16.1462 8.36769 16.895C8.3704 19.0725 8.3704 20.7167 8.36769 22.8941C8.36636 23.9109 8.77752 24.9062 9.49659 25.6252L24.4218 40.551C23.8029 40.616 23.1785 40.6617 22.5427 40.6617ZM43.823 31.5683L32.3565 43.035C31.1209 44.2708 29.1199 44.2716 27.8835 43.035L9.98544 25.1364C9.39567 24.5463 9.05771 23.7294 9.0591 22.8955C9.06181 20.7167 9.06181 19.0725 9.0591 16.8937C9.05804 16.2701 9.24724 15.6562 9.58917 15.1393C10.8029 15.7994 12.1192 16.1887 13.4925 16.0342C14.2568 17.1175 15.7498 17.1784 16.6212 16.3062C17.4227 15.5048 17.4227 14.201 16.6212 13.3995C16.6014 13.3798 16.5773 13.3663 16.5568 13.3475C16.1145 12.7803 14.6075 12.5058 13.7145 13.3995C13.182 13.9321 13.0114 14.6846 13.1866 15.3659C12.2032 15.4194 11.1085 15.1461 10.0447 14.5935L15.443 9.19515C16.0403 8.59757 16.8342 8.26874 17.6796 8.26874H23.6865C24.5318 8.26874 25.3257 8.59757 25.923 9.19515L43.823 27.0951C45.0588 28.3309 45.0595 30.3317 43.823 31.5683ZM14.2034 13.8884C14.6288 13.4629 15.2913 13.3524 15.8495 13.6773C15.7065 13.9892 15.5293 14.2756 15.2938 14.511C14.9163 14.8882 14.4369 15.1387 13.8767 15.2729C13.7241 14.8008 13.8292 14.2628 14.2034 13.8884ZM16.1324 15.8174C15.6421 16.3077 14.8108 16.3262 14.2864 15.8844C14.867 15.7076 15.3696 15.4126 15.7826 14.9998C16.0156 14.7671 16.1993 14.4934 16.3593 14.2021C16.6413 14.7196 16.5697 15.3798 16.1324 15.8174Z" fill="#0C4393"/>
<path d="M24.6651 11.4173C24.5301 11.2821 24.3114 11.2821 24.1762 11.4173L12.2048 23.3884C12.14 23.4532 12.1035 23.541 12.1035 23.6328C12.1035 23.7246 12.14 23.8124 12.2048 23.8772L29.6223 41.2952C29.755 41.4282 29.9317 41.5011 30.1196 41.5011C30.3077 41.5011 30.4842 41.4282 30.6166 41.2952L42.0833 29.8284C42.3571 29.5543 42.3571 29.1093 42.0833 28.8351L24.6651 11.4173ZM30.1274 40.8063C30.1264 40.8076 30.124 40.8097 30.1196 40.8097L30.1115 40.8063L12.9381 23.6328L24.4207 12.1505L41.5945 29.3395L30.1274 40.8063Z" fill="#0C4393"/>
<path d="M24.5338 20.8874C24.3987 20.7524 24.18 20.7524 24.0449 20.8874L19.1025 25.8298C18.9675 25.9648 18.9675 26.1836 19.1025 26.3186C19.2376 26.4537 19.4563 26.4537 19.5914 26.3186L24.5338 21.3763C24.6688 21.2412 24.6688 21.0224 24.5338 20.8874Z" fill="#0C4393"/>
<path d="M25.8201 20.09L27.1067 18.8038C27.2417 18.6687 27.2417 18.4499 27.1067 18.3149C26.9717 18.1799 26.7529 18.1799 26.6179 18.3149L25.3313 19.6011C25.1962 19.7362 25.1962 19.9549 25.3313 20.09C25.4663 20.225 25.6851 20.225 25.8201 20.09Z" fill="#0C4393"/>
<path d="M24.1761 15.8735L19.4353 20.6147C19.3002 20.7497 19.3002 20.9684 19.4353 21.1035C19.5703 21.2385 19.7891 21.2385 19.9241 21.1035L24.665 16.3623C24.8 16.2273 24.8 16.0085 24.665 15.8735C24.5299 15.7385 24.3112 15.7385 24.1761 15.8735Z" fill="#0C4393"/>
<path d="M18.0141 22.0351L16.6614 23.3881C16.5263 23.5232 16.5263 23.742 16.6614 23.877C16.7964 24.0121 17.0151 24.0121 17.1502 23.877L18.503 22.5239C18.638 22.3889 18.638 22.1702 18.503 22.0351C18.3679 21.9001 18.1491 21.9001 18.0141 22.0351Z" fill="#0C4393"/>
<path d="M22.621 27.1943L21.5441 28.2712C21.4091 28.4063 21.4091 28.625 21.5441 28.7601C21.6791 28.8951 21.8979 28.8951 22.033 28.7601L23.1099 27.6831C23.2449 27.5481 23.2449 27.3293 23.1099 27.1943C22.9749 27.0593 22.7561 27.0593 22.621 27.1943Z" fill="#0C4393"/>
<path d="M23.9152 26.389C24.0503 26.524 24.269 26.524 24.4041 26.389L29.548 21.2446C29.683 21.1096 29.683 20.8908 29.548 20.7558C29.413 20.6208 29.1942 20.6208 29.0592 20.7558L23.9152 25.9001C23.7802 26.0351 23.7802 26.2538 23.9152 26.389Z" fill="#0C4393"/>
<path d="M30.2104 32.9939L29.4177 32.2011L31.311 30.3079L32.1036 31.1006L30.2104 32.9939ZM31.0489 33.8324L30.6165 33.4L32.8636 31.153L33.2959 31.5854L31.0489 33.8324ZM32.2543 34.0683L27.603 29.4169L29.2997 27.7202C29.5268 27.4931 29.7736 27.3337 30.04 27.242C30.3108 27.1459 30.5837 27.1087 30.8589 27.1306C31.1384 27.148 31.4049 27.2136 31.6582 27.3271C31.9114 27.4407 32.1342 27.5935 32.3264 27.7857C32.5884 28.0477 32.7784 28.3556 32.8963 28.7094C33.0186 29.0588 33.047 29.4147 32.9815 29.7772C32.916 30.1398 32.7326 30.4717 32.4312 30.773L31.5927 31.6116L33.1518 33.1707L32.2543 34.0683ZM30.7999 30.8189L31.5796 30.0393C31.7149 29.9039 31.7957 29.762 31.8219 29.6135C31.8481 29.465 31.8241 29.3143 31.7498 29.1615C31.6757 28.9999 31.5643 28.8448 31.4158 28.6963C31.2542 28.5347 31.0904 28.4233 30.9244 28.3622C30.7628 28.2967 30.6056 28.2836 30.4527 28.3229C30.3043 28.3578 30.1645 28.4408 30.0335 28.5718L29.2932 29.3121L30.7999 30.8189Z" fill="#E53935"/>
</svg>
