<svg width="46" height="45" viewBox="0 0 46 45" fill="none" xmlns="http://www.w3.org/2000/svg">
<path d="M40.9549 10.8449V25.6949C40.9549 26.9999 39.9199 28.0349 38.6149 28.0349H37.7599L33.3049 32.2199V28.0349H13.9999C12.6949 28.0349 11.6599 26.9999 11.6599 25.6949V10.8449C11.6599 9.53988 12.6949 8.50488 13.9999 8.50488H38.6149C39.9199 8.50488 40.9549 9.53988 40.9549 10.8449Z" fill="white"/>
<path d="M36.3199 13.905L34.3399 21.69H23.6299L21.6499 13.905H36.3199Z" fill="#E53935"/>
<path d="M25.3851 25.6051C25.8801 25.6051 26.2851 25.2001 26.2851 24.6601C26.2851 24.1651 25.8801 23.7151 25.3851 23.7151C24.8901 23.7151 24.4851 24.1201 24.4851 24.6601C24.4851 25.1551 24.8901 25.6051 25.3851 25.6051Z" fill="white"/>
<path d="M31.235 25.6051C31.73 25.6051 32.135 25.2001 32.135 24.6601C32.135 24.1651 31.73 23.7151 31.235 23.7151C30.74 23.7151 30.335 24.1201 30.335 24.6601C30.335 25.1551 30.74 25.6051 31.235 25.6051Z" fill="white"/>
<path d="M6.21509 29.8799H12.1551V43.3799H6.21509V29.8799Z" fill="#E53935"/>
<path d="M23.135 40.68H23.81C24.71 40.68 25.475 41.4 25.475 42.345C25.475 42.795 25.295 43.2 24.98 43.515C24.665 43.83 24.26 44.01 23.81 44.01H13.91L12.2 42.255H12.155V30.6C12.695 30.465 13.235 30.24 13.685 29.925C14.495 29.385 15.17 28.62 15.575 27.72L16.79 25.11C17.105 24.435 17.78 24.03 18.5 24.03C18.995 24.03 19.49 24.255 19.805 24.57C20.12 24.93 20.345 25.38 20.345 25.92V30.78H24.17C25.07 30.78 25.835 31.5 25.835 32.445C25.835 32.895 25.655 33.3 25.34 33.615C25.025 33.93 24.62 34.11 24.17 34.11H22.82" fill="white"/>
<path d="M21.3801 40.68H24.6651C25.5651 40.68 26.3301 39.96 26.3301 39.015C26.3301 38.115 25.6101 37.35 24.6651 37.35H20.8401H21.8301H25.1151C26.0151 37.35 26.7801 36.63 26.7801 35.685C26.7801 34.785 26.0601 34.02 25.1151 34.02H21.2001" fill="white"/>
<path d="M27.4999 1.30506C31.0099 2.07006 34.2949 3.69006 37.0849 6.03006C37.2199 6.16506 37.4449 6.12006 37.5799 5.98506C37.7149 5.85006 37.6699 5.62506 37.5349 5.49006C34.6549 3.10506 31.2799 1.39506 27.6349 0.63006C27.4549 0.58506 27.2749 0.72006 27.2299 0.90006C27.1849 1.08006 27.3199 1.26006 27.4999 1.30506Z" fill="#0C4393"/>
<path d="M44.5551 19.215C44.6451 19.665 45.3201 19.575 45.2301 19.125C45.0951 18.36 44.9601 17.595 44.7351 16.83C44.6901 16.65 44.5101 16.56 44.3301 16.605C44.1501 16.65 44.0151 16.83 44.1051 17.01C44.2401 17.73 44.4201 18.45 44.5551 19.215Z" fill="#0C4393"/>
<path d="M45.4999 22.185C45.4999 22.005 45.3649 21.825 45.1399 21.825C44.9599 21.825 44.7799 22.005 44.8249 22.185C44.9599 27.45 43.2949 32.49 40.1899 36.405C40.0549 36.54 40.0999 36.765 40.2349 36.9C40.3699 37.035 40.5949 36.99 40.7299 36.855C43.9249 32.805 45.6349 27.585 45.4999 22.185Z" fill="#0C4393"/>
<path d="M12.0201 3.91499C12.1551 3.77999 12.2001 3.59999 12.1101 3.41999C12.0201 3.23999 11.7951 3.19499 11.6151 3.28499C5.63011 6.92999 1.53511 13.32 0.680108 20.34C0.635108 20.52 0.770108 20.7 0.950108 20.745C1.13011 20.79 1.31011 20.655 1.35511 20.43C2.21011 13.635 6.17011 7.42499 12.0201 3.91499Z" fill="#0C4393"/>
<path d="M15.3501 2.20505C15.3951 2.20505 15.4401 2.20505 15.4851 2.20505C16.7001 1.75505 17.9601 1.39505 19.2201 1.17005C19.4001 1.12505 19.5351 0.94505 19.4901 0.76505C19.4451 0.58505 19.2651 0.45005 19.0851 0.49505C17.7801 0.72005 16.4751 1.08005 15.2151 1.57505C15.0351 1.66505 14.9451 1.84505 15.0351 2.02505C15.0801 2.16005 15.2151 2.20505 15.3501 2.20505Z" fill="#0C4393"/>
<path d="M42.755 22.815C42.755 20.16 42.215 17.64 41.27 15.3V10.845C41.27 9.36005 40.055 8.14505 38.57 8.14505H36.275C32.8099 4.90505 28.1299 2.92505 23 2.92505C12.065 2.92505 3.19995 11.835 3.19995 22.815C3.19995 26.46 4.18995 29.835 5.89995 32.76V43.335C5.89995 43.515 6.03495 43.695 6.25995 43.695H12.2C12.38 43.695 12.56 43.5601 12.56 43.335V43.065L13.73 44.2351C13.775 44.28 13.865 44.325 13.955 44.325H23.855C24.89 44.325 25.7899 43.5601 25.8349 42.4351C35.375 41.085 42.755 32.805 42.755 22.815ZM40.5949 10.845V25.695C40.5949 26.82 39.695 27.72 38.6149 27.72H37.76C37.67 27.72 37.58 27.765 37.535 27.81L33.6649 31.455V28.08C33.6649 27.9 33.53 27.72 33.305 27.72H20.75V25.965C20.75 24.75 19.76 23.715 18.545 23.715C17.6899 23.715 16.88 24.21 16.5199 25.02L15.305 27.63C15.305 27.675 15.26 27.675 15.26 27.72H14C12.92 27.72 12.02 26.82 12.02 25.695V10.845C12.02 9.76505 12.92 8.86505 14 8.86505H38.6149C39.695 8.86505 40.5949 9.76505 40.5949 10.845ZM11.795 42.975H6.57495V30.195H11.795V42.975ZM12.155 29.52H6.21495C6.03495 29.52 5.85495 29.655 5.85495 29.88V31.32C4.59495 28.755 3.82995 25.875 3.82995 22.815C3.82995 12.24 12.38 3.64505 22.955 3.64505C27.635 3.64505 31.9099 5.35505 35.2399 8.19005H14C12.515 8.19005 11.3 9.40505 11.3 10.89V25.74C11.3 27.225 12.515 28.44 14 28.44H14.855C14.495 28.935 14.045 29.385 13.55 29.745C13.235 29.97 12.875 30.105 12.515 30.24V29.97C12.515 29.655 12.335 29.52 12.155 29.52ZM23.8099 43.65H14.045L12.515 42.075V30.87C13.01 30.735 13.46 30.51 13.91 30.24C14.81 29.655 15.485 28.845 15.935 27.9L17.15 25.29C17.375 24.75 17.96 24.39 18.545 24.39C19.4 24.39 20.075 25.065 20.075 25.92V30.78C20.075 30.96 20.2099 31.14 20.4349 31.14H24.26C24.9799 31.14 25.565 31.725 25.565 32.445C25.565 33.165 24.98 33.75 24.305 33.75H21.2C21.02 33.75 20.84 33.885 20.84 34.1101C20.84 34.29 20.975 34.47 21.2 34.47C28.3099 34.47 19.985 34.47 25.025 34.47C25.745 34.47 26.33 35.055 26.33 35.775C26.33 36.495 25.745 37.08 25.025 37.08H20.795C20.615 37.08 20.4349 37.215 20.4349 37.44C20.4349 37.62 20.57 37.8 20.795 37.8H24.6199C25.34 37.8 25.9249 38.385 25.9249 39.105C25.9249 39.8251 25.34 40.41 24.6199 40.41H21.3349C21.155 40.41 20.975 40.545 20.975 40.77C20.975 40.95 21.11 41.13 21.3349 41.13C21.4699 41.13 23.9 41.13 23.765 41.13C24.485 41.13 25.07 41.715 25.07 42.4351C25.115 43.1101 24.53 43.65 23.8099 43.65ZM25.7 41.805C25.61 41.49 25.43 41.175 25.205 40.95C26.015 40.68 26.6 39.96 26.6 39.0601C26.6 38.475 26.33 37.89 25.9249 37.53C26.6 37.215 27.0499 36.5401 27.0499 35.73C27.0499 34.83 26.465 34.065 25.655 33.84C26.015 33.48 26.24 32.985 26.24 32.445C26.24 31.365 25.34 30.465 24.26 30.465H20.75V28.395H32.9899V32.22C32.9899 32.355 33.0799 32.49 33.2149 32.535C33.2599 32.535 33.305 32.58 33.35 32.58C33.44 32.58 33.53 32.535 33.575 32.49L37.9399 28.395H38.66C40.145 28.395 41.36 27.18 41.36 25.695V17.415C41.8549 19.125 42.125 20.925 42.125 22.815C42.0799 32.445 34.9699 40.455 25.7 41.805Z" fill="#0C4393"/>
<path d="M32.27 19.4849C32.45 19.5299 32.63 19.4399 32.675 19.2149L33.35 16.5149C33.395 16.3349 33.305 16.1549 33.08 16.1099C32.9 16.0649 32.72 16.1549 32.675 16.3799L32 19.0799C32 19.2599 32.09 19.4399 32.27 19.4849Z" fill="#0C4393"/>
<path d="M25.295 19.26C25.43 19.71 26.06 19.53 25.97 19.08L25.295 16.38C25.25 16.2 25.0701 16.065 24.8901 16.11C24.7101 16.155 24.575 16.335 24.62 16.515L25.295 19.26Z" fill="#0C4393"/>
<path d="M30.065 19.4851C30.29 19.4851 30.425 19.3501 30.425 19.1701L30.65 16.4701C30.65 16.2901 30.515 16.1101 30.335 16.1101C30.155 16.1101 29.975 16.2451 29.975 16.4251L29.75 19.1251C29.75 19.3051 29.885 19.4851 30.065 19.4851Z" fill="#0C4393"/>
<path d="M27.8601 19.4851C28.0851 19.4851 28.2201 19.3051 28.2201 19.1251L27.9951 16.4251C27.9951 16.2451 27.8151 16.1101 27.6351 16.1101C27.4551 16.1101 27.3201 16.2901 27.3201 16.4701L27.5451 19.1701C27.5451 19.3501 27.6801 19.4851 27.8601 19.4851Z" fill="#0C4393"/>
<path d="M18.455 12.1951H19.985C20.435 12.1951 20.84 12.5101 20.975 12.9151C24.125 24.8851 23.045 20.7451 23.27 21.6451L22.28 23.5801C22.235 23.6701 22.235 23.8051 22.28 23.9401C22.325 24.0301 22.46 24.1201 22.595 24.1201H24.305C24.215 24.3001 24.17 24.4801 24.17 24.7051C24.17 25.4251 24.755 25.9651 25.43 25.9651C26.15 25.9651 26.69 25.3801 26.69 24.7051C26.69 24.4801 26.645 24.3001 26.555 24.1201H30.155C30.065 24.3001 30.02 24.4801 30.02 24.7051C30.02 25.4251 30.605 25.9651 31.28 25.9651C32 25.9651 32.54 25.3801 32.54 24.7051C32.54 24.4801 32.495 24.3001 32.405 24.1201H33.8C33.98 24.1201 34.16 23.9851 34.16 23.7601C34.16 23.5351 33.98 23.4001 33.8 23.4001H23.135L23.855 22.0501H34.34C34.52 22.0501 34.655 21.9601 34.655 21.7801L36.635 13.9951C36.68 13.9051 36.635 13.7701 36.59 13.6801C36.545 13.5901 36.41 13.5451 36.32 13.5451H21.92L21.65 12.6901C21.425 11.9701 20.75 11.4751 19.985 11.4751H18.455C18.275 11.4751 18.095 11.6101 18.095 11.8351C18.095 12.0151 18.275 12.1951 18.455 12.1951ZM25.97 24.6601C25.97 24.9751 25.7 25.2451 25.385 25.2451C25.07 25.2451 24.8 24.9751 24.8 24.6601C24.8 24.3451 25.07 24.0751 25.385 24.0751C25.7 24.0751 25.97 24.3451 25.97 24.6601ZM31.82 24.6601C31.82 24.9751 31.55 25.2451 31.235 25.2451C30.92 25.2451 30.65 24.9751 30.65 24.6601C30.65 24.3451 30.92 24.0751 31.235 24.0751C31.55 24.0751 31.82 24.3451 31.82 24.6601ZM35.87 14.2651L34.07 21.3301H23.9L22.1 14.2651H35.87Z" fill="#0C4393"/>
<path d="M9.99488 42.165C10.4449 42.165 10.7599 41.805 10.7599 41.4C10.7599 40.95 10.3999 40.635 9.99488 40.635C9.54488 40.635 9.22988 40.995 9.22988 41.4C9.18488 41.805 9.54488 42.165 9.99488 42.165Z" fill="#0C4393"/>
</svg>
