<svg width="46" height="45" viewBox="0 0 46 45" fill="none" xmlns="http://www.w3.org/2000/svg">
<path d="M28.5799 37.4399V44.0549H3.91992V37.4399C3.91992 35.3699 5.17992 33.4799 7.11492 32.7149L7.65492 32.4899L10.1749 31.4999L12.8299 30.4199L16.2499 33.9749L19.6699 30.4199L22.3249 31.4999L24.8449 32.4899L25.3849 32.7149C27.3199 33.4799 28.5799 35.3699 28.5799 37.4399Z" fill="white"/>
<path d="M22.19 14.5801V17.1001H9.63501V14.5351C9.63501 12.7801 10.355 11.2501 11.48 10.0801C11.615 9.94511 11.705 9.85511 11.84 9.72011C12.92 8.77511 14.36 8.23511 15.89 8.23511C17.465 8.23511 18.86 8.77511 19.94 9.72011C21.335 10.9351 22.19 12.6451 22.19 14.5801Z" fill="#E53935"/>
<path d="M43.205 9.27003V28.98C43.205 29.52 42.755 29.97 42.215 29.97H26.915C26.375 29.97 25.925 29.52 25.925 28.98V9.27003C25.925 8.73003 26.375 8.28003 26.915 8.28003H42.215C42.755 8.28003 43.205 8.73003 43.205 9.27003Z" fill="white"/>
<path d="M28.7151 11.0701H32.6301V15.0301H28.7151V11.0701Z" fill="white"/>
<path d="M28.7151 17.145H32.6301V21.105H28.7151V17.145Z" fill="white"/>
<path d="M28.7151 23.22H32.6301V27.18H28.7151V23.22Z" fill="white"/>
<path d="M40.0101 7.28995V9.49495H29.1201V7.28995C29.1201 6.52495 29.7501 5.84995 30.5601 5.84995H32.5851C32.5851 4.72495 33.4851 3.82495 34.5651 3.82495C35.6901 3.82495 36.5901 4.72495 36.5901 5.84995H38.6151C39.3801 5.84995 40.0101 6.47995 40.0101 7.28995Z" fill="white"/>
<path d="M45.4099 20.7C45.4099 20.52 45.2299 20.385 45.0499 20.385C44.8699 20.385 44.7349 20.565 44.7349 20.745C44.9149 22.95 44.7799 25.245 44.2399 27.45C44.1949 27.63 44.3299 27.81 44.5099 27.855C44.6899 27.9 44.8699 27.765 44.9149 27.585C45.4549 25.29 45.6349 22.995 45.4099 20.7Z" fill="#0C4393"/>
<path d="M43.34 31.32C43.16 31.23 42.98 31.32 42.89 31.5C40.64 36.63 36.725 40.68 31.865 42.84C31.685 42.93 31.595 43.11 31.685 43.29C31.775 43.47 31.955 43.56 32.135 43.47C37.175 41.22 41.18 37.08 43.52 31.77C43.61 31.59 43.52 31.41 43.34 31.32Z" fill="#0C4393"/>
<path d="M2.43498 31.4999C2.61498 31.4099 2.70498 31.2299 2.61498 31.0499C0.859978 26.4149 0.724978 21.2399 2.25498 16.5149C2.29998 16.3349 2.20998 16.1549 2.02998 16.0649C1.84998 16.0199 1.66998 16.1099 1.57998 16.2899C0.00497788 21.1499 0.139978 26.4599 1.93998 31.2749C2.02998 31.4549 2.25498 31.5899 2.43498 31.4999Z" fill="#0C4393"/>
<path d="M2.70497 14.4449C2.88497 14.5349 3.06497 14.4449 3.15497 14.2649C3.51497 13.4999 3.87497 12.7799 4.32497 12.1049C4.41497 11.9249 4.36997 11.7449 4.18997 11.6099C4.00997 11.5199 3.82997 11.5649 3.69497 11.7449C3.24497 12.4649 2.83997 13.2299 2.47997 13.9949C2.43497 14.1299 2.52497 14.3549 2.70497 14.4449Z" fill="#0C4393"/>
<path d="M12.5151 4.1401C17.8251 1.1251 24.1251 0.450101 29.7951 2.2951C29.9751 2.3401 30.1551 2.2501 30.2451 2.0701C30.2901 1.8901 30.2001 1.7101 30.0201 1.6201C24.1251 -0.224899 17.6451 0.450101 12.1551 3.5551C11.9751 3.6451 11.9301 3.8701 12.0201 4.0051C12.1101 4.1851 12.3351 4.2301 12.5151 4.1401Z" fill="#0C4393"/>
<path d="M16.2499 42.615C16.4299 42.615 16.6099 42.48 16.6099 42.255V40.86C16.6099 40.68 16.4749 40.5 16.2499 40.5C16.0249 40.5 15.8899 40.635 15.8899 40.86V42.255C15.8899 42.435 16.0699 42.615 16.2499 42.615Z" fill="#0C4393"/>
<path d="M16.2499 39.1499C16.4299 39.1499 16.6099 39.0149 16.6099 38.7899V37.3949C16.6099 37.2149 16.4749 37.0349 16.2499 37.0349C16.0249 37.0349 15.8899 37.1699 15.8899 37.3949V38.7899C15.8899 38.9699 16.0699 39.1499 16.2499 39.1499Z" fill="#0C4393"/>
<path d="M13.64 22.77C14.09 22.77 14.405 22.41 14.405 22.005C14.405 21.555 14.045 21.24 13.64 21.24C13.235 21.24 12.875 21.6 12.875 22.005C12.875 22.455 13.235 22.77 13.64 22.77Z" fill="#0C4393"/>
<path d="M18.815 22.77C19.265 22.77 19.58 22.41 19.58 22.005C19.58 21.555 19.22 21.24 18.815 21.24C18.41 21.24 18.05 21.6 18.05 22.005C18.05 22.455 18.41 22.77 18.815 22.77Z" fill="#0C4393"/>
<path d="M16.2499 26.6849C17.4649 26.6849 18.4099 25.6949 18.4099 24.5249H14.0449C14.0899 25.7399 15.0349 26.6849 16.2499 26.6849Z" fill="#0C4393"/>
<path d="M28.355 11.07V15.03C28.355 15.21 28.49 15.39 28.715 15.39H32.63C32.81 15.39 32.99 15.255 32.99 15.03V11.07C32.99 10.89 32.855 10.71 32.63 10.71H28.715C28.535 10.71 28.355 10.845 28.355 11.07ZM29.03 11.385H32.27V14.67H29.03V11.385Z" fill="#0C4393"/>
<path d="M32.63 16.7849H28.715C28.535 16.7849 28.355 16.9199 28.355 17.1449V21.1049C28.355 21.2849 28.49 21.4649 28.715 21.4649H32.63C32.81 21.4649 32.99 21.3299 32.99 21.1049V17.1449C32.99 16.9649 32.81 16.7849 32.63 16.7849ZM32.27 20.7449H29.03V17.4599H32.27V20.7449Z" fill="#0C4393"/>
<path d="M32.63 22.905H28.715C28.535 22.905 28.355 23.04 28.355 23.265V27.225C28.355 27.405 28.49 27.585 28.715 27.585H32.63C32.81 27.585 32.99 27.45 32.99 27.225V23.265C32.99 23.04 32.81 22.905 32.63 22.905ZM32.27 26.865H29.03V23.58H32.27V26.865Z" fill="#0C4393"/>
<path d="M34.565 6.57004C34.97 6.57004 35.33 6.21004 35.33 5.80504C35.33 5.40004 34.97 5.04004 34.565 5.04004C34.16 5.04004 33.8 5.40004 33.8 5.80504C33.8 6.25504 34.16 6.57004 34.565 6.57004Z" fill="#0C4393"/>
<path d="M34.07 12.2849H40.46C40.64 12.2849 40.82 12.1499 40.82 11.9249C40.82 11.6999 40.685 11.5649 40.46 11.5649H34.07C33.89 11.5649 33.71 11.6999 33.71 11.9249C33.71 12.1499 33.845 12.2849 34.07 12.2849Z" fill="#0C4393"/>
<path d="M34.07 14.4451H37.805C37.985 14.4451 38.165 14.3101 38.165 14.0851C38.165 13.9051 38.03 13.7251 37.805 13.7251H34.07C33.89 13.7251 33.71 13.8601 33.71 14.0851C33.71 14.3101 33.845 14.4451 34.07 14.4451Z" fill="#0C4393"/>
<path d="M40.415 17.6851H34.07C33.89 17.6851 33.71 17.8201 33.71 18.0451C33.71 18.2251 33.845 18.4051 34.07 18.4051H40.46C40.64 18.4051 40.82 18.2701 40.82 18.0451C40.775 17.8651 40.64 17.6851 40.415 17.6851Z" fill="#0C4393"/>
<path d="M34.07 20.565H37.805C37.985 20.565 38.165 20.43 38.165 20.205C38.165 19.98 38.03 19.845 37.805 19.845H34.07C33.89 19.845 33.71 19.98 33.71 20.205C33.71 20.43 33.845 20.565 34.07 20.565Z" fill="#0C4393"/>
<path d="M40.415 23.8049H34.07C33.89 23.8049 33.71 23.9399 33.71 24.1649C33.71 24.3899 33.845 24.5249 34.07 24.5249H40.46C40.64 24.5249 40.82 24.3899 40.82 24.1649C40.82 23.9399 40.64 23.8049 40.415 23.8049Z" fill="#0C4393"/>
<path d="M37.805 25.9651H34.07C33.89 25.9651 33.71 26.1001 33.71 26.3251C33.71 26.5501 33.845 26.6851 34.07 26.6851H37.805C37.985 26.6851 38.165 26.5501 38.165 26.3251C38.165 26.1001 37.985 25.9651 37.805 25.9651Z" fill="#0C4393"/>
<path d="M30.065 13.77C30.11 13.815 30.2 13.86 30.29 13.86C30.38 13.86 30.47 13.815 30.515 13.77L31.73 12.735C31.865 12.6 31.91 12.375 31.775 12.24C31.64 12.105 31.415 12.06 31.28 12.195L30.605 12.735L30.2 12.96L30.065 12.825C29.93 12.69 29.705 12.69 29.57 12.825C29.435 12.96 29.435 13.185 29.57 13.32L30.065 13.77Z" fill="#0C4393"/>
<path d="M31.28 18.3599L30.605 18.8999L30.2 19.0349L30.065 18.8999C29.93 18.7649 29.705 18.7649 29.57 18.8999C29.435 19.0349 29.435 19.2599 29.57 19.3949L30.065 19.8449C30.11 19.8899 30.2 19.9349 30.29 19.9349C30.38 19.9349 30.47 19.8899 30.515 19.8449L31.73 18.8099C31.865 18.6749 31.91 18.4499 31.775 18.3149C31.64 18.2249 31.46 18.2249 31.28 18.3599Z" fill="#0C4393"/>
<path d="M31.28 24.4351L30.605 24.9751L30.2 25.1551L30.065 25.0201C29.93 24.8851 29.705 24.8851 29.57 25.0201C29.435 25.1551 29.435 25.3801 29.57 25.5151L30.065 25.9651C30.11 26.0101 30.2 26.0551 30.29 26.0551C30.38 26.0551 30.47 26.0101 30.515 25.9651L31.73 24.9301C31.865 24.7951 31.91 24.5701 31.775 24.4351C31.64 24.3451 31.46 24.3001 31.28 24.4351Z" fill="#0C4393"/>
<path d="M29.66 43.6949H28.895V42.2099C34.745 40.4099 39.425 35.9999 41.585 30.3299H42.215C42.935 30.3299 43.565 29.7449 43.565 28.9799V9.26993C43.565 8.54993 42.98 7.91993 42.215 7.91993H40.325V7.28993C40.325 6.29993 39.515 5.53493 38.57 5.53493H36.86C36.68 4.40993 35.735 3.55493 34.52 3.55493C33.35 3.55493 32.36 4.40993 32.225 5.53493H32.045C29.345 4.13993 26.285 3.37493 23.045 3.37493C12.065 3.32993 3.15504 12.2399 3.15504 23.2199C3.15504 26.8199 4.10004 30.1499 5.76504 33.0749C4.37004 34.0649 3.56004 35.6849 3.56004 37.4399V43.6949H1.40004C1.22004 43.6949 1.04004 43.8299 1.04004 44.0549C1.04004 44.2349 1.17504 44.4149 1.40004 44.4149C1.71504 44.4149 29.75 44.4149 29.66 44.4149C29.84 44.4149 30.02 44.2799 30.02 44.0549C30.02 43.8749 29.885 43.6949 29.66 43.6949ZM40.01 9.80993C40.19 9.80993 40.37 9.67493 40.37 9.44993V8.59493H42.26C42.62 8.59493 42.89 8.86493 42.89 9.22493V28.9349C42.89 29.2949 42.62 29.5649 42.26 29.5649H26.96C26.6 29.5649 26.33 29.2949 26.33 28.9349V9.26993C26.33 8.90993 26.6 8.63993 26.96 8.63993H28.85V9.49493C28.85 9.67493 28.985 9.85493 29.21 9.85493H40.01V9.80993ZM32.585 6.20993C32.765 6.20993 32.945 6.07493 32.945 5.84993C32.945 4.94993 33.665 4.18493 34.61 4.18493C35.555 4.18493 36.275 4.90493 36.275 5.84993C36.275 6.02993 36.41 6.20993 36.635 6.20993H38.66C39.245 6.20993 39.74 6.70493 39.74 7.28993V9.13492H29.48V7.28993C29.48 6.70493 29.975 6.20993 30.56 6.20993H32.585ZM3.87504 23.2199C3.87504 12.6449 12.47 4.04993 23.045 4.04993C25.655 4.04993 28.175 4.58993 30.425 5.53493C29.48 5.57993 28.76 6.34493 28.76 7.28993V7.91993H26.87C26.15 7.91993 25.52 8.50493 25.52 9.26993V28.9799C25.52 29.6999 26.105 30.3299 26.87 30.3299H40.82C38.75 35.5949 34.34 39.7349 28.895 41.4899V37.4399C28.895 32.9399 24.485 32.0849 24.17 31.8599C24.08 31.8149 19.94 30.1499 19.985 30.1949V27.4949C21.56 26.2799 22.37 24.4799 22.37 22.6349V20.0699C23.09 19.8899 23.63 19.2149 23.63 18.4499C23.63 17.7299 23.18 17.0999 22.505 16.8749V14.5799C22.505 10.9799 19.58 7.96493 15.89 7.96493C12.29 7.96493 9.27504 10.8899 9.27504 14.5799V16.8749C8.64504 17.0999 8.15004 17.7299 8.15004 18.4499C8.15004 19.3499 8.91504 20.1149 9.81504 20.1149H10.04V22.6349C10.04 24.6149 10.985 26.3699 12.425 27.4949V30.1949C6.35004 32.6699 6.75504 32.4449 6.35004 32.7149C4.77504 29.8799 3.87504 26.6849 3.87504 23.2199ZM12.74 30.8249L15.89 34.1099V35.3699C15.89 35.5499 16.025 35.7299 16.25 35.7299C16.475 35.7299 16.61 35.5949 16.61 35.3699V34.1099L19.76 30.8249L22.01 31.7249V43.7399H10.49V31.7249L12.74 30.8249ZM19.85 10.1249C21.11 11.2049 21.83 12.8249 21.83 14.5349V16.7399H17.87V12.1949C17.915 11.1149 18.77 10.2149 19.85 10.1249ZM17.195 12.1949V16.7399H14.63V12.1949C14.63 10.9799 13.82 9.89993 12.695 9.53993C13.64 8.90993 14.765 8.59493 15.89 8.59493C17.06 8.59493 18.14 8.95493 19.13 9.53993C18.005 9.94493 17.195 10.9799 17.195 12.1949ZM11.975 10.1249C13.055 10.1699 13.955 11.1149 13.955 12.1949V16.7399H9.99504V14.5349C9.99504 12.7799 10.76 11.1599 11.975 10.1249ZM9.86004 17.4599H22.01C22.55 17.4599 23 17.9099 23 18.4499C23 18.9899 22.55 19.4399 22.01 19.4399C16.565 19.4399 13.55 19.4399 9.86004 19.4399C9.32004 19.4399 8.87004 18.9899 8.87004 18.4499C8.87004 17.9099 9.32004 17.4599 9.86004 17.4599ZM10.76 20.1149H21.695V22.6349C21.695 25.6949 19.22 28.1249 16.205 28.1249C13.235 28.1249 10.715 25.6949 10.715 22.6349V20.1149H10.76ZM16.25 28.7549C17.33 28.7549 18.41 28.4849 19.31 27.9449V30.2399L16.25 33.4349L13.145 30.2399V27.9449C14.045 28.4399 15.125 28.7549 16.25 28.7549ZM4.28004 37.4399C4.28004 34.0649 7.25004 33.0749 7.34004 32.9849V43.6949H4.28004V37.4399ZM8.01504 43.6949V32.7149C8.10504 32.6699 9.95004 31.9499 9.81504 31.9949V43.6949H8.01504ZM22.685 43.6949V31.9949L24.485 32.7149V43.6949H22.685ZM25.16 43.6949V32.9849L25.25 33.0299C27.05 33.7499 28.22 35.5049 28.22 37.4399V43.6949H25.16Z" fill="#0C4393"/>
</svg>
