<svg width="178" height="56" viewBox="0 0 178 56" fill="none" xmlns="http://www.w3.org/2000/svg">
<g clip-path="url(#clip0_3_1377)">
<g clip-path="url(#clip1_3_1377)">
<g clip-path="url(#clip2_3_1377)">
<path d="M16.5655 10.3092C16.8174 10.3092 17.0272 10.3512 17.2581 10.4351C17.468 10.5191 17.6568 10.645 17.8247 10.8129C17.9926 10.9808 18.1185 11.1697 18.2024 11.4005C18.2864 11.6104 18.3284 11.8412 18.3284 12.0721C18.3284 12.3239 18.2864 12.5547 18.2024 12.7646C18.1185 12.9745 17.9926 13.1633 17.8247 13.3312V13.3522C17.6568 13.5201 17.468 13.6461 17.2581 13.73C17.0272 13.8139 16.8174 13.8559 16.5655 13.8559H11.5078V29.7215C11.5078 29.9734 11.4658 30.2253 11.3819 30.4351C11.2979 30.666 11.1511 30.8758 10.9831 31.0437H10.9622C10.7943 31.2326 10.5844 31.3586 10.3745 31.4635C10.1437 31.5474 9.89186 31.5894 9.64002 31.5894C9.38819 31.5894 9.13635 31.5474 8.92648 31.4635C8.69564 31.3586 8.48577 31.2326 8.31788 31.0437C8.129 30.8758 8.00309 30.666 7.89816 30.4351C7.81422 30.2253 7.77223 29.9734 7.77223 29.7215V13.8559H2.69354C2.46269 13.8559 2.23184 13.8139 2.02198 13.73C1.79113 13.6461 1.60225 13.4991 1.43436 13.3522C1.26647 13.1844 1.14055 12.9745 1.0566 12.7646C0.972658 12.5547 0.930687 12.3239 0.930687 12.0721C0.930687 11.8412 0.972658 11.6104 1.0566 11.4005C1.14055 11.1697 1.26647 10.9808 1.43436 10.8129C1.60225 10.645 1.79113 10.5191 2.02198 10.4351C2.23184 10.3512 2.46269 10.3092 2.69354 10.3092H16.5655ZM38.4333 28.1685C38.6851 28.1685 38.937 28.2106 39.1678 28.2945C39.3987 28.3785 39.6086 28.5253 39.7764 28.6933C39.9443 28.8611 40.0912 29.092 40.1961 29.3228C40.2801 29.5537 40.322 29.8056 40.3011 30.0783C40.1961 31.6313 37.3001 31.5894 37.0902 31.5894H21.5603C21.2035 31.6313 18.3494 31.8832 18.3284 30.0364C18.3074 29.7846 18.3704 29.5327 18.4543 29.3018C18.5382 29.071 18.6852 28.8611 18.874 28.6933C19.042 28.5043 19.2518 28.3785 19.4827 28.2945C19.6925 28.2106 19.9443 28.1685 20.1961 28.1685H20.6158L27.5833 11.5264C27.7513 11.1486 27.9821 10.8339 28.2759 10.624C28.5697 10.4141 28.9265 10.3092 29.3462 10.3092C29.766 10.3092 30.1227 10.4141 30.4165 10.624C30.7103 10.8549 30.9412 11.1486 31.0881 11.5474L38.0556 28.1685H38.4333ZM24.4983 28.1685H34.3409L29.3672 16.1014L24.4983 28.1685Z" fill="#E53935"/>
<path d="M101.756 28.5977C101.881 28.7778 101.975 28.9665 102.038 29.1621C102.104 29.364 102.135 29.5688 102.135 29.7756C102.135 30.2505 101.98 30.6664 101.67 31.0249C101.505 31.2158 101.309 31.3596 101.084 31.4559C100.867 31.5493 100.627 31.5961 100.367 31.5961C99.7682 31.5961 99.2859 31.3652 98.9212 30.9032L93.6993 23.6609L88.1469 31.0242L88.1174 31.0536C87.9385 31.232 87.74 31.3669 87.5214 31.4582C87.3003 31.5499 87.0649 31.5961 86.8156 31.5961C86.5582 31.5961 86.3229 31.5529 86.1098 31.4662C85.8859 31.3758 85.692 31.2389 85.53 31.0572C85.3776 30.8834 85.2622 30.6935 85.1866 30.4876C85.1105 30.2815 85.0729 30.0611 85.0729 29.8274C85.0729 29.6034 85.1082 29.3842 85.1791 29.1713C85.2484 28.9613 85.3522 28.7651 85.4901 28.581L91.297 20.8559L85.8312 13.278C85.7078 13.1181 85.6147 12.9409 85.553 12.7493C85.4924 12.5606 85.4618 12.3621 85.4618 12.1556C85.4618 11.6639 85.6171 11.2387 85.9274 10.8803C86.0926 10.6899 86.2882 10.5462 86.5132 10.4492C86.7308 10.3562 86.9702 10.309 87.2298 10.309C87.5214 10.309 87.7793 10.3546 88.0033 10.4452C88.2542 10.5474 88.4574 10.7032 88.6107 10.9132L93.7686 18.0634C95.3233 15.9949 97.5333 12.649 99.1807 10.8657C99.3551 10.6794 99.5583 10.5386 99.7886 10.4452C100.012 10.3546 100.258 10.309 100.523 10.309C100.772 10.309 101.003 10.3535 101.213 10.4406C101.429 10.5306 101.617 10.6669 101.78 10.8485C101.933 11.0182 102.049 11.2087 102.125 11.4181C102.201 11.6236 102.24 11.8446 102.24 12.0778C102.24 12.2762 102.207 12.4765 102.141 12.6784C102.08 12.8687 101.989 13.0576 101.869 13.2434L96.1703 20.8427L101.756 28.5977ZM121.069 28.9936C121.119 29.1234 121.159 29.2515 121.186 29.3761C121.217 29.5129 121.233 29.6376 121.233 29.7501C121.233 29.9999 121.187 30.2353 121.095 30.4563C121.004 30.6746 120.869 30.8735 120.691 31.0519L120.689 31.0536C120.509 31.2337 120.307 31.3692 120.083 31.4599C119.859 31.5506 119.618 31.5961 119.362 31.5961C119.004 31.5961 118.664 31.4952 118.343 31.2936C118.178 31.1898 118.036 31.0657 117.917 30.9227C117.799 30.7772 117.703 30.6152 117.632 30.4368L116.313 27.1394H107.716L106.362 30.4639C106.199 30.8125 105.964 31.0882 105.655 31.2897C105.504 31.3883 105.342 31.4645 105.171 31.5166C104.996 31.569 104.82 31.5961 104.643 31.5961C104.114 31.5961 103.671 31.4062 103.316 31.0266C103.146 30.8435 103.016 30.6429 102.93 30.4253C102.841 30.2026 102.797 29.9682 102.797 29.7241C102.797 29.491 102.852 29.23 102.964 28.9415C103.852 25.7621 108.641 14.7552 110.25 11.5358C110.418 11.1435 110.649 10.8427 110.94 10.6346C111.244 10.4175 111.598 10.309 112.002 10.309C112.423 10.309 112.786 10.4175 113.089 10.6346C113.384 10.8446 113.605 11.1464 113.754 11.5405L121.069 28.9936ZM114.985 23.8612L112.049 16.5522L109.051 23.8612H114.985ZM134.494 10.309C134.74 10.309 134.969 10.3512 135.18 10.4337C135.399 10.5191 135.592 10.6454 135.759 10.8126C135.926 10.9795 136.052 11.1728 136.138 11.3915C136.221 11.6033 136.263 11.8325 136.263 12.0778C136.263 12.3229 136.22 12.5527 136.138 12.7638C136.053 12.9802 135.927 13.1724 135.759 13.3409L135.757 13.3426C135.589 13.5105 135.397 13.6374 135.18 13.7219C134.969 13.8043 134.74 13.8462 134.494 13.8462H129.448V29.7241C129.448 29.9804 129.402 30.2215 129.311 30.4455C129.22 30.6694 129.085 30.8718 128.906 31.0519L128.904 31.0536C128.724 31.233 128.521 31.3692 128.297 31.4599C128.073 31.5506 127.833 31.5961 127.575 31.5961C127.319 31.5961 127.078 31.5506 126.853 31.4599C126.627 31.3682 126.425 31.2326 126.246 31.0536C126.068 30.8758 125.932 30.6734 125.84 30.4455C125.749 30.2215 125.704 29.981 125.704 29.7241V13.8462H120.631C120.385 13.8462 120.156 13.8047 119.944 13.7219C119.727 13.6364 119.533 13.5095 119.366 13.3426C119.199 13.1757 119.072 12.9824 118.987 12.7638C118.904 12.5527 118.863 12.3229 118.863 12.0778C118.863 11.8325 118.904 11.6033 118.987 11.3915C119.07 11.1758 119.198 10.9835 119.366 10.815L119.368 10.8126C119.537 10.6448 119.73 10.5178 119.944 10.4337C120.156 10.3506 120.385 10.309 120.631 10.309H134.494ZM151.777 28.0593C152.311 28.0593 152.749 28.2192 153.094 28.5378C153.269 28.701 153.403 28.8927 153.491 29.1107C153.58 29.323 153.624 29.5539 153.624 29.802C153.624 30.3289 153.448 30.7617 153.098 31.0988C152.925 31.266 152.724 31.3919 152.494 31.476C152.274 31.5558 152.035 31.5961 151.777 31.5961H140.065C139.808 31.5961 139.567 31.5506 139.343 31.4599C139.118 31.3682 138.914 31.2326 138.735 31.0536C138.556 30.8718 138.421 30.6694 138.329 30.4455C138.239 30.2215 138.193 29.981 138.193 29.7241V12.1816C138.193 11.9185 138.239 11.6725 138.329 11.4459C138.422 11.215 138.559 11.0112 138.742 10.8347L138.744 10.8324C139.104 10.4838 139.545 10.309 140.065 10.309H151.777C152.035 10.309 152.274 10.3493 152.494 10.4297C152.723 10.5132 152.925 10.6391 153.098 10.8064C153.274 10.9762 153.408 11.1741 153.496 11.398C153.581 11.6137 153.624 11.8492 153.624 12.1035C153.624 12.6177 153.447 13.0391 153.094 13.368C152.749 13.6866 152.311 13.8462 151.777 13.8462H141.937V19.0935H148.85C149.1 19.0935 149.335 19.134 149.552 19.2135C149.774 19.2967 149.974 19.4203 150.152 19.5845C150.514 19.9222 150.695 20.348 150.695 20.8622C150.695 21.3758 150.514 21.8022 150.152 22.1392C149.974 22.3038 149.774 22.4278 149.552 22.5102C149.335 22.59 149.1 22.6303 148.85 22.6303H141.937V28.0593H151.777ZM171.596 10.9819C171.682 10.8825 171.779 10.7926 171.883 10.7153C171.986 10.6402 172.099 10.5703 172.221 10.5093C172.347 10.444 172.479 10.3955 172.614 10.3615C172.752 10.3269 172.889 10.309 173.026 10.309C173.567 10.309 174.016 10.4861 174.368 10.8387C174.544 11.0141 174.676 11.2189 174.767 11.4521C174.854 11.6771 174.897 11.9208 174.897 12.1816V29.7241C174.897 29.978 174.854 30.2169 174.767 30.4391C174.678 30.6637 174.548 30.8662 174.375 31.0457L174.372 31.0473C174.196 31.2297 173.992 31.3675 173.761 31.4599C173.534 31.5506 173.289 31.5961 173.026 31.5961C172.769 31.5961 172.527 31.5506 172.304 31.4599C172.08 31.3692 171.877 31.233 171.697 31.0536L171.696 31.0519C171.516 30.8718 171.38 30.6694 171.289 30.4455C171.199 30.2215 171.153 29.9804 171.153 29.7241V16.5569L159.685 30.9497C159.597 31.0502 159.499 31.1396 159.392 31.2169C159.282 31.2949 159.165 31.363 159.041 31.4196C158.917 31.476 158.787 31.5193 158.655 31.5493C158.519 31.5806 158.385 31.5961 158.255 31.5961C157.995 31.5961 157.749 31.5516 157.519 31.4622C157.287 31.3722 157.079 31.2377 156.895 31.0601L156.893 31.0578C156.518 30.6953 156.331 30.2505 156.331 29.7241V12.1816C156.331 11.6547 156.519 11.2098 156.893 10.8473L156.895 10.8457C157.079 10.6679 157.287 10.5335 157.517 10.4435C157.749 10.3539 157.995 10.309 158.255 10.309C158.783 10.309 159.219 10.4884 159.566 10.8468C159.735 11.0228 159.863 11.2272 159.951 11.458C160.033 11.6824 160.076 11.9237 160.076 12.1816V25.3823L171.596 10.9819ZM162.116 3.70166C162.351 3.70166 162.573 3.74721 162.779 3.83724C162.984 3.92728 163.168 4.05948 163.328 4.23262C163.488 4.40345 163.607 4.59779 163.688 4.81479L163.69 4.8171C163.768 5.02717 163.807 5.2534 163.807 5.49579C163.807 5.6238 163.838 5.73924 163.899 5.84081C163.971 5.95792 164.085 6.06871 164.243 6.17155C164.422 6.28866 164.623 6.37637 164.845 6.43408C165.079 6.49516 165.344 6.52579 165.64 6.52579C165.937 6.52579 166.202 6.49516 166.436 6.43408C166.658 6.37637 166.859 6.28866 167.037 6.17155C167.196 6.06871 167.31 5.95792 167.382 5.84081C167.443 5.73924 167.474 5.6238 167.474 5.49579C167.474 4.99716 167.633 4.57596 167.951 4.23262C168.112 4.05886 168.296 3.92728 168.501 3.83724C168.709 3.74721 168.93 3.70166 169.164 3.70166C169.399 3.70166 169.62 3.74721 169.827 3.83724C170.032 3.92728 170.216 4.05886 170.378 4.23262C170.536 4.40345 170.655 4.59779 170.736 4.81479L170.738 4.8171C170.816 5.02717 170.856 5.2534 170.856 5.49579C170.856 5.87019 170.794 6.23325 170.672 6.58582C170.552 6.93482 170.374 7.26452 170.139 7.57365C169.906 7.88194 169.629 8.15602 169.31 8.39379C168.998 8.62633 168.641 8.82717 168.241 8.99674C167.455 9.32748 166.589 9.49306 165.64 9.49306C164.692 9.49306 163.826 9.32748 163.04 8.99674C162.638 8.82717 162.282 8.62633 161.971 8.39379C161.655 8.15833 161.38 7.88425 161.143 7.57365C160.907 7.26452 160.729 6.93482 160.609 6.58582C160.487 6.23325 160.426 5.86977 160.426 5.49579C160.426 4.99716 160.586 4.57596 160.904 4.23262C161.064 4.05886 161.248 3.92728 161.453 3.83724C161.661 3.74721 161.882 3.70166 162.116 3.70166Z" fill="#1976D2"/>
<path d="M57.7332 9.66579C58.3478 9.05131 59.3446 9.05131 59.959 9.66579C60.5735 10.2803 60.5735 11.2771 59.959 11.8916L51.9621 19.8887V28.9445H72.0054V19.9896H62.0056L54.7905 19.9894L57.9064 16.8383L61.1471 16.8396L61.1477 16.8417H73.5794H75.0453L61.4434 3.23976C60.829 2.62528 60.829 1.62845 61.4434 1.01396C62.0579 0.39948 63.0548 0.39948 63.6693 1.01396L79.9581 17.3028C80.2428 17.5875 80.419 17.981 80.419 18.4157C80.419 19.2849 79.7143 19.9896 78.8451 19.9896H75.1534V30.5184C75.1534 31.3877 74.4487 32.0924 73.5794 32.0924H50.3881C49.5188 32.0924 48.8141 31.3877 48.8141 30.5184V19.2368C48.8143 18.8339 48.9679 18.4312 49.2751 18.1239L57.7332 9.66579Z" fill="#1976D2"/>
<path fill-rule="evenodd" clip-rule="evenodd" d="M40.7946 20.0424H44.6047L44.6252 20.0261C45.0707 20.0687 45.5314 19.9212 45.8754 19.5828L58.5496 7.10164L66.4964 14.8643C66.7727 15.1333 67.123 15.2798 67.48 15.3048L67.4802 15.3111H71.4999L68.8124 12.7535C68.7734 12.7052 68.731 12.6587 68.6853 12.6141L59.6396 3.77804C59.0298 3.18455 58.0544 3.18455 57.4448 3.78413L45.1346 15.9069L45.1304 15.9059L40.7946 20.0424Z" fill="#E53935"/>
<path fill-rule="evenodd" clip-rule="evenodd" d="M168.949 39.2515H124.479V55.2431H168.949C173.347 55.2431 176.944 51.645 176.944 47.2473C176.944 42.8496 173.347 39.2515 168.949 39.2515Z" fill="#E53935"/>
<path fill-rule="evenodd" clip-rule="evenodd" d="M8.54 39.2515H124.479V55.2431H8.54C4.14231 55.2431 0.544205 51.645 0.544205 47.2473C0.544205 42.8496 4.14231 39.2515 8.54 39.2515Z" fill="#1976D2"/>
<path d="M140.64 49.8048C140.723 49.8048 140.8 49.8184 140.87 49.8452C140.94 49.8725 141.003 49.9136 141.058 49.9677C141.111 50.0219 141.152 50.0849 141.18 50.1554C141.207 50.2251 141.221 50.3021 141.221 50.3852V51.9827C141.221 52.0657 141.207 52.1428 141.18 52.2125C141.152 52.283 141.111 52.3459 141.058 52.4001C141.003 52.4542 140.94 52.4954 140.87 52.5226C140.8 52.5495 140.723 52.5631 140.64 52.5631C140.56 52.5631 140.485 52.5495 140.416 52.5226C140.347 52.4956 140.284 52.4548 140.228 52.4011C140.173 52.3467 140.13 52.284 140.101 52.2133C140.073 52.1434 140.059 52.0664 140.059 51.9827V50.85H134.445V51.9827C134.445 52.0662 134.431 52.143 134.404 52.212C134.377 52.2828 134.336 52.3457 134.282 52.3998C134.227 52.4544 134.165 52.4954 134.094 52.5226C134.025 52.5495 133.947 52.5631 133.865 52.5631C133.784 52.5631 133.709 52.5495 133.641 52.5226C133.571 52.4956 133.509 52.4546 133.453 52.4007C133.396 52.3465 133.354 52.2838 133.326 52.2133C133.298 52.1434 133.284 52.0664 133.284 51.9827V50.3852C133.284 50.2152 133.34 50.0754 133.453 49.9667C133.509 49.913 133.571 49.8723 133.641 49.8452C133.709 49.8184 133.784 49.8048 133.865 49.8048H134.1L136.716 43.5596C136.827 43.3021 137.009 43.1734 137.261 43.1734C137.53 43.1734 137.712 43.3033 137.808 43.5625L140.423 49.8048H140.64ZM135.291 49.8048H139.289L137.272 44.908L135.291 49.8048ZM145.818 43.0771C146.193 43.0771 146.549 43.119 146.885 43.2024C147.222 43.2859 147.539 43.4114 147.835 43.5782C148.132 43.7453 148.395 43.9458 148.627 44.1786C148.859 44.4118 149.057 44.6779 149.222 44.9757C149.389 45.2735 149.512 45.5927 149.595 45.9319C149.678 46.2706 149.719 46.6295 149.719 47.0068C149.719 47.7646 149.554 48.4434 149.222 49.0425C149.057 49.342 148.86 49.6094 148.629 49.8429C148.398 50.0767 148.135 50.2778 147.84 50.4448C147.545 50.6119 147.228 50.7376 146.891 50.8211C146.554 50.9044 146.196 50.9464 145.818 50.9464C145.44 50.9464 145.082 50.9046 144.744 50.8211C144.406 50.7376 144.088 50.6121 143.791 50.4452C143.495 50.2782 143.231 50.0769 143.001 49.8429C142.77 49.6096 142.572 49.3422 142.408 49.0423C142.245 48.7428 142.122 48.4224 142.04 48.0828C141.959 47.7434 141.917 47.3842 141.917 47.0068C141.917 46.6293 141.959 46.2706 142.04 45.9317C142.122 45.5927 142.245 45.2739 142.408 44.9762C142.573 44.6775 142.77 44.4112 143.001 44.1786C143.231 43.9458 143.495 43.7451 143.791 43.5782C144.089 43.4112 144.407 43.2857 144.744 43.2024C145.082 43.1189 145.44 43.0771 145.818 43.0771ZM145.818 44.1418C145.548 44.1418 145.294 44.1731 145.055 44.2353C144.816 44.2973 144.591 44.391 144.381 44.5153C144.171 44.6397 143.983 44.7882 143.819 44.9592C143.655 45.1304 143.514 45.3256 143.395 45.5436C143.277 45.7617 143.188 45.993 143.128 46.2364C143.069 46.4794 143.039 46.7365 143.039 47.0068C143.039 47.5456 143.158 48.0333 143.395 48.4702C143.514 48.6882 143.655 48.8836 143.821 49.0559C143.986 49.2282 144.175 49.3777 144.386 49.5034C144.598 49.629 144.823 49.7239 145.061 49.7871C145.3 49.85 145.552 49.8817 145.818 49.8817C146.084 49.8817 146.337 49.85 146.574 49.7871C146.813 49.7239 147.039 49.6289 147.25 49.5036C147.461 49.3772 147.65 49.2276 147.815 49.0559C147.98 48.8839 148.123 48.6883 148.241 48.4704C148.359 48.2509 148.449 48.0196 148.508 47.7774C148.567 47.5342 148.597 47.2771 148.597 47.0068C148.597 46.4683 148.478 45.9803 148.241 45.5436C148.123 45.3256 147.98 45.1304 147.816 44.9592C147.652 44.7882 147.465 44.6397 147.255 44.5153C147.045 44.391 146.82 44.2973 146.581 44.2353C146.343 44.1731 146.088 44.1418 145.818 44.1418ZM158.233 43.1734C158.396 43.1734 158.535 43.2295 158.646 43.3411C158.702 43.3968 158.744 43.4601 158.772 43.5289C158.8 43.5975 158.814 43.6729 158.814 43.7538V50.2695C158.814 50.3502 158.799 50.4257 158.77 50.4951C158.741 50.5642 158.698 50.6272 158.641 50.6828C158.583 50.738 158.521 50.7797 158.453 50.8077C158.385 50.8358 158.311 50.85 158.233 50.85C158.153 50.85 158.077 50.836 158.009 50.8081C157.94 50.7799 157.876 50.7378 157.822 50.6822C157.766 50.6265 157.723 50.5636 157.695 50.4945C157.668 50.4257 157.654 50.3504 157.654 50.2695V45.8299C157.138 46.8813 156.04 49.4618 155.471 50.2746C155.409 50.3687 155.337 50.44 155.254 50.4878C155.17 50.5367 155.075 50.5613 154.971 50.5613C154.726 50.5613 154.548 50.4467 154.438 50.2183L152.289 45.9122V50.2695C152.289 50.35 152.274 50.425 152.247 50.4941C152.218 50.5632 152.177 50.6259 152.121 50.682C152.064 50.7378 152.002 50.7801 151.933 50.8081C151.864 50.836 151.789 50.85 151.708 50.85C151.627 50.85 151.552 50.836 151.484 50.8081C151.414 50.7799 151.351 50.7378 151.296 50.6822C151.24 50.6265 151.198 50.5636 151.17 50.4945C151.142 50.4257 151.128 50.3504 151.128 50.2695V43.7538C151.128 43.6729 151.142 43.5975 151.169 43.5289C151.198 43.4599 151.24 43.3966 151.296 43.3411C151.351 43.2857 151.414 43.2435 151.484 43.2156C151.552 43.1875 151.627 43.1734 151.708 43.1734C151.931 43.1734 152.102 43.2772 152.22 43.4834L155.009 49.0687L157.721 43.4834C157.78 43.3821 157.852 43.3048 157.937 43.2528C158.025 43.2001 158.123 43.1734 158.233 43.1734ZM166.354 50.0391C166.371 50.0836 166.385 50.1258 166.394 50.1657C166.403 50.207 166.408 50.245 166.408 50.2792C166.408 50.3566 166.394 50.4299 166.365 50.4974C166.337 50.5646 166.296 50.6263 166.24 50.682C166.184 50.7378 166.122 50.7799 166.052 50.8081C165.983 50.836 165.908 50.85 165.827 50.85C165.716 50.85 165.611 50.8183 165.51 50.7556C165.46 50.7239 165.417 50.6858 165.38 50.6419C165.343 50.598 165.313 50.5474 165.291 50.4916L164.772 49.1946H161.425L160.895 50.4958C160.869 50.5503 160.838 50.5998 160.802 50.6423C160.765 50.6858 160.722 50.7237 160.674 50.755C160.626 50.7862 160.575 50.81 160.523 50.8257C160.471 50.8417 160.416 50.85 160.36 50.85C160.197 50.85 160.06 50.7917 159.951 50.6754C159.898 50.6183 159.857 50.5556 159.83 50.4878C159.803 50.4196 159.79 50.3466 159.79 50.2695C159.79 50.2326 159.795 50.1924 159.804 50.1493C159.812 50.1092 159.825 50.0658 159.843 50.0194L162.549 43.5596C162.659 43.3021 162.841 43.1734 163.094 43.1734C163.362 43.1734 163.544 43.3033 163.641 43.5625L166.354 50.0391ZM164.372 48.207L163.113 45.0725L161.827 48.207H164.372Z" fill="#FEFEFE"/>
<path d="M14.0692 50.1839C14.086 50.2275 14.0987 50.2681 14.1066 50.3052C14.115 50.3453 14.1197 50.383 14.1197 50.4177C14.1197 50.4897 14.1072 50.5574 14.0829 50.6192C14.0581 50.6812 14.0214 50.7379 13.9727 50.7883C13.9232 50.8393 13.8667 50.8779 13.8032 50.9036C13.7404 50.9291 13.6705 50.942 13.5954 50.942C13.4919 50.942 13.3931 50.9123 13.2999 50.8538C13.2529 50.8244 13.2118 50.7885 13.178 50.7474C13.1436 50.7067 13.1158 50.6595 13.0951 50.6077L11.0892 45.6618L9.03023 50.6114C9.00651 50.6621 8.97755 50.7082 8.94334 50.7481C8.90913 50.7883 8.86884 50.8238 8.82393 50.8532C8.73348 50.9121 8.63589 50.942 8.53158 50.942C8.45603 50.942 8.38573 50.928 8.32193 50.901C8.25751 50.8737 8.19959 50.8328 8.149 50.7789C8.09885 50.7249 8.06108 50.6664 8.03631 50.6037C8.01133 50.54 7.99854 50.4716 7.99854 50.4C7.99854 50.3656 8.00294 50.3278 8.01176 50.2876C8.01953 50.2507 8.0319 50.2099 8.04848 50.1669L10.5456 44.2039C10.5958 44.0859 10.6638 43.9967 10.7486 43.9363C10.8349 43.8748 10.937 43.8435 11.0545 43.8435C11.3034 43.8435 11.4735 43.9637 11.5636 44.2039L14.0692 50.1839ZM19.9454 43.9044C20.0399 43.948 20.1127 44.0032 20.1622 44.0687C20.2145 44.1375 20.241 44.2164 20.241 44.3054C20.241 44.3942 20.2172 44.4862 20.1702 44.5801L17.7274 49.5999C17.6187 49.8232 17.4993 50.0221 17.3697 50.1957C17.2388 50.3711 17.0974 50.5207 16.9464 50.6441C16.7929 50.7694 16.6332 50.8639 16.4677 50.9268C16.301 50.99 16.128 51.0219 15.9499 51.0219C15.6632 51.0219 15.3891 50.9382 15.128 50.7711C15.0865 50.747 15.0491 50.7182 15.0172 50.6863C14.9851 50.6542 14.9572 50.6177 14.9343 50.5772C14.9117 50.5365 14.8947 50.4958 14.8835 50.4557C14.872 50.4135 14.8659 50.3709 14.8659 50.3289C14.8659 50.2431 14.8938 50.1551 14.9493 50.0651C14.995 49.9879 15.054 49.9293 15.1251 49.8903C15.1965 49.8512 15.2791 49.8314 15.3723 49.8314C15.4867 49.8314 15.5979 49.8616 15.7045 49.9215C15.7462 49.9451 15.7885 49.9629 15.8294 49.9744C15.8688 49.9854 15.9093 49.9912 15.9499 49.9912C16.0187 49.9912 16.089 49.9746 16.1599 49.9421C16.2344 49.9081 16.3114 49.8554 16.3897 49.7854C16.469 49.7144 16.545 49.628 16.6164 49.5266C16.689 49.4238 16.757 49.306 16.8198 49.1753L16.8899 49.0273L14.2115 44.6313C14.1843 44.5869 14.1637 44.5408 14.1501 44.4949C14.1358 44.4473 14.1286 44.3989 14.1286 44.3499C14.1286 44.1768 14.2225 44.0376 14.4096 43.9338C14.4988 43.8796 14.5948 43.8523 14.6972 43.8523C14.8697 43.8523 15.0086 43.9427 15.1127 44.1237L17.3656 48.0529L19.263 44.1638C19.3129 44.0607 19.3725 43.9822 19.4409 43.9291C19.515 43.872 19.5981 43.8435 19.69 43.8435C19.7308 43.8435 19.7735 43.8488 19.8172 43.8594C19.8583 43.8687 19.9016 43.884 19.9454 43.9044ZM26.0333 43.8435C26.1108 43.8435 26.1826 43.8563 26.2476 43.8815C26.3135 43.9068 26.3725 43.9453 26.4231 43.9958C26.4736 44.0464 26.512 44.1052 26.5375 44.1711C26.5624 44.2366 26.5753 44.3082 26.5753 44.3854V50.4C26.5753 50.4746 26.5624 50.5446 26.5375 50.6088C26.5123 50.6735 26.4738 50.732 26.4241 50.7839C26.3729 50.8366 26.3139 50.8764 26.2485 50.9027C26.1832 50.9287 26.1112 50.942 26.0333 50.942C25.9579 50.942 25.8878 50.9287 25.8235 50.9027C25.7591 50.8766 25.7001 50.837 25.6483 50.7851C25.5962 50.7331 25.5565 50.6744 25.5306 50.6099C25.5047 50.5451 25.4915 50.475 25.4915 50.4V48.0666C25.4195 48.1304 25.3418 48.1896 25.2585 48.2444C25.12 48.3354 24.9654 48.4141 24.7962 48.4798C24.6264 48.5453 24.4468 48.5951 24.2577 48.6276C24.0689 48.6599 23.8697 48.6764 23.6613 48.6764C23.2277 48.6764 22.8434 48.6089 22.5089 48.474C22.1721 48.3383 21.8856 48.134 21.651 47.8626C21.4172 47.5923 21.2418 47.2702 21.1252 46.8979C21.0099 46.5281 20.9517 46.1078 20.9517 45.638V44.3854C20.9517 44.3076 20.965 44.2358 20.9908 44.1704C21.0172 44.1044 21.0573 44.0454 21.1097 43.9948C21.1618 43.9444 21.2206 43.9066 21.2847 43.8815C21.349 43.8563 21.4187 43.8435 21.4936 43.8435C21.571 43.8435 21.6428 43.8561 21.7078 43.8815C21.7744 43.9073 21.8329 43.9457 21.8832 43.9958C21.9339 44.0464 21.9723 44.1054 21.9977 44.1709C22.0227 44.2366 22.0355 44.3082 22.0355 44.3854V45.638C22.0355 46.3315 22.1652 46.8535 22.4237 47.2033C22.5492 47.3728 22.7183 47.501 22.9301 47.5862C23.1461 47.6733 23.4078 47.7169 23.7146 47.7169C23.892 47.7169 24.0594 47.706 24.2157 47.6844C24.3716 47.6628 24.5186 47.6303 24.6543 47.5877C24.7897 47.5447 24.9106 47.4937 25.0149 47.4351C25.1177 47.3774 25.2065 47.3115 25.2795 47.2385C25.3503 47.1678 25.404 47.0907 25.439 47.0091C25.4739 46.9285 25.4915 46.8414 25.4915 46.7486V44.3854C25.4915 44.3076 25.5047 44.2358 25.5306 44.1704C25.5569 44.1044 25.5971 44.0454 25.6495 43.9948C25.7016 43.9444 25.7604 43.9066 25.8245 43.8815C25.8887 43.8563 25.9585 43.8435 26.0333 43.8435ZM35.3706 44.3854C35.3706 44.3073 35.3838 44.2356 35.4099 44.1702C35.4361 44.1048 35.4758 44.0457 35.5286 43.9948C35.5805 43.9446 35.639 43.9066 35.7039 43.8815C35.768 43.8563 35.8378 43.8435 35.9127 43.8435C35.9874 43.8435 36.0571 43.8563 36.1208 43.8817C36.1849 43.9071 36.2429 43.9453 36.2934 43.9958C36.344 44.0464 36.3824 44.1052 36.4077 44.1711C36.433 44.2362 36.4457 44.3078 36.4457 44.3854V50.4C36.4457 50.4775 36.4332 50.5493 36.4077 50.6143C36.3822 50.6804 36.3436 50.739 36.2934 50.7893C36.2426 50.8397 36.1849 50.8783 36.1208 50.9038C36.0571 50.9291 35.9874 50.942 35.9127 50.942H28.7343C28.6587 50.942 28.5886 50.9287 28.5244 50.9027C28.46 50.8766 28.4015 50.8373 28.3492 50.7851C28.297 50.7331 28.2575 50.6744 28.2315 50.6099C28.2054 50.5457 28.1922 50.4752 28.1922 50.4V44.3854C28.1922 44.3073 28.2054 44.2356 28.2315 44.1702C28.2577 44.1048 28.2974 44.0457 28.3503 43.9948C28.4021 43.9446 28.4607 43.9066 28.5255 43.8815C28.5897 43.8563 28.6593 43.8435 28.7343 43.8435C28.8118 43.8435 28.8835 43.8561 28.9486 43.8815C29.0151 43.9073 29.0737 43.9457 29.1238 43.9958C29.1744 44.0464 29.2128 44.1052 29.2382 44.1711C29.2634 44.2362 29.2761 44.3078 29.2761 44.3854V49.9646H31.7815V44.3854C31.7815 44.3076 31.7948 44.2358 31.8205 44.1704C31.847 44.1044 31.887 44.0454 31.9395 43.9948C31.9916 43.9444 32.0503 43.9066 32.1146 43.8815C32.1788 43.8563 32.2485 43.8435 32.3234 43.8435C32.4008 43.8435 32.4726 43.8563 32.5377 43.8815C32.6036 43.9068 32.6626 43.9453 32.7131 43.9958C32.7637 44.0464 32.8021 44.1052 32.8275 44.1711C32.8525 44.2366 32.8653 44.3082 32.8653 44.3854V49.9646H35.3706V44.3854ZM42.6201 49.9291C42.6966 49.9291 42.7671 49.9404 42.8306 49.9625C42.8954 49.9852 42.9528 50.0196 43.0027 50.0657C43.0527 50.112 43.0906 50.1663 43.1158 50.2276C43.1406 50.288 43.1532 50.3545 43.1532 50.4267C43.1532 50.5017 43.1409 50.5709 43.1165 50.6326C43.0912 50.6958 43.0539 50.7516 43.0039 50.7997C42.9546 50.8469 42.8967 50.8832 42.8315 50.9069C42.7677 50.9299 42.6968 50.942 42.6201 50.942H38.6046C38.5291 50.942 38.459 50.9287 38.3948 50.9027C38.3303 50.8766 38.2718 50.8373 38.2196 50.7851C38.1672 50.7331 38.1278 50.6744 38.1018 50.6099C38.0758 50.5457 38.0625 50.4752 38.0625 50.4V44.3854C38.0625 44.3073 38.0758 44.2356 38.1018 44.1702C38.128 44.1048 38.1676 44.0457 38.2205 43.9948C38.2724 43.9446 38.3309 43.9066 38.3958 43.8815C38.46 43.8563 38.5297 43.8435 38.6046 43.8435H42.6201C42.6968 43.8435 42.7679 43.855 42.8319 43.8786C42.8969 43.9025 42.9544 43.9382 43.0039 43.9858C43.0539 44.0338 43.0917 44.0899 43.1165 44.1526C43.1409 44.215 43.1532 44.2838 43.1532 44.3587C43.1532 44.4307 43.1406 44.4975 43.1158 44.5578C43.0906 44.619 43.0531 44.6729 43.0031 44.7192C42.9532 44.7655 42.8956 44.8001 42.831 44.8227C42.7679 44.845 42.6972 44.8563 42.6201 44.8563H39.1465V46.8552H41.6164C41.6902 46.8552 41.7593 46.8671 41.8224 46.8905C41.8865 46.9138 41.9441 46.9495 41.9949 46.9967C42.046 47.0442 42.0849 47.0993 42.1108 47.1608C42.1362 47.2214 42.1492 47.2891 42.1492 47.3617C42.1492 47.4342 42.1362 47.5017 42.1108 47.5623C42.0849 47.6238 42.046 47.679 41.9949 47.7264C41.9443 47.7732 41.8865 47.8091 41.8226 47.8328C41.7595 47.8562 41.6907 47.8681 41.6164 47.8681H39.1465V49.9291H42.6201ZM48.8391 49.9291C48.9154 49.9291 48.9859 49.9404 49.0496 49.9625C49.1144 49.9852 49.1717 50.0196 49.2216 50.0657C49.2715 50.112 49.3095 50.1663 49.3347 50.2276C49.3595 50.288 49.372 50.3545 49.372 50.4267C49.372 50.5017 49.3597 50.5709 49.3353 50.6326C49.3102 50.6958 49.2728 50.7516 49.2229 50.7997C49.1736 50.8469 49.1156 50.8832 49.0504 50.9069C48.9865 50.9299 48.9156 50.942 48.8391 50.942H44.8235C44.7479 50.942 44.6778 50.9287 44.6136 50.9027C44.5492 50.8766 44.4906 50.8373 44.4384 50.7851C44.3861 50.7331 44.3467 50.6744 44.3207 50.6099C44.2946 50.5457 44.2814 50.4752 44.2814 50.4V44.3854C44.2814 44.3073 44.2946 44.2356 44.3207 44.1702C44.3469 44.1048 44.3866 44.0457 44.4395 43.9948C44.4913 43.9446 44.5499 43.9066 44.6147 43.8815C44.6789 43.8563 44.7485 43.8435 44.8235 43.8435H48.8391C48.9156 43.8435 48.9867 43.855 49.0508 43.8786C49.1158 43.9025 49.1734 43.9382 49.2229 43.9858C49.2728 44.0338 49.3106 44.0899 49.3353 44.1526C49.3597 44.215 49.372 44.2838 49.372 44.3587C49.372 44.4307 49.3595 44.4975 49.3347 44.5578C49.3095 44.619 49.272 44.6729 49.222 44.7192C49.1721 44.7655 49.1146 44.8001 49.05 44.8227C48.9867 44.845 48.916 44.8563 48.8391 44.8563H45.3653V46.8552H47.8353C47.9091 46.8552 47.9781 46.8671 48.0414 46.8905C48.1053 46.9138 48.1631 46.9495 48.2138 46.9967C48.2648 47.0442 48.3039 47.0993 48.3296 47.1608C48.3551 47.2214 48.3681 47.2891 48.3681 47.3617C48.3681 47.4342 48.3551 47.5017 48.3296 47.5623C48.3039 47.6238 48.2648 47.679 48.2138 47.7264C48.1633 47.7732 48.1053 47.8091 48.0416 47.8328C47.9783 47.8562 47.9095 47.8681 47.8353 47.8681H45.3653V49.9291H48.8391ZM59.2335 49.9646C59.311 49.9646 59.3828 49.9774 59.4478 50.0026C59.5138 50.0279 59.5727 50.0664 59.6232 50.1169C59.6734 50.1672 59.7118 50.2259 59.7375 50.2924C59.7628 50.3575 59.7755 50.4293 59.7755 50.5066V51.9814C59.7755 52.0588 59.7626 52.1306 59.7377 52.1955C59.712 52.2616 59.6736 52.3202 59.6232 52.3707C59.5725 52.4217 59.5137 52.4599 59.448 52.4855C59.3821 52.5105 59.3106 52.5233 59.2335 52.5233C59.1587 52.5233 59.089 52.5105 59.0247 52.4855C58.9603 52.4601 58.9015 52.4221 58.8497 52.372C58.797 52.3209 58.7569 52.2622 58.7307 52.1963C58.7049 52.131 58.6917 52.059 58.6917 51.9814V50.942H53.5211V51.9814C53.5211 52.0588 53.5085 52.1306 53.4831 52.1957C53.4575 52.2618 53.4189 52.3203 53.3687 52.3707C53.3182 52.4215 53.2594 52.4599 53.1933 52.4855C53.1284 52.5105 53.0566 52.5233 52.9792 52.5233C52.9043 52.5233 52.8346 52.5105 52.7704 52.4855C52.7057 52.4601 52.6472 52.4221 52.5952 52.372C52.5425 52.3209 52.5026 52.2622 52.4763 52.1963C52.4504 52.1314 52.4372 52.0592 52.4372 51.9814V50.5066C52.4372 50.4288 52.4504 50.3569 52.4763 50.2915C52.5026 50.2256 52.5425 50.1669 52.5952 50.1159C52.647 50.0657 52.7055 50.0277 52.7704 50.0026C52.8346 49.9774 52.9043 49.9646 52.9792 49.9646H53.1927L55.6063 44.2039C55.6564 44.0859 55.7244 43.9967 55.8092 43.9363C55.8955 43.8748 55.9977 43.8435 56.1152 43.8435C56.3641 43.8435 56.5341 43.9637 56.6243 44.2039L59.0379 49.9646H59.2335ZM54.3058 49.9646H57.9774L56.1251 45.467L54.3058 49.9646ZM66.086 50.1839C66.103 50.2275 66.1156 50.2681 66.1236 50.3052C66.132 50.3453 66.1366 50.383 66.1366 50.4177C66.1366 50.4897 66.1242 50.5574 66.0999 50.6192C66.0752 50.6812 66.0384 50.7379 65.9897 50.7883C65.9402 50.8393 65.8837 50.8779 65.8201 50.9036C65.7574 50.9291 65.6875 50.942 65.6124 50.942C65.5089 50.942 65.41 50.9123 65.3169 50.8538C65.2698 50.8244 65.2287 50.7885 65.1949 50.7474C65.1605 50.7067 65.1328 50.6595 65.112 50.6077L63.1062 45.6618L61.0472 50.6114C61.0235 50.6621 60.9946 50.7082 60.9603 50.7481C60.9261 50.7883 60.8858 50.8238 60.8409 50.8532C60.7504 50.9121 60.6529 50.942 60.5486 50.942C60.473 50.942 60.4027 50.928 60.3389 50.901C60.2744 50.8737 60.2166 50.8328 60.166 50.7789C60.1158 50.7249 60.0781 50.6664 60.0533 50.6037C60.0283 50.54 60.0155 50.4716 60.0155 50.4C60.0155 50.3656 60.0199 50.3278 60.0287 50.2876C60.0365 50.2507 60.0489 50.2099 60.0654 50.1669L62.5627 44.2039C62.6128 44.0859 62.6808 43.9967 62.7655 43.9363C62.8518 43.8748 62.9541 43.8435 63.0716 43.8435C63.3205 43.8435 63.4904 43.9637 63.5807 44.2039L66.086 50.1839ZM71.316 43.8435C71.3937 43.8435 71.4654 43.8561 71.5305 43.8815C71.5971 43.9073 71.6556 43.9457 71.7057 43.9958C71.7564 44.0464 71.7947 44.1052 71.8201 44.1711C71.8453 44.2362 71.8581 44.3078 71.8581 44.3854V50.4C71.8581 50.4748 71.8453 50.5446 71.8201 50.6088C71.7949 50.6735 71.7566 50.732 71.7068 50.7839C71.6556 50.8366 71.5969 50.8764 71.5311 50.9027C71.4663 50.9287 71.3941 50.942 71.316 50.942C71.2409 50.942 71.1704 50.9287 71.1061 50.9027C71.0417 50.8766 70.9827 50.837 70.9309 50.7851C70.8789 50.7331 70.8395 50.6744 70.8134 50.6099C70.7873 50.5457 70.7741 50.4752 70.7741 50.4V48.2678H69.3257L67.8302 50.6817C67.7752 50.7674 67.7089 50.8324 67.6302 50.8758C67.5515 50.9199 67.4619 50.942 67.3627 50.942C67.2852 50.942 67.2149 50.9299 67.152 50.9069C67.0868 50.883 67.0299 50.8467 66.9819 50.7986C66.9343 50.7509 66.8986 50.697 66.8747 50.6376C66.8506 50.5786 66.8386 50.5136 66.8386 50.4444C66.8386 50.3289 66.8723 50.2167 66.9396 50.109L68.2359 48.0282C68.0434 47.9617 67.868 47.8762 67.71 47.7723C67.5246 47.6506 67.3638 47.5032 67.2289 47.331C67.0934 47.1585 66.9912 46.9694 66.9232 46.765C66.8549 46.561 66.8207 46.3421 66.8207 46.109C66.8207 45.8922 66.846 45.6864 66.8955 45.4918C66.9452 45.2969 67.0206 45.1128 67.1204 44.9407C67.3202 44.5961 67.6004 44.3267 67.9601 44.133C68.1395 44.0364 68.3312 43.9633 68.5334 43.9155C68.7354 43.8677 68.9497 43.8435 69.175 43.8435H71.316ZM70.7741 44.8563H69.175C68.9767 44.8563 68.7979 44.884 68.639 44.9386C68.4824 44.9923 68.344 45.0739 68.225 45.1818C68.107 45.2884 68.018 45.4186 67.9589 45.5713C67.899 45.7257 67.869 45.9054 67.869 46.109C67.869 46.4817 67.9874 46.7713 68.2237 46.9774C68.3423 47.0808 68.4808 47.1591 68.6381 47.2112C68.7964 47.2641 68.9756 47.2906 69.175 47.2906H70.7741V44.8563ZM78.7433 43.8435C79.1525 43.8435 79.5175 43.9251 79.837 44.0878C80.1578 44.2513 80.4098 44.4805 80.5924 44.774C80.6833 44.9205 80.7524 45.0781 80.7981 45.245C80.8436 45.4116 80.8667 45.5872 80.8667 45.7713C80.8667 46.0775 80.7834 46.3533 80.6171 46.5978C80.4865 46.7904 80.317 46.9535 80.1104 47.0869C80.2465 47.1317 80.3727 47.1887 80.488 47.2577C80.6545 47.3573 80.7987 47.4821 80.9196 47.6311C81.0411 47.7808 81.1328 47.9514 81.1935 48.1413C81.2537 48.3302 81.2841 48.5384 81.2841 48.7652C81.2841 48.9734 81.259 49.1715 81.2092 49.3587C81.1595 49.5462 81.0841 49.7237 80.984 49.8901C80.8839 50.0565 80.7633 50.2046 80.6229 50.3344C80.4831 50.4633 80.3228 50.5742 80.1435 50.6664C79.9641 50.7581 79.7727 50.8275 79.5704 50.8733C79.3681 50.9189 79.1542 50.942 78.9299 50.942H76.6201C76.5446 50.942 76.4745 50.9287 76.4103 50.9027C76.3458 50.8766 76.2873 50.8373 76.2351 50.7851C76.1828 50.7331 76.1433 50.6744 76.1173 50.6099C76.0913 50.5457 76.0781 50.4752 76.0781 50.4V44.3854C76.0781 44.3073 76.0913 44.2356 76.1173 44.1702C76.1435 44.1048 76.1832 44.0457 76.2361 43.9948C76.2879 43.9446 76.3464 43.9066 76.4113 43.8815C76.4755 43.8563 76.5452 43.8435 76.6201 43.8435H78.7433ZM78.7433 46.6953C78.9106 46.6953 79.0602 46.6752 79.192 46.6347C79.3217 46.5948 79.4356 46.5348 79.5326 46.4557C79.6274 46.3782 79.6988 46.2832 79.7459 46.1715C79.7939 46.0575 79.8183 45.9237 79.8183 45.7713C79.8183 45.6191 79.7941 45.4861 79.7461 45.3728C79.6986 45.2616 79.6274 45.1673 79.5331 45.0916C79.4365 45.0142 79.3226 44.9554 79.1924 44.9163C79.0602 44.8764 78.9101 44.8563 78.7433 44.8563H77.162V46.6953H78.7433ZM78.9299 49.9291C79.3251 49.9291 79.6427 49.8272 79.8822 49.624C79.9995 49.5245 80.0881 49.4034 80.1467 49.2622C80.2059 49.1191 80.2359 48.953 80.2359 48.7652C80.2359 48.5932 80.2067 48.4414 80.1486 48.3115C80.0915 48.1837 80.0048 48.0743 79.8892 47.9845C79.771 47.8928 79.6327 47.8237 79.4751 47.778C79.315 47.7315 79.133 47.7082 78.9299 47.7082H77.162V49.9291H78.9299ZM87.578 50.1851C87.5937 50.2263 87.606 50.266 87.6143 50.3027C87.6228 50.3411 87.6275 50.3768 87.6275 50.4089C87.6275 50.4813 87.6141 50.5499 87.5878 50.6128C87.5616 50.6761 87.5223 50.7335 87.4707 50.7851C87.4185 50.837 87.3597 50.8766 87.2955 50.9027C87.2312 50.9287 87.1607 50.942 87.0856 50.942C86.9821 50.942 86.8833 50.9123 86.7901 50.8538C86.7427 50.824 86.7017 50.7883 86.6677 50.7474C86.6337 50.7065 86.6057 50.6595 86.5851 50.6072L86.1076 49.4139H83.026L82.538 50.6114C82.5144 50.6621 82.4854 50.7082 82.4512 50.7481C82.417 50.7883 82.3766 50.8238 82.3318 50.8532C82.2413 50.9121 82.1438 50.942 82.0395 50.942C81.9639 50.942 81.8936 50.928 81.8298 50.901C81.7655 50.8739 81.7076 50.8328 81.657 50.7787C81.6069 50.7249 81.5691 50.6664 81.5444 50.6037C81.5189 50.54 81.5064 50.472 81.5064 50.4C81.5064 50.365 81.511 50.3276 81.5194 50.2878C81.5274 50.2504 81.54 50.2097 81.5565 50.1669L84.0534 44.2039C84.1041 44.0857 84.1719 43.9963 84.256 43.9361C84.3427 43.8746 84.4451 43.8435 84.5627 43.8435C84.8117 43.8435 84.9813 43.9637 85.0716 44.2039L87.578 50.1851ZM85.7326 48.4899L84.5794 45.6191L83.402 48.4899H85.7326ZM95.6588 44.3854C95.6588 44.3073 95.672 44.2356 95.6979 44.1702C95.7242 44.1048 95.7639 44.0457 95.8168 43.9948C95.8686 43.9446 95.9271 43.9066 95.992 43.8815C96.0562 43.8563 96.1259 43.8435 96.2008 43.8435C96.2755 43.8435 96.3452 43.8563 96.409 43.8817C96.473 43.9071 96.5309 43.9453 96.5815 43.9958C96.632 44.0464 96.6705 44.1052 96.6959 44.1711C96.721 44.2362 96.7339 44.3078 96.7339 44.3854V50.4C96.7339 50.4775 96.7212 50.5493 96.6959 50.6143C96.6702 50.6804 96.6317 50.739 96.5815 50.7893C96.5307 50.8397 96.473 50.8783 96.409 50.9038C96.3452 50.9291 96.2755 50.942 96.2008 50.942H89.0224C88.9469 50.942 88.8768 50.9287 88.8126 50.9027C88.7481 50.8766 88.6896 50.8373 88.6374 50.7851C88.5851 50.7331 88.5456 50.6744 88.5196 50.6099C88.4936 50.5457 88.4804 50.4752 88.4804 50.4V44.3854C88.4804 44.3073 88.4936 44.2356 88.5196 44.1702C88.5458 44.1048 88.5855 44.0457 88.6384 43.9948C88.6902 43.9446 88.7487 43.9066 88.8136 43.8815C88.8778 43.8563 88.9475 43.8435 89.0224 43.8435C89.0998 43.8435 89.1716 43.8561 89.2367 43.8815C89.3032 43.9073 89.3618 43.9457 89.412 43.9958C89.4625 44.0464 89.5009 44.1052 89.5263 44.1711C89.5515 44.2362 89.5643 44.3078 89.5643 44.3854V49.9646H92.0696V44.3854C92.0696 44.3076 92.0828 44.2358 92.1087 44.1704C92.1351 44.1044 92.1752 44.0454 92.2277 43.9948C92.2797 43.9444 92.3385 43.9066 92.4027 43.8815C92.4669 43.8563 92.5366 43.8435 92.6115 43.8435C92.6889 43.8435 92.7607 43.8563 92.8257 43.8815C92.8917 43.9068 92.9506 43.9453 93.0012 43.9958C93.0518 44.0464 93.0902 44.1052 93.1156 44.1711C93.1405 44.2366 93.1534 44.3082 93.1534 44.3854V49.9646H95.6588V44.3854ZM102.908 49.9291C102.985 49.9291 103.055 49.9404 103.119 49.9625C103.183 49.9852 103.241 50.0196 103.291 50.0657C103.341 50.112 103.378 50.1663 103.404 50.2276C103.429 50.288 103.441 50.3545 103.441 50.4267C103.441 50.5017 103.429 50.5709 103.404 50.6326C103.379 50.6958 103.343 50.7516 103.292 50.7997C103.243 50.8469 103.184 50.8832 103.12 50.9069C103.056 50.9299 102.985 50.942 102.908 50.942H98.8927C98.8172 50.942 98.7471 50.9287 98.6828 50.9027C98.6184 50.8766 98.5599 50.8373 98.5076 50.7851C98.4554 50.7331 98.4159 50.6744 98.3899 50.6099C98.3638 50.5457 98.3506 50.4752 98.3506 50.4V44.3854C98.3506 44.3073 98.3638 44.2356 98.3899 44.1702C98.4161 44.1048 98.4558 44.0457 98.5087 43.9948C98.5605 43.9446 98.6191 43.9066 98.6839 43.8815C98.7482 43.8563 98.8178 43.8435 98.8927 43.8435H102.908C102.985 43.8435 103.056 43.855 103.12 43.8786C103.185 43.9025 103.242 43.9382 103.292 43.9858C103.343 44.0338 103.38 44.0899 103.404 44.1526C103.429 44.215 103.441 44.2838 103.441 44.3587C103.441 44.4307 103.429 44.4975 103.404 44.5578C103.378 44.619 103.342 44.6729 103.291 44.7192C103.241 44.7655 103.183 44.8001 103.119 44.8227C103.056 44.845 102.986 44.8563 102.908 44.8563H99.4346V46.8552H101.905C101.978 46.8552 102.048 46.8671 102.11 46.8905C102.174 46.9138 102.232 46.9495 102.284 46.9967C102.334 47.0442 102.373 47.0993 102.399 47.1608C102.425 47.2214 102.438 47.2891 102.438 47.3617C102.438 47.4342 102.425 47.5017 102.399 47.5623C102.373 47.6238 102.334 47.679 102.284 47.7264C102.233 47.7732 102.174 47.8091 102.11 47.8328C102.048 47.8562 101.979 47.8681 101.905 47.8681H99.4346V49.9291H102.908ZM105.653 50.4C105.653 50.4752 105.64 50.5457 105.615 50.6099C105.588 50.6742 105.549 50.7329 105.496 50.785C105.445 50.837 105.386 50.8766 105.321 50.9027C105.258 50.9287 105.187 50.942 105.111 50.942C105.036 50.942 104.966 50.9287 104.902 50.9027C104.837 50.8766 104.778 50.8373 104.727 50.7851C104.674 50.7331 104.635 50.6744 104.608 50.6099C104.582 50.5457 104.57 50.4752 104.57 50.4V44.3854C104.57 44.3073 104.582 44.2356 104.608 44.1702C104.635 44.1048 104.675 44.0457 104.728 43.9948C104.779 43.9446 104.838 43.9066 104.903 43.8815C104.967 43.8563 105.037 43.8435 105.111 43.8435H108.781C108.857 43.8435 108.929 43.855 108.992 43.8786C109.057 43.9025 109.115 43.9382 109.165 43.9858C109.214 44.0338 109.252 44.0899 109.277 44.1526C109.302 44.215 109.314 44.2838 109.314 44.3587C109.314 44.4307 109.301 44.4975 109.276 44.5578C109.251 44.619 109.213 44.6729 109.164 44.7192C109.114 44.7655 109.056 44.8001 108.991 44.8227C108.929 44.845 108.857 44.8563 108.781 44.8563H105.653V50.4ZM113.418 43.7547C113.764 43.7547 114.094 43.7936 114.405 43.8705C114.715 43.9476 115.008 44.0636 115.283 44.2186C115.557 44.3734 115.802 44.5585 116.016 44.7734C116.229 44.9889 116.413 45.2349 116.567 45.5104C116.719 45.7858 116.834 46.0808 116.911 46.3946C116.987 46.708 117.025 47.0395 117.025 47.3883C117.025 47.7371 116.987 48.0689 116.911 48.3831C116.834 48.6975 116.719 48.9936 116.567 49.2701C116.413 49.5474 116.229 49.7944 116.017 50.0105C115.804 50.2267 115.56 50.4125 115.288 50.5669C115.014 50.7216 114.722 50.8381 114.41 50.9148C114.099 50.9919 113.767 51.0307 113.418 51.0307C113.068 51.0307 112.737 50.9919 112.425 50.9148C112.113 50.8381 111.819 50.7218 111.545 50.5669C111.27 50.4121 111.026 50.2265 110.812 50.0105C110.599 49.7944 110.416 49.5472 110.265 49.2699C110.114 48.9929 110 48.697 109.924 48.3831C109.849 48.0689 109.811 47.7371 109.811 47.3883C109.811 47.0395 109.849 46.7078 109.924 46.3946C110 46.0811 110.114 45.7862 110.265 45.5108C110.417 45.2347 110.599 44.9885 110.812 44.7734C111.026 44.5585 111.27 44.3734 111.545 44.2186C111.819 44.0636 112.113 43.9474 112.425 43.8703C112.737 43.7936 113.068 43.7547 113.418 43.7547ZM113.418 44.7497C113.17 44.7497 112.935 44.7785 112.715 44.8358C112.495 44.893 112.288 44.9791 112.095 45.0937C111.902 45.2081 111.729 45.3447 111.578 45.5023C111.428 45.6592 111.296 45.8391 111.187 46.0405C111.078 46.2412 110.996 46.4544 110.941 46.6783C110.887 46.9023 110.86 47.1392 110.86 47.3883C110.86 47.884 110.969 48.3335 111.187 48.7361C111.295 48.9369 111.427 49.117 111.579 49.2754C111.731 49.4336 111.905 49.5713 112.1 49.6876C112.294 49.803 112.502 49.8905 112.721 49.9487C112.941 50.0066 113.174 50.0357 113.418 50.0357C113.663 50.0357 113.896 50.0066 114.115 49.9484C114.335 49.8905 114.542 49.803 114.737 49.6878C114.932 49.5713 115.106 49.4336 115.257 49.2754C115.409 49.117 115.54 48.9369 115.65 48.7363C115.758 48.5342 115.841 48.3211 115.894 48.0981C115.949 47.8741 115.977 47.6372 115.977 47.3883C115.977 46.8922 115.868 46.4425 115.65 46.0405C115.54 45.8398 115.41 45.6601 115.259 45.5023C115.108 45.3447 114.935 45.2081 114.742 45.0937C114.548 44.9791 114.341 44.8928 114.121 44.8358C113.901 44.7785 113.666 44.7497 113.418 44.7497Z" fill="#FEFEFE"/>
</g>
</g>
</g>
<defs>
<clipPath id="clip0_3_1377">
<rect width="177" height="54.69" fill="white" transform="translate(0.542572 0.553101)"/>
</clipPath>
<clipPath id="clip1_3_1377">
<rect width="177" height="54.69" fill="white" transform="translate(0.542572 0.553101)"/>
</clipPath>
<clipPath id="clip2_3_1377">
<rect width="176.997" height="54.69" fill="white" transform="translate(0.544205 0.553101)"/>
</clipPath>
</defs>
</svg>
