<svg width="46" height="45" viewBox="0 0 46 45" fill="none" xmlns="http://www.w3.org/2000/svg">
<path d="M29.2281 37.6284H7.89787C5.7164 37.6284 3.948 35.86 3.948 33.6786V6.06812H29.2281V37.6284Z" fill="white"/>
<path d="M33.9106 33.979C33.9106 35.9971 32.277 37.6307 30.2653 37.6307H7.52222C9.49547 37.6307 11.0907 36.0291 11.0907 34.0558L33.9106 33.979Z" fill="#E53935"/>
<path d="M7.44849 9.69312H11.8575V14.1021H7.44849V9.69312Z" fill="white"/>
<path d="M7.44849 17.6194H11.8575V22.0284H7.44849V17.6194Z" fill="white"/>
<path d="M7.44849 25.5454H11.8575V29.9544H7.44849V25.5454Z" fill="white"/>
<path d="M38.0612 26.6952L35.7555 30.971L33.4497 26.6952V11.1784C33.4497 10.7091 33.8302 10.3286 34.2995 10.3286H37.2114C37.6808 10.3286 38.0612 10.7091 38.0612 11.1784V26.6952Z" fill="white"/>
<path d="M33.6272 27.0244L35.7554 30.971L37.8837 27.0244H33.6272Z" fill="white"/>
<path d="M36.9187 7.84924V10.3288H34.5918V7.84924C34.5918 7.20667 35.1127 6.68579 35.7552 6.68579C36.3978 6.68579 36.9187 7.20667 36.9187 7.84924Z" fill="#E53935"/>
<path d="M41.1405 11.9466C41.2324 12.1108 41.4401 12.174 41.6111 12.0809C41.7779 11.9877 41.838 11.7778 41.7455 11.6103C41.1358 10.5131 40.4309 9.4612 39.6497 8.48251C39.5308 8.33361 39.3135 8.30933 39.1642 8.42818C39.0151 8.54736 38.9901 8.76475 39.1096 8.91398C39.8664 9.86229 40.5504 10.8825 41.1405 11.9466Z" fill="#0C4393"/>
<path d="M42.8812 13.9706C42.8083 13.7951 42.6063 13.712 42.4295 13.7822C42.2532 13.8552 42.1689 14.0571 42.2411 14.234C43.3167 16.8517 43.8622 19.6226 43.8622 22.4706C43.8622 26.0194 42.9845 29.5432 41.3229 32.6619C41.2331 32.8307 41.2972 33.0401 41.4653 33.1299C41.6322 33.2187 41.8428 33.1573 41.9332 32.9874C43.6475 29.7687 44.5536 26.1322 44.5536 22.4706C44.5536 19.5322 43.9905 16.6728 42.8812 13.9706Z" fill="#0C4393"/>
<path d="M33.5284 40.9886C32.3806 41.7009 31.1619 42.3086 29.9067 42.7933C29.7291 42.8622 29.64 43.0627 29.7088 43.241C29.7771 43.4165 29.9745 43.5075 30.1565 43.4388C31.4515 42.9379 32.7087 42.3112 33.893 41.576C34.055 41.4754 34.105 41.262 34.0044 41.0999C33.9032 40.9379 33.6897 40.89 33.5284 40.9886Z" fill="#0C4393"/>
<path d="M27.1876 43.6434C22.1628 44.8588 16.6297 44.1923 12.0174 41.7738C11.8493 41.6854 11.6393 41.7495 11.5508 41.919C11.4617 42.0884 11.5272 42.2971 11.696 42.3855C14.8823 44.0573 18.4743 44.9405 22.0825 44.9405C23.8636 44.9405 25.636 44.7305 27.3497 44.3159C27.5353 44.2707 27.6494 44.0837 27.6049 43.8986C27.5603 43.7129 27.3753 43.6009 27.1876 43.6434Z" fill="#0C4393"/>
<path d="M12.1059 3.12276C15.2193 1.50939 18.5756 0.691399 22.0826 0.691399C22.2737 0.691399 22.4283 0.536779 22.4283 0.345698C22.4283 0.154617 22.2737 0 22.0826 0C18.4636 0 14.9998 0.843988 11.7872 2.50901C11.6177 2.59678 11.5516 2.80542 11.6394 2.9749C11.7259 3.14227 11.933 3.2115 12.1059 3.12276Z" fill="#0C4393"/>
<path d="M24.4464 0.821421C25.3518 0.921347 26.264 1.08036 27.158 1.29473C27.3426 1.33858 27.53 1.22552 27.5746 1.03917C27.6191 0.853497 27.5044 0.666806 27.3187 0.622237C26.397 0.401447 25.4565 0.237039 24.522 0.134077C24.3323 0.111123 24.1614 0.249871 24.1405 0.439936C24.1196 0.629669 24.2567 0.800489 24.4464 0.821421Z" fill="#0C4393"/>
<path d="M38.4065 11.5042V11.1787C38.4065 10.5373 37.8985 10.0169 37.2647 9.98831V7.84902C37.2647 7.01685 36.5875 6.33994 35.755 6.33994C35.1806 6.33994 34.686 6.66631 34.4311 7.14007C31.0494 4.40991 26.7571 2.76514 22.0823 2.76514C18.2887 2.76514 14.7503 3.85557 11.7412 5.72247H3.94741C3.75633 5.72247 3.60171 5.87709 3.60171 6.06817V15.6749C2.81907 17.7949 2.38501 20.082 2.38501 22.4706C2.38501 24.8543 2.82059 27.1351 3.60171 29.2505V33.6788C3.60171 36.1013 5.71743 37.9764 7.52187 37.9764H9.95492C13.3011 40.6022 17.5096 42.1754 22.0823 42.1754C32.9482 42.1754 41.7878 33.3358 41.7878 22.4706C41.7878 18.406 40.5255 14.6438 38.4065 11.5042ZM34.2061 27.3698H37.3039L35.755 30.2427L34.2061 27.3698ZM33.8328 26.6784L33.7949 26.6082V14.2191H35.4093V19.4836C35.4093 19.6746 35.5639 19.8293 35.755 19.8293C35.9461 19.8293 36.1007 19.6746 36.1007 19.4836V14.2191H37.7151V26.6082L37.6772 26.6784H33.8328ZM37.7151 11.1787V13.5277H33.7949V11.1787C33.7949 10.9005 34.0211 10.6744 34.2993 10.6744H37.2113C37.4889 10.6744 37.7151 10.9005 37.7151 11.1787ZM34.9373 7.84902C34.9373 7.39796 35.3039 7.03134 35.755 7.03134C36.206 7.03134 36.5733 7.39796 36.5733 7.84902V9.98294H34.9373V7.84902ZM3.07641 22.4706C3.07641 20.9535 3.26315 19.4807 3.60172 18.0661V26.877C3.26099 25.4626 3.07641 23.9885 3.07641 22.4706ZM4.2931 33.6788V6.41388H28.8822V33.6498L11.0889 33.7099C10.8985 33.7105 10.7445 33.8651 10.7445 34.0555C10.7445 35.7682 9.403 37.1604 7.71941 37.265C5.8163 37.17 4.2931 35.605 4.2931 33.6788ZM10.193 37.2829C10.1194 37.2237 10.0464 37.1638 9.97364 37.1035C10.779 36.4521 11.3256 35.4915 11.4211 34.3999L33.5464 34.3256C33.3729 35.9859 31.9679 37.285 30.265 37.285H24.0607V37.2829H10.193ZM22.0823 41.484C17.9947 41.484 14.2075 40.1823 11.105 37.9764H30.265C32.4654 37.9764 34.256 36.1831 34.256 33.9785C34.256 33.8867 34.2196 33.7983 34.1541 33.7335C34.0886 33.6686 33.9887 33.6383 33.909 33.6328L29.5736 33.6475V6.06818C29.5736 5.87709 29.419 5.72248 29.2279 5.72248H13.1049C15.781 4.28095 18.8361 3.45654 22.0823 3.45654C26.709 3.45654 30.9464 5.12679 34.2459 7.88475V8.1613H32.5398C31.9017 8.1613 31.3831 8.68013 31.3831 9.31787V17.3857C31.3831 17.5768 31.5378 17.7314 31.7288 17.7314C31.9199 17.7314 32.0745 17.5768 32.0745 17.3857V9.31787C32.0745 9.0613 32.2832 8.85265 32.5398 8.85265H34.2459V9.98837C33.6115 10.0169 33.1035 10.5373 33.1035 11.1787V13.8734V26.6953C33.1035 26.8591 33.046 26.6453 35.4505 31.1353C35.5113 31.2474 35.6281 31.317 35.755 31.317C35.8819 31.317 35.9987 31.2474 36.0595 31.1353C38.4543 26.6633 38.4065 26.8612 38.4065 26.6953V13.8734V12.7619C40.106 15.6072 41.0964 18.9224 41.0964 22.4706C41.0964 32.9543 32.5668 41.484 22.0823 41.484Z" fill="#0C4393"/>
<path d="M19.4136 10.8953H25.7279C25.9191 10.8953 26.0736 10.7407 26.0736 10.5496C26.0736 10.3585 25.9191 10.2039 25.7279 10.2039H19.4136C19.2225 10.2039 19.0679 10.3585 19.0679 10.5496C19.0679 10.7407 19.2225 10.8953 19.4136 10.8953Z" fill="#0C4393"/>
<path d="M14.0364 10.8953H16.7594C16.9505 10.8953 17.1051 10.7407 17.1051 10.5496C17.1051 10.3585 16.9505 10.2039 16.7594 10.2039H14.0364C13.8453 10.2039 13.6907 10.3585 13.6907 10.5496C13.6907 10.7407 13.8453 10.8953 14.0364 10.8953Z" fill="#0C4393"/>
<path d="M14.0364 13.5913H21.7815C21.9726 13.5913 22.1272 13.4367 22.1272 13.2456C22.1272 13.0545 21.9726 12.8999 21.7815 12.8999H14.0364C13.8453 12.8999 13.6907 13.0545 13.6907 13.2456C13.6907 13.4367 13.8453 13.5913 14.0364 13.5913Z" fill="#0C4393"/>
<path d="M7.44775 14.448H11.8575C12.0485 14.448 12.2031 14.2934 12.2031 14.1023V9.69263C12.2031 9.50158 12.0485 9.34692 11.8575 9.34692H7.44775C7.25667 9.34692 7.10205 9.50158 7.10205 9.69263V14.1023C7.10205 14.2934 7.25667 14.448 7.44775 14.448ZM7.79342 10.0383H11.5117V13.7566H7.79342V10.0383Z" fill="#0C4393"/>
<path d="M10.3477 11.0721L9.20936 11.9735L8.93387 11.6474C8.81105 11.5015 8.59227 11.484 8.44708 11.6062C8.30122 11.7291 8.28236 11.9472 8.40592 12.093L8.89747 12.675C8.96564 12.756 9.06285 12.7979 9.16145 12.7979C9.23709 12.7979 9.31267 12.7736 9.37613 12.723L10.7772 11.6136C10.9271 11.4954 10.9521 11.2781 10.8332 11.1282C10.7143 10.9789 10.497 10.9533 10.3477 11.0721Z" fill="#E53935"/>
<path d="M25.7277 18.1299H19.4133C19.2222 18.1299 19.0676 18.2845 19.0676 18.4756C19.0676 18.6666 19.2222 18.8212 19.4133 18.8212H25.7277C25.9187 18.8212 26.0734 18.6666 26.0734 18.4756C26.0734 18.2845 25.9187 18.1299 25.7277 18.1299Z" fill="#0C4393"/>
<path d="M14.0364 18.8212H16.7594C16.9505 18.8212 17.1051 18.6666 17.1051 18.4756C17.1051 18.2845 16.9505 18.1299 16.7594 18.1299H14.0364C13.8453 18.1299 13.6907 18.2845 13.6907 18.4756C13.6907 18.6666 13.8453 18.8212 14.0364 18.8212Z" fill="#0C4393"/>
<path d="M14.0364 21.5173H21.7815C21.9726 21.5173 22.1272 21.3628 22.1272 21.1716C22.1272 20.9806 21.9726 20.8259 21.7815 20.8259H14.0364C13.8453 20.8259 13.6907 20.9806 13.6907 21.1716C13.6907 21.3628 13.8453 21.5173 14.0364 21.5173Z" fill="#0C4393"/>
<path d="M7.44775 22.3741H11.8575C12.0485 22.3741 12.2031 22.2194 12.2031 22.0284V17.6194C12.2031 17.4283 12.0485 17.2737 11.8575 17.2737H7.44775C7.25667 17.2737 7.10205 17.4283 7.10205 17.6194V22.0284C7.10205 22.2194 7.25667 22.3741 7.44775 22.3741ZM7.79342 17.9651H11.5117V21.6827H7.79342V17.9651Z" fill="#0C4393"/>
<path d="M10.3477 18.9981L9.20936 19.8995L8.93387 19.5734C8.81105 19.4275 8.59227 19.4107 8.44708 19.5322C8.30122 19.6551 8.28236 19.8732 8.40592 20.019L8.89747 20.6017C8.96564 20.6828 9.06285 20.7246 9.16145 20.7246C9.23709 20.7246 9.31267 20.7003 9.37613 20.6497L10.7772 19.5397C10.9271 19.4215 10.9521 19.2041 10.8332 19.0542C10.7143 18.9036 10.497 18.8786 10.3477 18.9981Z" fill="#E53935"/>
<path d="M25.7277 26.0566H19.4133C19.2222 26.0566 19.0676 26.2113 19.0676 26.4023C19.0676 26.5935 19.2222 26.7481 19.4133 26.7481H25.7277C25.9187 26.7481 26.0734 26.5935 26.0734 26.4023C26.0734 26.2113 25.9187 26.0566 25.7277 26.0566Z" fill="#0C4393"/>
<path d="M14.0364 26.7481H16.7594C16.9505 26.7481 17.1051 26.5935 17.1051 26.4023C17.1051 26.2113 16.9505 26.0566 16.7594 26.0566H14.0364C13.8453 26.0566 13.6907 26.2113 13.6907 26.4023C13.6907 26.5935 13.8453 26.7481 14.0364 26.7481Z" fill="#0C4393"/>
<path d="M14.0364 29.4441H21.7815C21.9726 29.4441 22.1272 29.2894 22.1272 29.0984C22.1272 28.9073 21.9726 28.7527 21.7815 28.7527H14.0364C13.8453 28.7527 13.6907 28.9073 13.6907 29.0984C13.6907 29.2894 13.8453 29.4441 14.0364 29.4441Z" fill="#0C4393"/>
<path d="M11.8575 30.3003C12.0485 30.3003 12.2031 30.1457 12.2031 29.9546V25.5457C12.2031 25.3545 12.0485 25.2 11.8575 25.2H7.44775C7.25667 25.2 7.10205 25.3545 7.10205 25.5457V29.9546C7.10205 30.1457 7.25667 30.3003 7.44775 30.3003H11.8575ZM7.79342 25.8913H11.5117V29.609H7.79342V25.8913Z" fill="#0C4393"/>
<path d="M10.3477 26.9244L9.20936 27.8264L8.93387 27.5003C8.81105 27.3544 8.59227 27.3369 8.44708 27.4591C8.30122 27.5819 8.28236 27.8001 8.40592 27.9459L8.89747 28.5279C8.96564 28.6089 9.06351 28.6508 9.16145 28.6508C9.23709 28.6508 9.31267 28.6265 9.37613 28.5759L10.7772 27.4658C10.9271 27.3477 10.9521 27.1302 10.8332 26.9803C10.7143 26.8291 10.497 26.8055 10.3477 26.9244Z" fill="#E53935"/>
<path d="M1.17651 9.98779C0.985427 9.98779 0.830811 10.1424 0.830811 10.3334V15.3961C0.830811 15.5871 0.985427 15.7418 1.17651 15.7418C1.36759 15.7418 1.52221 15.5871 1.52221 15.3961V10.3334C1.52221 10.1424 1.36759 9.98779 1.17651 9.98779Z" fill="#0C4393"/>
<path d="M1.17651 7.01123C0.985427 7.01123 0.830811 7.16582 0.830811 7.35694V8.64109C0.830811 8.83221 0.985427 8.9868 1.17651 8.9868C1.36759 8.9868 1.52221 8.83221 1.52221 8.64109V7.35694C1.52221 7.16582 1.36759 7.01123 1.17651 7.01123Z" fill="#0C4393"/>
</svg>
