<svg width="46" height="45" viewBox="0 0 46 45" fill="none" xmlns="http://www.w3.org/2000/svg">
<path d="M44.2138 28.0021C44.182 28.0021 44.15 27.9978 44.1179 27.9887C43.9346 27.9357 43.8285 27.7439 43.8816 27.5606C44.4572 25.5661 44.7492 23.5092 44.7492 21.4468C44.7492 19.9215 44.5912 18.397 44.2793 16.9152C44.2398 16.7282 44.3596 16.5449 44.5463 16.5057C44.7333 16.4666 44.9167 16.586 44.9558 16.7727C45.2775 18.3014 45.4406 19.8739 45.4406 21.4468C45.4406 23.574 45.1394 25.6954 44.5459 27.7524C44.5021 27.9037 44.364 28.0021 44.2138 28.0021Z" fill="#0C4393"/>
<path d="M44.043 15.0156C43.8965 15.0156 43.7605 14.9221 43.7135 14.775C43.5171 14.1589 43.2902 13.5437 43.0391 12.9469C42.9651 12.771 43.0478 12.568 43.2236 12.4941C43.3993 12.4215 43.6022 12.5023 43.6764 12.6788C43.9353 13.2943 44.1696 13.929 44.3726 14.565C44.4303 14.7469 44.33 14.9413 44.1481 14.9994C44.1133 15.0106 44.0778 15.0156 44.043 15.0156Z" fill="#0C4393"/>
<path d="M39.5608 8.18726H11.3755C11.0406 8.18726 10.769 8.45878 10.769 8.7937V10.5619C10.769 10.8969 11.0406 11.1684 11.3755 11.1684H39.5608C39.8958 11.1684 40.1673 10.8969 40.1673 10.5619V8.7937C40.1673 8.45878 39.8958 8.18726 39.5608 8.18726Z" fill="white"/>
<path d="M35.8014 32.0674H15.1344C13.4799 32.0674 12.1387 30.7262 12.1387 29.0716V11.1685H38.7972V29.0716C38.7972 30.7262 37.4559 32.0674 35.8014 32.0674Z" fill="white"/>
<path d="M13.7745 35.453C3.6731 28.8983 6.10633 19.0931 6.10633 19.0931C11.7991 19.2637 13.7745 15.8606 13.7745 15.8606C13.7745 15.8606 15.7499 19.2637 21.4336 19.0931C21.4336 19.0931 23.867 28.8983 13.7745 35.453Z" fill="white"/>
<path d="M17.1955 25.6567C17.1955 27.5514 15.6691 29.0867 13.7745 29.0867C11.8799 29.0867 10.3445 27.5514 10.3445 25.6567C10.3445 23.7622 11.8799 22.2268 13.7745 22.2268C15.6691 22.2268 17.1955 23.7622 17.1955 25.6567Z" fill="#E53935"/>
<path d="M28.8815 16.3323L27.1782 14.629L25.4698 16.3323H25.4661L23.7629 14.629L22.0544 16.3323V11.2041H28.8815V16.3323Z" fill="#E53935"/>
<path d="M13.6125 1.32314C13.7868 1.24487 13.8641 1.03994 13.7854 0.866057C13.7067 0.691895 13.5022 0.613214 13.3283 0.693209C6.91532 3.58808 2.12312 9.38498 0.509467 16.1996C0.465218 16.3853 0.580335 16.5717 0.766044 16.6156C0.792663 16.622 0.819697 16.625 0.846039 16.625C1.00264 16.625 1.14444 16.518 1.18192 16.359C2.74703 9.7516 7.39407 4.13062 13.6125 1.32314Z" fill="#0C4393"/>
<path d="M35.4239 39.4561C31.6763 42.1211 27.2645 43.5296 22.6665 43.5296C20.0916 43.5296 17.5661 43.0846 15.1604 42.2069C14.9807 42.141 14.7829 42.2338 14.7171 42.4131C14.6516 42.5924 14.7441 42.7909 14.9234 42.8563C17.4054 43.7618 20.0106 44.221 22.6665 44.221C27.409 44.221 31.9592 42.7683 35.8243 40.0199C35.9799 39.9092 36.0164 39.6934 35.906 39.5378C35.7952 39.3825 35.5795 39.3461 35.4239 39.4561Z" fill="#0C4393"/>
<path d="M12.6353 41.1022C11.8974 40.7227 11.1712 40.2959 10.4771 39.8341C10.3184 39.7271 10.103 39.7706 9.99802 39.9304C9.89201 40.089 9.93522 40.3037 10.0942 40.4094C10.4206 40.6268 12.2113 41.7554 12.4769 41.7554C12.6026 41.7554 12.7234 41.6868 12.7849 41.5677C12.8719 41.3978 12.8052 41.1896 12.6353 41.1022Z" fill="#0C4393"/>
<path d="M39.9414 11.4308C40.8433 11.0443 40.4035 9.98004 40.5153 8.79654C40.5153 8.2711 40.0866 7.84247 39.5612 7.84247H37.2865C33.6359 3.92222 28.4297 1.46777 22.6635 1.46777C11.6495 1.46777 2.68213 10.4283 2.68213 21.4491C2.68213 32.463 11.6495 41.4305 22.6635 41.4305C33.6843 41.4305 42.6448 32.463 42.6448 21.4491C42.6448 17.7985 41.663 14.3761 39.9414 11.4308ZM39.5612 8.53382C39.7064 8.53382 39.8239 8.65135 39.8239 8.79654C39.7526 10.0974 40.009 10.8007 39.575 10.8223C30.6202 10.8223 21.4853 10.8223 11.373 10.8223C11.2347 10.8223 11.1171 10.7048 11.1171 10.5596V8.79654C11.1171 8.65135 11.2347 8.53382 11.373 8.53382H39.5612ZM38.455 27.2868H23.8873C23.6962 27.2868 23.5416 27.4414 23.5416 27.6325C23.5416 27.8236 23.6962 27.9783 23.8873 27.9783H38.455V29.0683C38.455 30.5341 37.2658 31.7232 35.8 31.7232H18.4874C19.49 30.4787 20.2228 29.2066 20.7483 27.9759H21.6402C21.8338 27.9759 21.9859 27.8238 21.9859 27.6302C21.9859 27.4435 21.8338 27.2845 21.6402 27.2845H21.0179C22.6704 22.8457 21.7854 19.0707 21.7716 19.0085C21.7301 18.8495 21.6056 18.7527 21.4258 18.7458C16.0399 18.9186 14.1455 15.8142 14.0764 15.6829C13.9519 15.4755 13.5993 15.4755 13.4748 15.6829C13.4471 15.7312 13.1499 16.2221 12.4861 16.796V11.5137H21.7093V16.3328C21.7093 16.4711 21.7923 16.5955 21.9237 16.6508C22.0481 16.7062 22.2002 16.6785 22.2971 16.5748L23.7628 15.1159L25.2217 16.5748C25.353 16.7062 25.5811 16.7062 25.7126 16.5748L27.1783 15.1159L28.6372 16.5748C28.7062 16.6439 28.7892 16.6785 28.8791 16.6785C28.9275 16.6785 28.969 16.6715 29.0174 16.6508C29.1418 16.5955 29.2248 16.4711 29.2248 16.3328V11.5137H38.455V27.2868ZM13.7721 35.0419C5.12967 29.3034 6.11145 21.0343 6.38801 19.4441C9.9081 19.484 12.4229 18.144 13.7721 16.4573C14.505 17.3699 16.6414 19.4441 21.0249 19.4441H21.1493C22.1136 24.8667 19.8368 31.0211 13.7721 35.0419ZM28.5334 11.5484V15.4962L27.4203 14.383C27.2889 14.2517 27.0677 14.2517 26.9363 14.383L25.4706 15.8488L24.0048 14.383C23.9425 14.3139 23.8527 14.2863 23.7628 14.2863C23.6729 14.2863 23.5899 14.3139 23.5208 14.383L22.4008 15.4962V11.5484H28.5334ZM22.6635 40.7391C12.0298 40.7391 3.37353 32.0828 3.37353 21.4491C3.37353 10.8085 12.0298 2.15917 22.6635 2.15917C27.9941 2.15917 32.8339 4.33015 36.3255 7.84247H11.373C10.8475 7.84247 10.4258 8.2711 10.4258 8.79654V10.5596C10.4258 11.0851 10.8475 11.5137 11.373 11.5137H11.7947V17.3215C10.6401 18.0889 8.8148 18.8287 6.11837 18.7458C5.93169 18.7527 5.80724 18.8495 5.77267 19.0085C5.74501 19.1122 3.39427 29.1305 13.5855 35.7403C13.6408 35.7817 13.7099 35.7955 13.7721 35.7955C13.8412 35.7955 13.9035 35.7817 13.9657 35.7403C15.5698 34.6963 16.8626 33.5693 17.8998 32.4147H35.8C37.646 32.4147 39.1464 30.9143 39.1464 29.0683V11.5137H39.1878C40.944 14.4176 41.9534 17.8124 41.9534 21.4491C41.9534 32.0828 33.3041 40.7391 22.6635 40.7391Z" fill="#0C4393"/>
<path d="M15.0857 24.6365L13.2327 25.9156L12.5413 24.9753C12.5276 24.9545 12.5068 24.9338 12.4861 24.9131C12.3685 24.8163 12.1887 24.8093 12.0574 24.9061C11.9053 25.0168 11.8707 25.238 11.9813 25.3901L12.4861 26.0677L12.8802 26.6C12.9424 26.6899 13.053 26.7384 13.1567 26.7384C13.2259 26.7384 13.295 26.7176 13.3503 26.6761L15.4798 25.2035C15.6388 25.0997 15.6734 24.8854 15.5697 24.7264C15.459 24.5674 15.2447 24.5328 15.0857 24.6365Z" fill="#0C4393"/>
<path d="M22.241 6.41137H28.4578C28.6489 6.41137 28.8035 6.25677 28.8035 6.06567C28.8035 5.87464 28.6489 5.71997 28.4578 5.71997H22.241C22.0499 5.71997 21.8953 5.87464 21.8953 6.06567C21.8953 6.25677 22.0499 6.41137 22.241 6.41137Z" fill="#0C4393"/>
<path d="M17.8064 6.41137H19.8824C20.0733 6.41137 20.2281 6.25677 20.2281 6.06567C20.2281 5.87464 20.0733 5.71997 19.8824 5.71997H17.8064C17.6154 5.71997 17.4607 5.87464 17.4607 6.06567C17.4607 6.25677 17.6154 6.41137 17.8064 6.41137Z" fill="#0C4393"/>
</svg>
