<svg width="46" height="45" viewBox="0 0 46 45" fill="none" xmlns="http://www.w3.org/2000/svg">
<path d="M44.285 27.9899C44.24 27.9899 44.24 27.9899 44.195 27.9899C44.015 27.9449 43.925 27.7649 43.97 27.5399C44.555 25.5599 44.825 23.4899 44.825 21.4199C44.825 19.8899 44.645 18.3599 44.375 16.8749C44.33 16.6949 44.465 16.5149 44.645 16.4699C44.825 16.4249 45.005 16.5599 45.05 16.7399C45.365 18.2699 45.545 19.8449 45.545 21.4199C45.545 23.5349 45.23 25.6949 44.645 27.7199C44.555 27.8999 44.42 27.9899 44.285 27.9899Z" fill="#0C4393"/>
<path d="M44.1049 14.985C43.9699 14.985 43.8349 14.895 43.7899 14.76C43.6099 14.13 43.3849 13.545 43.1149 12.915C43.0249 12.735 43.1149 12.555 43.2949 12.465C43.4749 12.375 43.6549 12.465 43.7449 12.645C44.0149 13.275 44.2399 13.905 44.4199 14.535C44.4649 14.715 44.3749 14.895 44.1949 14.985C44.1499 14.985 44.1499 14.985 44.1049 14.985Z" fill="#0C4393"/>
<path d="M39.6049 8.18994H11.3899C11.0749 8.18994 10.8049 8.45994 10.8049 8.77494V10.5299C10.8049 10.8449 11.0749 11.1149 11.3899 11.1149H39.6049C39.9199 11.1149 40.1899 10.8449 40.1899 10.5299V8.77494C40.2349 8.45994 39.9649 8.18994 39.6049 8.18994Z" fill="white"/>
<path d="M35.87 32.0849H15.17C13.505 32.0849 12.155 30.7349 12.155 29.0699V11.1599H38.84V29.0699C38.84 30.7349 37.49 32.0849 35.87 32.0849Z" fill="white"/>
<path d="M13.7751 35.4601C3.69506 28.8901 6.12506 19.0801 6.12506 19.0801C11.8401 19.2601 13.8201 15.8401 13.8201 15.8401C13.8201 15.8401 15.8001 19.2601 21.4701 19.0801C21.4701 19.0801 23.9001 28.8901 13.7751 35.4601Z" fill="white"/>
<path d="M17.2399 25.65C17.2399 27.54 15.7099 29.07 13.8199 29.07C11.9299 29.07 10.3999 27.54 10.3999 25.65C10.3999 23.76 11.9299 22.23 13.8199 22.23C15.7099 22.23 17.2399 23.76 17.2399 25.65Z" fill="#E53935"/>
<path d="M28.9401 16.3351L27.2301 14.6251L25.5201 16.3351L23.8101 14.6251L22.1001 16.3351V11.2051H28.9401V16.3351Z" fill="#E53935"/>
<path d="M13.6399 1.30496C13.8199 1.21496 13.9099 1.03496 13.8199 0.854956C13.7299 0.674956 13.5499 0.584956 13.3699 0.674956C6.93493 3.55496 2.11993 9.35996 0.499933 16.2C0.454933 16.38 0.589933 16.56 0.769933 16.605C0.814933 16.605 0.814933 16.605 0.859933 16.605C0.994933 16.605 1.17493 16.515 1.17493 16.335C2.74993 9.71996 7.38493 4.09496 13.6399 1.30496Z" fill="#0C4393"/>
<path d="M35.465 39.4649C31.73 42.1199 27.275 43.5599 22.685 43.5599C20.12 43.5599 17.6 43.1099 15.17 42.2549C14.99 42.2099 14.81 42.2999 14.72 42.4799C14.675 42.6599 14.765 42.8399 14.945 42.9299C17.42 43.8299 20.03 44.2799 22.685 44.2799C27.455 44.2799 32 42.8399 35.87 40.0949C36.005 40.0049 36.05 39.7799 35.96 39.5999C35.825 39.4199 35.645 39.3749 35.465 39.4649Z" fill="#0C4393"/>
<path d="M12.6501 41.1301C11.9301 40.7701 11.1651 40.3201 10.4901 39.8701C10.3101 39.7801 10.1301 39.8251 9.99507 39.9601C9.90507 40.1401 9.95007 40.3201 10.0851 40.4551C10.4001 40.6801 12.2001 41.8051 12.4701 41.8051C12.6051 41.8051 12.6951 41.7151 12.7851 41.6251C12.8751 41.4001 12.8301 41.2201 12.6501 41.1301Z" fill="#0C4393"/>
<path d="M40.0101 11.4299C40.9101 11.0249 40.4601 9.98994 40.5951 8.77494C40.5951 8.23494 40.1451 7.82994 39.6501 7.82994H37.3551C33.6651 3.91494 28.4451 1.43994 22.6851 1.43994C11.6601 1.43994 2.70508 10.3949 2.70508 21.4649C2.70508 32.4899 11.7051 41.4899 22.7301 41.4899C33.7551 41.4899 42.7551 32.4899 42.7551 21.4649C42.7101 17.7749 41.7201 14.3549 40.0101 11.4299ZM39.6051 8.50494C39.7401 8.50494 39.8751 8.63994 39.8751 8.77494C39.7851 10.0799 40.0551 10.7999 39.6051 10.7999C30.6501 10.7999 21.4701 10.7999 11.3451 10.7999C11.2101 10.7999 11.0751 10.6649 11.0751 10.5299V8.77494C11.0751 8.63994 11.2101 8.50494 11.3451 8.50494H39.6051ZM38.5251 27.2699H23.9001C23.7201 27.2699 23.5401 27.4049 23.5401 27.6299C23.5401 27.8099 23.6751 27.9899 23.9001 27.9899H38.4801V29.0699C38.4801 30.5549 37.3101 31.7249 35.8251 31.7249H18.5001C19.4901 30.4649 20.2551 29.2049 20.7501 27.9899H21.6501C21.8301 27.9899 22.0101 27.8549 22.0101 27.6299C22.0101 27.4499 21.8751 27.2699 21.6501 27.2699H21.0201C22.6851 22.8149 21.7851 19.0349 21.7851 18.9899C21.7401 18.8099 21.6051 18.7199 21.4251 18.7199C16.0251 18.8999 14.1351 15.7949 14.0451 15.6599C13.9101 15.4349 13.5501 15.4349 13.4601 15.6599C13.4151 15.7049 13.1451 16.1999 12.4701 16.7849V11.5199H21.6951V16.3349C21.6951 16.4699 21.7851 16.6049 21.9201 16.6499C22.0551 16.6949 22.1901 16.6949 22.2801 16.5599L23.7651 15.1199L25.2051 16.5599C25.3401 16.6949 25.5651 16.6949 25.7001 16.5599L27.1851 15.1199L28.6251 16.5599C28.7151 16.6499 28.7601 16.6499 28.8501 16.6499C28.8951 16.6499 28.9401 16.6499 28.9851 16.6049C29.1201 16.5599 29.2101 16.4249 29.2101 16.2899V11.5199H38.4351V27.2699H38.5251ZM13.7751 35.0549C5.13508 29.2949 6.12508 21.0149 6.39508 19.4399C9.90508 19.4849 12.4251 18.1349 13.7751 16.4699C14.4951 17.3699 16.6551 19.4399 21.0201 19.4399H21.1551C22.1451 24.8849 19.8501 31.0499 13.7751 35.0549ZM28.5801 11.5199V15.4799L27.4551 14.3549C27.3201 14.2199 27.0951 14.2199 26.9601 14.3549L25.4751 15.8399L23.9901 14.3549C23.9451 14.2649 23.8551 14.2649 23.7651 14.2649C23.6751 14.2649 23.5851 14.3099 23.5401 14.3549L22.4151 15.4799V11.5199H28.5801ZM22.6851 40.7699C12.0201 40.7699 3.38008 32.0849 3.38008 21.4649C3.38008 10.7999 12.0651 2.11494 22.6851 2.11494C28.0401 2.11494 32.8551 4.27494 36.3651 7.78494H11.3901C10.8501 7.78494 10.4451 8.23494 10.4451 8.72994V10.4849C10.4451 11.0249 10.8501 11.4299 11.3901 11.4299H11.7951V17.2349C10.6251 17.9999 8.82508 18.7649 6.12508 18.6749C5.94508 18.6749 5.81008 18.7649 5.76508 18.9449C5.72008 19.0349 3.38008 29.0699 13.5951 35.6849C13.6401 35.7299 13.7301 35.7299 13.7751 35.7299C13.8651 35.7299 13.9101 35.7299 13.9551 35.6849C15.5751 34.6499 16.8351 33.5249 17.9151 32.3549H35.8251C37.6701 32.3549 39.1551 30.8699 39.1551 29.0249V11.5199H39.2001C40.9551 14.4449 41.9901 17.8199 41.9901 21.4649C41.9901 32.0849 33.3501 40.7699 22.6851 40.7699Z" fill="#0C4393"/>
<path d="M15.125 24.66L13.28 25.92L12.605 24.975L12.56 24.93C12.425 24.84 12.245 24.84 12.11 24.93C11.975 25.02 11.93 25.245 12.02 25.425L12.515 26.1L12.92 26.64C12.965 26.73 13.1 26.775 13.19 26.775C13.28 26.775 13.325 26.775 13.37 26.73L15.485 25.245C15.665 25.155 15.665 24.93 15.575 24.75C15.485 24.57 15.26 24.525 15.125 24.66Z" fill="#0C4393"/>
<path d="M22.2799 6.38992H28.4899C28.6699 6.38992 28.8499 6.25492 28.8499 6.02992C28.8499 5.84992 28.7149 5.66992 28.4899 5.66992H22.2799C22.0999 5.66992 21.9199 5.80492 21.9199 6.02992C21.9199 6.25492 22.0999 6.38992 22.2799 6.38992Z" fill="#0C4393"/>
<path d="M17.8251 6.38992H19.8951C20.0751 6.38992 20.2551 6.25492 20.2551 6.02992C20.2551 5.84992 20.1201 5.66992 19.8951 5.66992H17.8251C17.6451 5.66992 17.4651 5.80492 17.4651 6.02992C17.4651 6.25492 17.6451 6.38992 17.8251 6.38992Z" fill="#0C4393"/>
</svg>
