<svg width="46" height="45" viewBox="0 0 46 45" fill="none" xmlns="http://www.w3.org/2000/svg">
<path d="M44.0601 34.8751V37.3051H6.5301C5.8101 37.3051 5.2251 36.7201 5.2251 36.0001V34.8301H44.0601V34.8751Z" fill="white"/>
<path d="M31.3701 18.3599V34.8749H5.2251V18.3599C5.2251 17.0999 6.2601 16.0649 7.5201 16.0649H29.0301C30.3351 16.0649 31.3701 17.0999 31.3701 18.3599Z" fill="white"/>
<path d="M43.2501 29.2951V34.8751H31.3701V22.3201H37.8051L40.0551 26.5501L43.2501 29.2951Z" fill="white"/>
<path d="M37.8049 28.2151H34.1599V25.1101H36.0949L37.8049 28.2151Z" fill="#E53935"/>
<path d="M40.73 36.5851C40.73 38.6551 39.065 40.3201 36.995 40.3201C34.925 40.3201 33.26 38.6551 33.26 36.5851C33.26 34.5151 34.925 32.8501 36.995 32.8501C39.065 32.8501 40.73 34.5151 40.73 36.5851Z" fill="#E53935"/>
<path d="M18.3201 36.5851C18.3201 38.6551 16.6551 40.3201 14.5851 40.3201C12.5151 40.3201 10.8501 38.6551 10.8501 36.5851C10.8501 34.5151 12.5151 32.8501 14.5851 32.8501C16.6551 32.8501 18.3201 34.5151 18.3201 36.5851Z" fill="#E53935"/>
<path d="M38.3901 36.5849C38.3901 37.3499 37.7601 37.9799 36.9951 37.9799C36.2301 37.9799 35.6001 37.3499 35.6001 36.5849C35.6001 35.8199 36.2301 35.1899 36.9951 35.1899C37.7601 35.1899 38.3901 35.7749 38.3901 36.5849Z" fill="white"/>
<path d="M15.9799 36.585C15.9799 37.35 15.3499 37.98 14.5849 37.98C13.8199 37.98 13.1899 37.35 13.1899 36.585C13.1899 35.82 13.8199 35.19 14.5849 35.19C15.3499 35.145 15.9799 35.775 15.9799 36.585Z" fill="white"/>
<path d="M43.4751 15.6149C43.5201 15.7949 43.7451 15.8849 43.9251 15.8399C44.1051 15.7949 44.1951 15.5699 44.1501 15.3899C43.0701 12.0149 41.2251 8.95491 38.7501 6.47991C38.6151 6.34491 38.3901 6.34491 38.2551 6.47991C38.1201 6.61491 38.1201 6.83991 38.2551 6.97491C40.6401 9.40491 42.4401 12.3749 43.4751 15.6149Z" fill="#0C4393"/>
<path d="M44.9149 18.4501C44.8699 18.2701 44.6899 18.1351 44.5099 18.1801C44.3299 18.2251 44.1949 18.4051 44.2399 18.5851C44.3749 19.3501 44.4649 20.1151 44.5099 20.8351C44.5099 21.0151 44.6899 21.1501 44.8699 21.1501C44.8699 21.1501 44.8699 21.1501 44.9149 21.1501C45.0949 21.1501 45.2749 20.9701 45.2299 20.7901C45.1399 20.0251 45.0499 19.2151 44.9149 18.4501Z" fill="#0C4393"/>
<path d="M29.9751 43.0651C26.5551 44.2801 22.8201 44.6401 19.2201 44.0101C19.0401 43.9651 18.8601 44.1001 18.8151 44.2801C18.7701 44.4601 18.9051 44.6401 19.0851 44.6851C20.3001 44.9101 21.5151 45.0001 22.7301 45.0001C25.2501 45.0001 27.7701 44.5501 30.2001 43.6951C30.3801 43.6501 30.4701 43.4251 30.4251 43.2451C30.3801 43.0651 30.1551 42.9751 29.9751 43.0651Z" fill="#0C4393"/>
<path d="M12.6949 2.74499C12.8749 2.65499 12.9199 2.42999 12.8299 2.29499C12.7399 2.11499 12.5149 2.06999 12.3799 2.15999C6.66492 5.03999 2.43492 10.17 0.679925 16.2C0.634925 16.38 0.724925 16.56 0.904925 16.65C1.08492 16.695 1.26492 16.605 1.35492 16.425C3.01992 10.53 7.15992 5.57999 12.6949 2.74499Z" fill="#0C4393"/>
<path d="M16.97 1.1251C17.6 0.945098 18.23 0.810099 18.86 0.720099C19.04 0.675099 19.175 0.495099 19.13 0.315099C19.085 0.135099 18.905 9.86233e-05 18.725 0.0450986C18.05 0.135099 17.42 0.315099 16.745 0.450099C16.565 0.495099 16.43 0.675099 16.475 0.900099C16.61 1.0351 16.79 1.1701 16.97 1.1251Z" fill="#0C4393"/>
<path d="M44.06 34.5151H43.61V29.2951C43.61 29.2051 43.565 29.1151 43.475 29.0251L41.81 27.5851C42.26 25.9201 42.485 24.2101 42.485 22.4101C42.485 11.4301 33.53 2.4751 22.55 2.4751C11.57 2.4751 2.61499 11.4301 2.61499 22.4101C2.61499 25.6501 3.42499 28.8001 4.86499 31.6351V34.8751V36.0001C4.86499 36.9001 5.58499 37.6201 6.48499 37.6201H10.58C10.85 38.5651 11.435 39.3751 12.245 39.9601H8.59999C8.41999 39.9601 8.23999 40.0951 8.23999 40.3201C8.23999 40.5001 8.37499 40.6801 8.59999 40.6801H14.585C14.63 40.6801 14.63 40.7251 14.675 40.7251C17.15 41.8051 19.85 42.3451 22.595 42.3451C25.43 42.3451 28.13 41.7601 30.605 40.6801H43.25C43.43 40.6801 43.61 40.5451 43.61 40.3201C43.61 40.1401 43.475 39.9601 43.25 39.9601H39.245C40.055 39.4201 40.64 38.6101 40.91 37.6201H44.015C44.195 37.6201 44.375 37.4851 44.375 37.2601V34.8301C44.42 34.6501 44.24 34.5151 44.06 34.5151ZM42.89 29.4751V34.5151H40.505C39.83 33.3451 38.48 32.4901 36.995 32.4901C35.465 32.4901 34.16 33.3001 33.485 34.5151H31.73V22.6351H37.58L39.74 26.6851C39.74 26.7301 39.785 26.7751 39.83 26.7751L41 27.8101L41.585 28.3051L42.89 29.4751ZM32.9 36.9451H18.635C18.68 36.4051 18.635 35.8201 18.41 35.1901H33.125C32.99 35.5951 32.9 36.0901 32.9 36.5401C32.9 36.6751 32.9 36.8101 32.9 36.9451ZM3.33499 22.4101C3.33499 11.7901 11.975 3.1951 22.55 3.1951C33.125 3.1951 41.765 11.8351 41.765 22.4101C41.765 24.0301 41.585 25.5601 41.18 27.0901L40.28 26.3251L38.03 22.1401C37.985 22.0051 37.85 21.9601 37.715 21.9601H31.73V18.3601C31.73 16.9201 30.56 15.7051 29.075 15.7051H7.51999C6.07999 15.7051 4.86499 16.8751 4.86499 18.3601V30.0151C3.87499 27.6301 3.33499 25.0651 3.33499 22.4101ZM5.58499 18.3601C5.58499 17.2801 6.43999 16.4251 7.51999 16.4251H29.03C30.11 16.4251 30.965 17.2801 30.965 18.3601V34.5151H18.095C17.375 33.3001 16.07 32.4901 14.585 32.4901C13.1 32.4901 11.75 33.3001 11.075 34.5151C10.94 34.5151 5.49499 34.5151 5.62999 34.5151C5.58499 28.4851 5.58499 24.2101 5.58499 18.3601ZM6.52999 36.9451C5.98999 36.9451 5.58499 36.5401 5.58499 36.0001V35.1901C5.76499 35.1901 10.985 35.1901 10.67 35.1901C10.445 35.7751 10.4 36.4051 10.445 36.9451C10.4 36.9451 6.43999 36.9451 6.52999 36.9451ZM11.165 36.9451C10.85 35.1901 12.38 33.1651 14.54 33.1651C16.7 33.1651 18.23 35.1451 17.915 36.9451C17.78 38.5201 16.385 39.9601 14.54 39.9601C12.74 39.9601 11.3 38.5651 11.165 36.9451ZM16.835 39.9601C17.645 39.4201 18.23 38.6101 18.5 37.6201H33.035C33.08 37.8901 33.215 38.1151 33.305 38.3401C31.91 39.2851 30.875 39.7351 30.425 39.9601H16.835ZM22.55 41.6701C20.48 41.6701 18.41 41.3551 16.475 40.6801H28.625C26.735 41.3101 24.665 41.6701 22.55 41.6701ZM32 39.9601C32.225 39.8251 32.765 39.5551 33.665 38.9701C33.935 39.3751 34.295 39.6901 34.7 39.9601H32ZM36.995 39.9601C35.105 39.9601 33.575 38.4301 33.575 36.5401C33.575 34.6501 35.15 33.1651 36.995 33.1651C38.975 33.1651 40.595 34.8751 40.37 36.9451C40.145 38.6551 38.75 39.9601 36.995 39.9601ZM43.7 36.9451H41.045C41.09 36.4051 41.045 35.7751 40.82 35.1901H43.25H43.7V36.9451Z" fill="#0C4393"/>
<path d="M36.41 24.93C36.3651 24.795 36.23 24.75 36.095 24.75H34.1601C33.9801 24.75 33.8 24.93 33.8 25.11V28.215C33.8 28.395 33.9351 28.575 34.1601 28.575H37.805C37.985 28.575 38.165 28.44 38.165 28.215C38.165 28.125 38.12 28.035 38.075 27.99L36.41 24.93ZM34.52 27.855V25.425H35.915L37.22 27.855H34.52Z" fill="#0C4393"/>
<path d="M36.995 34.8301C36.05 34.8301 35.24 35.6401 35.24 36.5851C35.24 37.5301 36.05 38.3401 36.995 38.3401C37.985 38.3401 38.75 37.5301 38.75 36.5851C38.75 35.5951 37.94 34.8301 36.995 34.8301ZM36.995 37.6201C36.365 37.6201 35.96 37.0801 35.96 36.5401C35.96 35.9551 36.455 35.5051 36.995 35.5051C37.535 35.5051 38.03 35.9551 38.03 36.5401C38.03 37.1701 37.58 37.6201 36.995 37.6201Z" fill="#0C4393"/>
<path d="M16.2499 36.9451C16.4749 35.8201 15.6199 34.8301 14.5399 34.8301C13.4149 34.8301 12.6049 35.8651 12.8299 36.9451C13.0099 37.7101 13.6849 38.3401 14.5399 38.3401C15.3949 38.3401 16.1149 37.7101 16.2499 36.9451ZM14.5399 35.5051C15.2149 35.5051 15.7999 36.1801 15.5299 36.9451C15.3949 37.3501 14.9899 37.6201 14.5399 37.6201C14.0899 37.6201 13.7299 37.3501 13.5499 36.9451C13.2799 36.1801 13.8649 35.5051 14.5399 35.5051Z" fill="#0C4393"/>
<path d="M5.45002 39.96H2.25502C2.07502 39.96 1.89502 40.095 1.89502 40.32C1.89502 40.5 2.03002 40.68 2.25502 40.68H5.45002C5.63002 40.68 5.81002 40.545 5.81002 40.32C5.81002 40.14 5.63002 39.96 5.45002 39.96Z" fill="#0C4393"/>
<path d="M15.5299 30.195C16.3399 30.195 17.0149 29.52 17.0149 28.71V20.88C17.0149 20.07 16.3399 19.395 15.5299 19.395C14.7199 19.395 14.0449 20.07 14.0449 20.88V28.755C14.0899 29.52 14.7199 30.195 15.5299 30.195ZM14.7649 20.88C14.7649 20.43 15.1249 20.115 15.5299 20.115C15.9799 20.115 16.2949 20.475 16.2949 20.88V28.755C16.2949 29.16 15.9349 29.52 15.5299 29.52C15.1249 29.52 14.7649 29.16 14.7649 28.755V20.88Z" fill="#0C4393"/>
<path d="M26.5551 30.195C27.3651 30.195 28.0401 29.52 28.0401 28.71V20.88C28.0401 20.07 27.3651 19.395 26.5551 19.395C25.7451 19.395 25.0701 20.07 25.0701 20.88V28.755C25.0701 29.52 25.7451 30.195 26.5551 30.195ZM25.7901 20.88C25.7901 20.43 26.1501 20.115 26.5551 20.115C27.0051 20.115 27.3201 20.475 27.3201 20.88V28.755C27.3201 29.16 26.9601 29.52 26.5551 29.52C26.1501 29.52 25.7901 29.16 25.7901 28.755V20.88Z" fill="#0C4393"/>
<path d="M21.0651 30.195C21.8751 30.195 22.5501 29.52 22.5501 28.71V20.88C22.5501 20.07 21.8751 19.395 21.0651 19.395C20.2551 19.395 19.5801 20.07 19.5801 20.88V28.755C19.5801 29.52 20.2551 30.195 21.0651 30.195ZM20.2551 20.88C20.2551 20.43 20.6151 20.115 21.0201 20.115C21.4701 20.115 21.7851 20.475 21.7851 20.88V28.755C21.7851 29.16 21.4251 29.52 21.0201 29.52C20.6151 29.52 20.2551 29.16 20.2551 28.755V20.88Z" fill="#0C4393"/>
<path d="M10.0399 30.195C10.8499 30.195 11.5249 29.52 11.5249 28.71V20.88C11.5249 20.07 10.8499 19.395 10.0399 19.395C9.22993 19.395 8.55493 20.07 8.55493 20.88V28.755C8.55493 29.52 9.22993 30.195 10.0399 30.195ZM9.27493 20.88C9.27493 20.43 9.63493 20.115 10.0399 20.115C10.4899 20.115 10.8049 20.475 10.8049 20.88V28.755C10.8049 29.16 10.4449 29.52 10.0399 29.52C9.63493 29.52 9.27493 29.16 9.27493 28.755V20.88Z" fill="#0C4393"/>
</svg>
