<svg width="31" height="30" viewBox="0 0 31 30" fill="none" xmlns="http://www.w3.org/2000/svg">
<path d="M15.5 30C23.7843 30 30.5 23.2843 30.5 15C30.5 6.71573 23.7843 0 15.5 0C7.21573 0 0.5 6.71573 0.5 15C0.5 23.2843 7.21573 30 15.5 30Z" fill="url(#paint0_linear_7_2160)"/>
<path d="M15.0002 22.0019C13.8547 21.9708 12.7015 22.0175 11.556 21.9396C9.28849 21.7994 7.68329 20.1864 7.56641 17.911C7.45732 15.7994 7.51187 13.6877 7.52745 11.576C7.53524 10.9604 7.62096 10.3526 7.82355 9.76818C8.36901 8.24091 9.4833 7.39156 11.0573 7.11883C11.5326 7.03312 12.008 7.00195 12.4833 7.00195C14.2677 7.00195 16.0443 6.99416 17.8288 7.00974C18.4677 7.01753 19.1145 7.08766 19.7223 7.30584C21.2573 7.84351 22.1067 8.95779 22.3872 10.5318C22.4729 10.9994 22.5041 11.4747 22.5041 11.9578C22.5041 13.7422 22.5119 15.5188 22.4963 17.3032C22.4885 17.9578 22.4184 18.6045 22.2002 19.2279C21.6547 20.7552 20.5405 21.6123 18.9664 21.8773C17.6495 22.0877 16.3171 21.963 15.0002 22.0019ZM8.89109 14.163C8.89109 15.0045 8.89888 15.5656 8.89109 16.1266C8.8833 16.7032 8.91446 17.2721 8.95343 17.8487C9.03135 19.1656 9.74044 20.0773 10.9638 20.4045C11.2911 20.4903 11.6339 20.537 11.969 20.5448C14.0028 20.5916 16.0365 20.5994 18.0703 20.5448C18.9586 20.5214 19.7924 20.311 20.4002 19.5864C20.9145 18.9786 21.0469 18.2383 21.0703 17.4825C21.1249 15.4721 21.1327 13.4539 21.0703 11.4435C21.0469 10.5942 20.8599 9.78377 20.182 9.16818C19.5976 8.63831 18.8807 8.45909 18.1327 8.4513C15.982 8.41234 13.8314 8.30325 11.6807 8.44351C10.9171 8.49026 10.208 8.70844 9.66252 9.30065C9.17161 9.83052 9.00797 10.4773 8.94563 11.1708C8.85213 12.2539 8.91446 13.3448 8.89109 14.163Z" fill="#F1F6FA"/>
<path d="M18.8885 14.4982C18.8885 16.6488 17.1509 18.3787 15.0002 18.3787C12.8729 18.3787 11.1353 16.641 11.1353 14.506C11.1353 12.3553 12.8729 10.6255 15.0236 10.6255C17.1587 10.6255 18.8885 12.3631 18.8885 14.4982ZM15.0314 12.0514C13.66 12.0436 12.5768 13.1034 12.569 14.467C12.5613 15.8462 13.6132 16.9294 14.9768 16.9449C16.3716 16.9527 17.4548 15.893 17.4626 14.5138C17.4626 13.1346 16.4028 12.0592 15.0314 12.0514Z" fill="#F1F6FA"/>
<path d="M18.9976 11.4203C18.4677 11.4203 18.0859 11.0306 18.0859 10.493C18.0859 9.97088 18.4911 9.56568 19.0132 9.57347C19.5119 9.57347 19.9404 10.0099 19.9404 10.5086C19.9326 11.0306 19.5274 11.4203 18.9976 11.4203Z" fill="#F1F6FA"/>
<defs>
<linearGradient id="paint0_linear_7_2160" x1="0.5" y1="3000" x2="3000.5" y2="0" gradientUnits="userSpaceOnUse">
<stop stop-color="#FEC71E"/>
<stop offset="0.5" stop-color="#F61503"/>
<stop offset="1" stop-color="#BF00A1"/>
</linearGradient>
</defs>
</svg>
