<svg width="31" height="30" viewBox="0 0 31 30" fill="none" xmlns="http://www.w3.org/2000/svg">
<path d="M15.5 30C23.7843 30 30.5 23.2843 30.5 15C30.5 6.71573 23.7843 0 15.5 0C7.21573 0 0.5 6.71573 0.5 15C0.5 23.2843 7.21573 30 15.5 30Z" fill="#7360F2"/>
<path d="M24.9879 9.6702L24.982 9.64651C24.5027 7.70918 22.3422 5.63032 20.3582 5.19783L20.3358 5.19322C17.1267 4.58102 13.8728 4.58102 10.6643 5.19322L10.6413 5.19783C8.65785 5.63032 6.49737 7.70918 6.01748 9.64651L6.01221 9.6702C5.41976 12.3757 5.41976 15.1195 6.01221 17.825L6.01748 17.8487C6.47689 19.7034 8.4765 21.6867 10.3865 22.2322V24.3947C10.3865 25.1774 11.3404 25.5619 11.8828 24.9971L14.0739 22.7195C14.5491 22.7461 15.0246 22.7609 15.5 22.7609C17.1155 22.7609 18.7316 22.6082 20.3358 22.3021L20.3582 22.2975C22.3422 21.865 24.5027 19.7861 24.982 17.8488L24.9879 17.8251C25.5803 15.1195 25.5803 12.3757 24.9879 9.6702ZM23.254 17.4327C22.934 18.6966 21.2936 20.2679 19.9902 20.5582C18.2839 20.8827 16.564 21.0214 14.8459 20.9738C14.8117 20.9729 14.7789 20.9861 14.7551 21.0106C14.5112 21.2609 13.1552 22.6529 13.1552 22.6529L11.4536 24.3993C11.3292 24.529 11.1106 24.4408 11.1106 24.2617V20.6792C11.1106 20.62 11.0684 20.5697 11.0102 20.5583L11.0092 20.5581C9.70584 20.2678 8.06606 18.6965 7.74547 17.4326C7.21226 14.9871 7.21226 12.508 7.74547 10.0625C8.06606 8.79857 9.70584 7.22725 11.0092 6.93695C13.9893 6.37017 17.0108 6.37017 19.9902 6.93695C21.2943 7.22725 22.934 8.79857 23.254 10.0625C23.7878 12.5081 23.7878 14.9872 23.254 17.4327Z" fill="#F1F6FA"/>
<path d="M18.3353 19.0863C18.1349 19.0255 17.9439 18.9846 17.7666 18.911C15.9289 18.1486 14.2376 17.165 12.898 15.6572C12.1361 14.7998 11.5399 13.8318 11.0358 12.8074C10.7968 12.3216 10.5953 11.8167 10.39 11.3152C10.2028 10.8578 10.4786 10.3853 10.7689 10.0407C11.0414 9.71725 11.392 9.46974 11.7717 9.28733C12.0681 9.14494 12.3604 9.22703 12.5768 9.47823C13.0448 10.0213 13.4745 10.5922 13.8226 11.2217C14.0366 11.6089 13.9779 12.0822 13.59 12.3457C13.4957 12.4098 13.4098 12.485 13.322 12.5573C13.245 12.6207 13.1725 12.6848 13.1197 12.7706C13.0232 12.9277 13.0186 13.1129 13.0808 13.2837C13.5591 14.5981 14.3653 15.6202 15.6883 16.1708C15.9 16.2588 16.1126 16.3614 16.3565 16.333C16.765 16.2852 16.8972 15.8372 17.1835 15.6031C17.4632 15.3744 17.8207 15.3713 18.1221 15.562C18.4235 15.7528 18.7157 15.9576 19.0062 16.1646C19.2913 16.3677 19.5751 16.5664 19.8381 16.798C20.091 17.0207 20.1781 17.3129 20.0357 17.6151C19.775 18.1686 19.3957 18.629 18.8485 18.923C18.694 19.0058 18.5095 19.0327 18.3353 19.0863C18.5095 19.0327 18.1349 19.0255 18.3353 19.0863Z" fill="#F1F6FA"/>
<path d="M15.5051 8.6545C17.9089 8.72185 19.8831 10.3171 20.3062 12.6935C20.3783 13.0984 20.404 13.5124 20.436 13.9233C20.4495 14.0962 20.3516 14.2604 20.1651 14.2627C19.9724 14.265 19.8857 14.1038 19.8732 13.931C19.8484 13.5889 19.8313 13.2454 19.7841 12.9062C19.5353 11.1156 18.1075 9.63416 16.3252 9.31628C16.057 9.26842 15.7825 9.25585 15.5108 9.22734C15.3391 9.20931 15.1141 9.1989 15.0761 8.98542C15.0441 8.80644 15.1952 8.66392 15.3656 8.65477C15.412 8.6522 15.4586 8.65431 15.5051 8.6545C17.9089 8.72185 15.4586 8.65431 15.5051 8.6545Z" fill="#F1F6FA"/>
<path d="M19.158 13.3899C19.154 13.4199 19.1519 13.4905 19.1344 13.557C19.0706 13.7983 18.7047 13.8285 18.6204 13.5849C18.5955 13.5127 18.5917 13.4304 18.5916 13.3526C18.5907 12.8435 18.4801 12.3349 18.2234 11.892C17.9594 11.4367 17.5563 11.054 17.0833 10.8224C16.7974 10.6824 16.4881 10.5953 16.1747 10.5435C16.0377 10.5208 15.8993 10.5071 15.7616 10.4879C15.5948 10.4647 15.5058 10.3584 15.5137 10.1941C15.521 10.04 15.6336 9.92926 15.8015 9.93874C16.3531 9.97007 16.8859 10.0893 17.3763 10.3489C18.3736 10.8771 18.9433 11.7107 19.1096 12.8239C19.1171 12.8743 19.1292 12.9243 19.133 12.9749C19.1424 13.0999 19.1484 13.2251 19.158 13.3899C19.154 13.4199 19.1484 13.2251 19.158 13.3899Z" fill="#F1F6FA"/>
<path d="M17.663 13.3317C17.4619 13.3353 17.3543 13.224 17.3335 13.0396C17.3191 12.9111 17.3077 12.7808 17.277 12.6557C17.2166 12.4094 17.0857 12.1811 16.8784 12.0301C16.7806 11.9588 16.6698 11.9069 16.5536 11.8734C16.4061 11.8308 16.2529 11.8425 16.1057 11.8064C15.9459 11.7673 15.8575 11.6379 15.8827 11.4879C15.9055 11.3514 16.0383 11.2449 16.1874 11.2557C17.1193 11.323 17.7854 11.8048 17.8804 12.9019C17.8871 12.9793 17.895 13.0611 17.8779 13.1352C17.8484 13.262 17.7546 13.3255 17.663 13.3317C17.7546 13.3255 17.4619 13.3353 17.663 13.3317Z" fill="#F1F6FA"/>
</svg>
