<svg width="31" height="30" viewBox="0 0 31 30" fill="none" xmlns="http://www.w3.org/2000/svg">
<mask id="mask0_7_2166" style="mask-type:luminance" maskUnits="userSpaceOnUse" x="0" y="0" width="31" height="30">
<path d="M30.5 0H0.5V30H30.5V0Z" fill="white"/>
</mask>
<g mask="url(#mask0_7_2166)">
<path d="M15.5 30C23.7843 30 30.5 23.2843 30.5 15C30.5 6.71573 23.7843 0 15.5 0C7.21573 0 0.5 6.71573 0.5 15C0.5 23.2843 7.21573 30 15.5 30Z" fill="#25CF43"/>
<path d="M7.5 24L8.69059 19.5275C7.92497 18.1519 7.52187 16.5866 7.52187 14.9787C7.52187 10.0278 11.3301 6 16.011 6C20.6919 6 24.5 10.0278 24.5 14.9787C24.5 19.9296 20.6919 23.9574 16.011 23.9574C14.5524 23.9574 13.1242 23.5625 11.8608 22.8127L7.5 24ZM12.0837 21.1792L12.3436 21.3471C13.4451 22.0583 14.7133 22.4343 16.011 22.4343C19.8978 22.4343 23.06 19.0897 23.06 14.9787C23.06 10.8677 19.8978 7.52309 16.011 7.52309C12.1241 7.52309 8.9619 10.8677 8.9619 14.9787C8.9619 16.4111 9.34681 17.8022 10.0749 19.0014L10.2499 19.2896L9.56431 21.8652L12.0837 21.1792Z" fill="#F1F6FA"/>
<path d="M13.4912 11.0308L12.9161 11.001C12.7355 10.9916 12.5583 11.0491 12.4218 11.162C12.143 11.3926 11.6972 11.8383 11.5603 12.4192C11.3561 13.2852 11.6717 14.3458 12.4883 15.4063C13.305 16.4668 14.8269 18.1636 17.518 18.8884C18.3852 19.1219 19.0674 18.9644 19.5938 18.6438C20.0106 18.3899 20.298 17.9822 20.4016 17.5214L20.4934 17.113C20.5225 16.9832 20.4533 16.8515 20.3267 16.7959L18.3832 15.9428C18.2571 15.8874 18.1074 15.9224 18.0226 16.0272L17.2596 16.9691C17.202 17.0403 17.1033 17.0685 17.0142 17.0387C16.4917 16.8638 14.7415 16.1657 13.7811 14.404C13.7395 14.3276 13.7498 14.2348 13.8089 14.1697L14.5381 13.3663C14.6126 13.2843 14.6314 13.169 14.5867 13.0693L13.7489 11.2027C13.7043 11.1033 13.6044 11.0367 13.4912 11.0308Z" fill="#F1F6FA"/>
</g>
</svg>
