<svg width="24" height="24" viewBox="0 0 24 24" fill="none" xmlns="http://www.w3.org/2000/svg">
<path d="M7.49962 22.5C7.37984 22.5052 7.26056 22.4816 7.15178 22.4312C7.04299 22.3808 6.94788 22.3049 6.87443 22.2103C6.80097 22.1155 6.7513 22.0045 6.72958 21.8866C6.70787 21.7687 6.71475 21.6472 6.74962 21.5325L9.48713 12.75H5.99962C5.86947 12.75 5.74156 12.7161 5.62847 12.6516C5.51538 12.5872 5.42101 12.4945 5.35462 12.3825C5.2888 12.2685 5.25415 12.1392 5.25415 12.0075C5.25415 11.8759 5.2888 11.7465 5.35462 11.6325L10.6046 1.88251C10.6691 1.76775 10.7627 1.67199 10.8759 1.60485C10.9892 1.53771 11.118 1.50155 11.2497 1.5H16.4997C16.6298 1.50002 16.7577 1.53392 16.8708 1.59836C16.9839 1.66279 17.0783 1.75555 17.1446 1.86751C17.2105 1.98152 17.2451 2.11084 17.2451 2.24251C17.2451 2.37416 17.2105 2.50348 17.1446 2.61751L14.0246 8.25H17.9997C18.141 8.2504 18.2794 8.29075 18.3988 8.36639C18.5182 8.44202 18.6138 8.54987 18.6746 8.67751C18.7367 8.8066 18.7606 8.9508 18.7432 9.09301C18.726 9.23523 18.6683 9.36952 18.5771 9.48L8.07713 22.23C8.00661 22.3147 7.9183 22.3827 7.8185 22.4294C7.71868 22.4761 7.60982 22.5002 7.49962 22.5ZM7.25213 11.25H10.4996C10.6167 11.2509 10.7319 11.2791 10.8361 11.3326C10.9403 11.3859 11.0306 11.4629 11.0997 11.5575C11.1695 11.6507 11.2167 11.7588 11.2376 11.8733C11.2584 11.9879 11.2523 12.1057 11.2197 12.2175L9.32963 18.3451L16.4097 9.75H12.7497C12.6195 9.74998 12.4916 9.71608 12.3784 9.65166C12.2654 9.58721 12.171 9.49447 12.1046 9.38251C12.0388 9.26848 12.0041 9.13916 12.0041 9.00751C12.0041 8.87585 12.0388 8.74652 12.1046 8.63251L15.2246 3H11.6997L7.25213 11.25Z" fill="#8CBBE9" fill-opacity="0.5"/>
</svg>
