<svg width="24" height="24" viewBox="0 0 24 24" xmlns="http://www.w3.org/2000/svg">
<path fill-rule="evenodd" clip-rule="evenodd" d="M1.15939 2.83179C1.25223 2.36759 1.70379 2.06655 2.16799 2.15939L3.21735 2.36926C4.44877 2.61555 5.37502 3.63704 5.49998 4.88662L5.57559 5.64274H19.0541C21.108 5.64274 22.6151 7.57298 22.117 9.5656L20.9942 14.0566C20.5093 15.9963 18.7665 17.357 16.7672 17.357H7.77423C6.32795 17.357 5.10976 16.2763 4.93744 14.8403L3.94784 6.5936L3.7942 5.0572C3.74422 4.55737 3.37372 4.14877 2.88115 4.05026L1.83179 3.84038C1.36759 3.74755 1.06655 3.29598 1.15939 2.83179ZM5.76604 7.35703L6.63952 14.6361C6.70845 15.2104 7.19572 15.6427 7.77423 15.6427H16.7672C17.9799 15.6427 19.037 14.8174 19.3311 13.6409L20.4539 9.14983C20.6815 8.23917 19.9928 7.35703 19.0541 7.35703H5.76604Z" fill="current"/>
<path fill-rule="evenodd" clip-rule="evenodd" d="M8.14282 13.5C8.14282 13.0266 8.52658 12.6428 8.99997 12.6428H13C13.4734 12.6428 13.8571 13.0266 13.8571 13.5C13.8571 13.9734 13.4734 14.3571 13 14.3571H8.99997C8.52658 14.3571 8.14282 13.9734 8.14282 13.5Z" fill="current"/>
<path d="M10 20C10 20.8284 9.32843 21.5 8.5 21.5C7.67157 21.5 7 20.8284 7 20C7 19.1716 7.67157 18.5 8.5 18.5C9.32843 18.5 10 19.1716 10 20Z" fill="current"/>
<path d="M19 20C19 20.8284 18.3284 21.5 17.5 21.5C16.6716 21.5 16 20.8284 16 20C16 19.1716 16.6716 18.5 17.5 18.5C18.3284 18.5 19 19.1716 19 20Z" fill="current"/>
</svg>
