<svg width="25" height="24" viewBox="0 0 25 24" fill="none" xmlns="http://www.w3.org/2000/svg">
<path d="M21.6665 10.5675H20.759C20.6091 8.66396 19.7752 6.87901 18.4114 5.54251L18.209 5.355C17.1873 4.41987 15.9468 3.757 14.6016 3.42751V2.25C14.6016 2.05108 14.5225 1.86033 14.3819 1.71967C14.2412 1.57901 14.0504 1.5 13.8516 1.5H11.5265C11.3276 1.5 11.1368 1.57901 10.9962 1.71967C10.8555 1.86033 10.7765 2.05108 10.7765 2.25V3.41251C9.12001 3.79414 7.62808 4.69334 6.51692 5.9798C5.40577 7.26625 4.73314 8.87312 4.5965 10.5675H3.6665C3.46759 10.5675 3.27683 10.6465 3.13617 10.7872C2.99552 10.9279 2.9165 11.1185 2.9165 11.3175V14.3175C2.9165 14.5164 2.99552 14.7072 3.13617 14.8478C3.27683 14.9884 3.46759 15.0675 3.6665 15.0675H4.5215C4.71608 17.0928 5.65825 18.9731 7.1642 20.3412C8.67016 21.7094 10.6318 22.4675 12.6665 22.4675C14.7012 22.4675 16.6628 21.7094 18.1688 20.3412C19.6747 18.9731 20.6169 17.0928 20.8116 15.0675H21.6665C21.8654 15.0675 22.0562 14.9884 22.1968 14.8478C22.3375 14.7072 22.4165 14.5164 22.4165 14.3175V11.3175C22.4165 11.1185 22.3375 10.9279 22.1968 10.7872C22.0562 10.6465 21.8654 10.5675 21.6665 10.5675ZM12.254 3H13.079V4.98751H12.254V3ZM7.6565 6.93751L8.2415 7.53C8.38174 7.67123 8.57233 7.75096 8.77135 7.75167C8.97037 7.75237 9.16152 7.67399 9.30275 7.53375C9.44398 7.39352 9.52371 7.20292 9.52442 7.0039C9.52512 6.80488 9.44674 6.61372 9.3065 6.47251L8.77401 5.93251C9.37793 5.5032 10.0498 5.17867 10.7615 4.97251V5.72251C10.7615 5.92141 10.8405 6.11218 10.9812 6.25283C11.1218 6.39348 11.3126 6.47251 11.5115 6.47251H13.8365C14.0354 6.47251 14.2262 6.39348 14.3668 6.25283C14.5075 6.11218 14.5865 5.92141 14.5865 5.72251V4.97251C15.292 5.1828 15.9582 5.50708 16.559 5.93251L16.034 6.465C15.9461 6.52929 15.8732 6.61193 15.8205 6.70721C15.7678 6.8025 15.7364 6.90811 15.7287 7.01673C15.7208 7.12534 15.7369 7.23435 15.7755 7.33618C15.814 7.438 15.8743 7.53021 15.9521 7.60637C16.03 7.68254 16.1235 7.74085 16.2261 7.77724C16.3287 7.81364 16.438 7.82724 16.5464 7.81713C16.6549 7.807 16.7598 7.77339 16.854 7.71863C16.9481 7.66387 17.0292 7.58926 17.0914 7.5L17.669 6.92249C18.568 7.93197 19.1246 9.19998 19.259 10.545H6.0815C6.21924 9.20815 6.76971 7.94733 7.6565 6.93751ZM12.6665 21C11.0242 20.9979 9.43988 20.3924 8.21476 19.2986C6.98963 18.2049 6.2091 16.6991 6.0215 15.0675H19.3116C19.1239 16.6991 18.3434 18.2049 17.1183 19.2986C15.8931 20.3924 14.3089 20.9979 12.6665 21ZM20.9165 13.5675H4.4165V12.0675H20.9165V13.5675Z" fill="#8CBBE9" fill-opacity="0.5"/>
</svg>
