<svg width="16" height="16" viewBox="0 0 16 16" fill="none" xmlns="http://www.w3.org/2000/svg">
<path d="M7.31463 1.80573C7.62556 1.28907 8.3746 1.28907 8.68553 1.80573L10.2392 4.38733C10.3509 4.57294 10.5331 4.70531 10.7441 4.75419L13.6794 5.43402C14.2669 5.57008 14.4984 6.28245 14.1031 6.73782L12.1279 9.01317C11.9859 9.17676 11.9163 9.39095 11.9351 9.60676L12.1956 12.6085C12.2477 13.2093 11.6417 13.6495 11.0865 13.4143L8.31215 12.239C8.11269 12.1545 7.88748 12.1545 7.68801 12.239L4.91367 13.4143C4.35844 13.6495 3.75246 13.2093 3.80459 12.6085L4.06511 9.60677C4.08384 9.39095 4.01424 9.17676 3.87223 9.01317L1.89708 6.73782C1.5018 6.28245 1.73326 5.57008 2.32071 5.43402L5.25606 4.75419C5.4671 4.70531 5.6493 4.57294 5.761 4.38733L7.31463 1.80573Z" fill="#E53935"/>
</svg>
