<svg width="24" height="24" viewBox="0 0 24 24" fill="none" xmlns="http://www.w3.org/2000/svg">
<path d="M4 13.0001H20C20.2652 13.0001 20.5195 12.8947 20.7071 12.7072C20.8946 12.5196 21 12.2653 21 12C21 11.7348 20.8946 11.4805 20.7071 11.2929C20.5195 11.1054 20.2652 11 20 11H4C3.73478 11 3.48043 11.1054 3.2929 11.2929C3.10536 11.4805 3 11.7348 3 12C3 12.2653 3.10536 12.5196 3.2929 12.7072C3.48043 12.8947 3.73478 13.0001 4 13.0001Z" fill="#8CBBE9" fill-opacity="0.5"/>
<path d="M20 5H4C3.73478 5 3.48043 5.10536 3.2929 5.2929C3.10536 5.48043 3 5.73478 3 6C3 6.26522 3.10536 6.51957 3.2929 6.70711C3.48043 6.89465 3.73478 7 4 7H20C20.2652 7 20.5195 6.89465 20.7071 6.70711C20.8946 6.51957 21 6.26522 21 6C21 5.73478 20.8946 5.48043 20.7071 5.2929C20.5195 5.10536 20.2652 5 20 5Z" fill="#8CBBE9" fill-opacity="0.5"/>
<path d="M4 19.0001H20C20.2652 19.0001 20.5195 18.8947 20.7071 18.7072C20.8946 18.5196 21 18.2653 21 18C21 17.7348 20.8946 17.4805 20.7071 17.2929C20.5195 17.1054 20.2652 17 20 17H4C3.73478 17 3.48043 17.1054 3.2929 17.2929C3.10536 17.4805 3 17.7348 3 18C3 18.2653 3.10536 18.5196 3.2929 18.7072C3.48043 18.8947 3.73478 19.0001 4 19.0001Z" fill="#8CBBE9" fill-opacity="0.5"/>
</svg>
