<svg width="25" height="24" viewBox="0 0 25 24" fill="none" xmlns="http://www.w3.org/2000/svg">
<path d="M5.5 3.5H19.5V19.4656C19.5 20.2959 18.5466 20.7645 17.8892 20.2574L16.5584 19.2307C16.2236 18.9725 15.7625 18.9527 15.4068 19.1813L13.5815 20.3547C12.9227 20.7783 12.0773 20.7783 11.4185 20.3547L9.5932 19.1813C9.23751 18.9527 8.77644 18.9725 8.44164 19.2307L7.1108 20.2574C6.45338 20.7645 5.5 20.2959 5.5 19.4656V3.5Z" stroke="#1976D2" stroke-width="2"/>
<path d="M9.5 9.5H12.5" stroke="#1976D2" stroke-width="2" stroke-linecap="round" stroke-linejoin="round"/>
<path d="M3.5 3.5H21.5" stroke="#1976D2" stroke-width="2" stroke-linecap="round" stroke-linejoin="round"/>
<path d="M9.5 13.5H12.5" stroke="#1976D2" stroke-width="2" stroke-linecap="round" stroke-linejoin="round"/>
<path d="M15.5 9.5H16" stroke="#1976D2" stroke-width="2" stroke-linecap="round" stroke-linejoin="round"/>
<path d="M15.5 13.5H16" stroke="#1976D2" stroke-width="2" stroke-linecap="round" stroke-linejoin="round"/>
</svg>
