<svg width="25" height="24" viewBox="0 0 25 24" xmlns="http://www.w3.org/2000/svg">
<path d="M2.58325 18C2.16925 18 1.83325 18.336 1.83325 18.75C1.83325 19.164 2.16925 19.5 2.58325 19.5H3.33325V20.25C3.33325 21.4905 4.34275 22.5 5.58325 22.5H19.0833C20.3237 22.5 21.3333 21.4905 21.3333 20.25V3.75C21.3333 2.50949 20.3237 1.5 19.0833 1.5H5.58325C4.34275 1.5 3.33325 2.50949 3.33325 3.75V4.5H2.58325C2.16925 4.5 1.83325 4.836 1.83325 5.25C1.83325 5.664 2.16925 6 2.58325 6H3.33325V18H2.58325ZM4.83325 19.5H5.58325C5.99725 19.5 6.33325 19.164 6.33325 18.75C6.33325 18.336 5.99725 18 5.58325 18H4.83325V6H5.58325C5.99725 6 6.33325 5.664 6.33325 5.25C6.33325 4.836 5.99725 4.5 5.58325 4.5H4.83325V3.75C4.83325 3.33675 5.17 3 5.58325 3H19.0833C19.4965 3 19.8333 3.33675 19.8333 3.75V20.25C19.8333 20.6632 19.4965 21 19.0833 21H5.58325C5.17 21 4.83325 20.6632 4.83325 20.25V19.5Z" fill="current"/>
<path d="M8.58325 18.75H16.0833C16.4973 18.75 16.8333 18.414 16.8333 18V16.5C16.8333 14.0183 14.815 12 12.3333 12C9.8515 12 7.83325 14.0183 7.83325 16.5V18C7.83325 18.414 8.16925 18.75 8.58325 18.75ZM9.33325 16.5C9.33325 14.8455 10.6787 13.5 12.3333 13.5C13.9877 13.5 15.3333 14.8455 15.3333 16.5V17.25H9.33325V16.5Z" fill="current"/>
<path d="M12.3333 11.25C13.9877 11.25 15.3333 9.90449 15.3333 8.25C15.3333 6.59549 13.9877 5.25 12.3333 5.25C10.6787 5.25 9.33325 6.59549 9.33325 8.25C9.33325 9.90449 10.6787 11.25 12.3333 11.25ZM12.3333 6.75C13.1605 6.75 13.8333 7.42275 13.8333 8.25C13.8333 9.07725 13.1605 9.75 12.3333 9.75C11.506 9.75 10.8333 9.07725 10.8333 8.25C10.8333 7.42275 11.506 6.75 12.3333 6.75Z" fill="current"/>
</svg>
