<svg width="25" height="24" viewBox="0 0 25 24" xmlns="http://www.w3.org/2000/svg">
<path d="M21.7474 0H2.91921C1.49331 0 0.333252 1.16006 0.333252 2.58596V21.414C0.333252 22.8399 1.49331 24 2.91921 24H21.7474C23.1732 24 24.3333 22.8399 24.3333 21.414V2.58596C24.3333 1.16006 23.1732 0 21.7474 0ZM7.38794 15.0625V8.93751H17.2786V15.0625H7.38794ZM1.7395 15.0625V8.93751H5.98169V15.0625H1.7395ZM18.6849 8.93751H22.927V15.0625H18.6849V8.93751ZM22.927 2.58596V7.53127H13.0363V1.40625H21.7474C22.3978 1.40625 22.927 1.93547 22.927 2.58596ZM2.91921 1.40625H11.6302V7.53127H1.7395V2.58596C1.7395 1.93547 2.26872 1.40625 2.91921 1.40625ZM1.7395 21.414V16.4687H11.6302V22.5937H2.91921C2.26872 22.5937 1.7395 22.0645 1.7395 21.414ZM21.7474 22.5937H13.0363V16.4687H22.927V21.414C22.927 22.0645 22.3978 22.5937 21.7474 22.5937Z" fill="current"/>
</svg>
