<svg width="24" height="25" viewBox="0 0 24 25" xmlns="http://www.w3.org/2000/svg">
<path fill-rule="evenodd" clip-rule="evenodd" d="M1.25 9.6665C1.25 6.49087 3.82436 3.9165 7 3.9165H17C20.1756 3.9165 22.75 6.49087 22.75 9.6665V15.6665C22.75 18.8421 20.1756 21.4165 17 21.4165H7C3.82436 21.4165 1.25 18.8421 1.25 15.6665V9.6665ZM7 5.4165C4.65279 5.4165 2.75 7.31929 2.75 9.6665V15.6665C2.75 18.0137 4.65279 19.9165 7 19.9165H17C19.3472 19.9165 21.25 18.0137 21.25 15.6665V9.6665C21.25 7.31929 19.3472 5.4165 17 5.4165H7Z" fill="current"/>
<path fill-rule="evenodd" clip-rule="evenodd" d="M5.40004 9.21655C5.64857 8.88518 6.11867 8.81802 6.45004 9.06655L11.25 12.6665C11.6945 12.9999 12.3056 12.9999 12.75 12.6665L17.55 9.06655C17.8814 8.81802 18.3515 8.88518 18.6 9.21655C18.8486 9.54792 18.7814 10.018 18.45 10.2665L13.65 13.8665C12.6723 14.5999 11.3278 14.5999 10.35 13.8665L5.55004 10.2665C5.21867 10.018 5.15152 9.54792 5.40004 9.21655Z" fill="current"/>
</svg>
