<svg width="25" height="24" viewBox="0 0 25 24" xmlns="http://www.w3.org/2000/svg">
<path d="M12.949 0.0168655C13.1363 0.131481 13.2604 0.256124 13.3699 0.474778C13.4174 0.648949 13.4224 0.765268 13.4223 0.947463C13.4224 1.04101 13.4224 1.04101 13.4225 1.13644C13.4223 1.20488 13.4222 1.2733 13.422 1.3438C13.422 1.41585 13.422 1.48789 13.422 1.56212C13.4221 1.75971 13.4218 1.95732 13.4214 2.15492C13.4211 2.3614 13.4211 2.56789 13.4211 2.77438C13.4209 3.16541 13.4206 3.55645 13.42 3.94749C13.4196 4.39267 13.4193 4.83783 13.419 5.28301C13.4186 6.19877 13.4177 7.11455 13.4167 8.03032C13.463 8.04517 13.463 8.04517 13.5101 8.06031C13.8355 8.16656 14.1553 8.28754 14.4747 8.41756C14.5264 8.43844 14.578 8.45931 14.6313 8.48081C14.8002 8.5492 14.9692 8.61787 15.1382 8.68656C15.2265 8.7224 15.3147 8.75822 15.403 8.79406C15.6483 8.89367 15.8935 8.99342 16.1388 9.09332C16.4548 9.22207 16.7711 9.35037 17.0873 9.47828C17.333 9.57761 17.5785 9.67736 17.8238 9.77739C17.97 9.83696 18.1162 9.89631 18.2625 9.95534C18.4253 10.0211 18.5881 10.0876 18.7507 10.1542C18.7989 10.1734 18.8469 10.1927 18.8964 10.2125C19.2695 10.3665 19.5335 10.5091 19.7318 10.9496C19.7786 11.1692 19.7843 11.3762 19.7842 11.6026C19.7843 11.7137 19.7843 11.7137 19.7844 11.8271C19.7842 11.9088 19.7841 11.9904 19.7838 12.0721C19.7838 12.1584 19.7838 12.2448 19.7838 12.3311C19.7839 12.5651 19.7836 12.7991 19.7833 13.0331C19.783 13.2778 19.783 13.5225 19.783 13.7672C19.7827 14.2304 19.7824 14.6936 19.7819 15.1568C19.7814 15.6842 19.7811 16.2116 19.7809 16.739C19.7805 17.8237 19.7796 18.9085 19.7785 19.9933C19.8151 20.0018 19.8517 20.0103 19.8893 20.0192C20.0056 20.0487 20.1023 20.0895 20.2111 20.1467C20.2491 20.1664 20.2872 20.1863 20.3263 20.2067C20.3673 20.2283 20.4083 20.25 20.4504 20.2724C20.5156 20.3064 20.5156 20.3064 20.5821 20.3411C20.7246 20.4157 20.867 20.4907 21.0094 20.5657C21.108 20.6174 21.2066 20.669 21.3052 20.7207C21.4566 20.8 21.6081 20.8793 21.7595 20.9589C22.0929 21.1337 22.4269 21.3073 22.7613 21.4797C22.8469 21.524 22.9326 21.5683 23.0184 21.6125C23.1399 21.6753 23.2615 21.738 23.3832 21.8005C23.4949 21.8579 23.6065 21.9156 23.7182 21.9734C23.7504 21.9899 23.7827 22.0064 23.8159 22.0233C24.5145 22.3863 24.5145 22.3863 24.6435 22.7408C24.6865 23.1096 24.6855 23.4051 24.5031 23.7139C24.3052 23.912 24.1513 23.9948 23.895 24C23.5777 23.9108 23.2792 23.7602 22.9823 23.5997C22.9413 23.5779 22.9001 23.556 22.8577 23.5334C22.7701 23.4867 22.6826 23.4399 22.5951 23.393C22.3648 23.2695 22.1342 23.147 21.9037 23.0245C21.8579 23.0001 21.8119 22.9756 21.7647 22.9505C21.3098 22.7086 20.8531 22.4717 20.3946 22.2403C20.1443 22.1136 19.8958 21.9853 19.6509 21.8435C19.6105 21.8207 19.5702 21.798 19.5287 21.7745C19.4577 21.7341 19.3871 21.6923 19.3174 21.6484C18.8059 21.3614 18.0119 21.9095 17.5089 22.1138C17.4103 22.1536 17.3118 22.1936 17.2133 22.2334C16.9545 22.3381 16.6956 22.4431 16.4368 22.548C16.0246 22.7151 15.6122 22.882 15.1999 23.0488C15.0577 23.1064 14.9154 23.1641 14.7733 23.2219C14.5958 23.2939 14.4183 23.3653 14.2406 23.4363C14.0601 23.5087 13.8802 23.5828 13.7004 23.6582C13.6097 23.6953 13.5191 23.7324 13.4284 23.7695C13.3675 23.7957 13.3675 23.7957 13.3054 23.8224C12.9041 23.9844 12.5223 24.0055 12.1185 23.8392C12.0615 23.8163 12.0047 23.7934 11.9461 23.7698C11.8851 23.7443 11.8241 23.7187 11.7631 23.693C11.6979 23.6664 11.6326 23.6398 11.5672 23.6133C11.4282 23.5568 11.2894 23.4996 11.1507 23.442C10.9328 23.3516 10.7144 23.2625 10.4961 23.1737C10.1973 23.0521 9.8987 22.9299 9.60022 22.8072C9.54498 22.7845 9.54498 22.7845 9.48863 22.7614C9.45207 22.7463 9.41551 22.7313 9.37785 22.7159C8.8799 22.5111 8.3818 22.307 7.88312 22.1051C7.67852 22.0222 7.47428 21.9381 7.27009 21.8537C7.16425 21.8107 7.05838 21.7677 6.95252 21.7248C6.90501 21.7048 6.8575 21.685 6.80857 21.6645C6.42111 21.5091 6.19596 21.5654 5.82582 21.7677C5.7764 21.7941 5.7764 21.7941 5.72599 21.821C5.65462 21.8592 5.58332 21.8976 5.51208 21.9361C5.31884 22.0405 5.12515 22.1437 4.93155 22.247C4.87096 22.2795 4.87096 22.2795 4.80915 22.3126C4.35646 22.5545 3.90186 22.7909 3.44707 23.0269C3.37133 23.0663 3.2956 23.1057 3.21987 23.1449C3.11045 23.2019 3.00102 23.2586 2.89149 23.3151C2.70152 23.4133 2.512 23.5124 2.32298 23.6132C2.26325 23.6447 2.26325 23.6447 2.20231 23.6769C2.12647 23.7169 2.05075 23.7574 1.9752 23.7982C1.7076 23.9388 1.47224 24.0262 1.17832 23.9642C0.947076 23.8489 0.829418 23.678 0.692994 23.4276C0.658987 23.1539 0.642578 22.8686 0.742696 22.6147C0.982469 22.2479 1.37106 22.0939 1.71645 21.9161C1.76906 21.8889 1.76906 21.8889 1.82272 21.8611C1.93825 21.8012 2.05384 21.7415 2.16943 21.6818C2.29313 21.6178 2.41681 21.5537 2.54048 21.4896C2.6278 21.4443 2.71513 21.3992 2.80245 21.354C3.14401 21.1772 3.48526 20.9995 3.82641 20.8214C3.90166 20.7821 3.90166 20.7821 3.97844 20.7421C4.177 20.6386 4.37556 20.5351 4.57408 20.4313C4.71228 20.3592 4.8505 20.2871 4.98874 20.2151C5.03018 20.1934 5.07161 20.1718 5.11429 20.1494C5.15233 20.1297 5.19036 20.1098 5.22954 20.0894C5.26265 20.0722 5.29575 20.0548 5.32985 20.0371C5.40472 19.9997 5.48124 19.9673 5.55794 19.936C5.55809 19.8912 5.55825 19.8464 5.55841 19.8002C5.56221 18.7095 5.56651 17.6189 5.57139 16.5283C5.57373 16.0009 5.5759 15.4735 5.57767 14.946C5.57922 14.4863 5.58108 14.0266 5.58333 13.5669C5.58451 13.3235 5.58553 13.08 5.58616 12.8366C5.58677 12.6074 5.5878 12.3783 5.58916 12.1491C5.58958 12.0651 5.58985 11.981 5.58994 11.897C5.59011 11.7821 5.59088 11.6672 5.59169 11.5523C5.59208 11.4559 5.59208 11.4559 5.59248 11.3575C5.61762 10.9898 5.71974 10.7523 5.93216 10.4916C6.07635 10.4004 6.07635 10.4004 6.24566 10.3295C6.27769 10.3157 6.30972 10.302 6.34272 10.2879C6.45505 10.2402 6.56781 10.1942 6.68062 10.1482C6.76961 10.111 6.85857 10.0738 6.94753 10.0366C7.25996 9.90641 7.57309 9.77883 7.88625 9.65135C8.00138 9.60436 8.1165 9.55738 8.23162 9.51037C8.47118 9.41261 8.71076 9.31497 8.95037 9.21742C9.22732 9.10466 9.5042 8.99167 9.78105 8.87854C10.0486 8.76922 10.3162 8.66008 10.5839 8.55104C10.6974 8.50475 10.8109 8.45842 10.9244 8.41204C11.0821 8.34763 11.2399 8.28343 11.3976 8.21928C11.4447 8.20003 11.4917 8.18076 11.5402 8.16091C11.6043 8.13492 11.6043 8.13492 11.6697 8.10841C11.7069 8.09325 11.7442 8.07807 11.7825 8.06244C11.873 8.03032 11.873 8.03032 11.9666 8.03032C11.9665 7.99259 11.9663 7.95484 11.9662 7.91596C11.9631 6.99729 11.9607 6.07861 11.9593 5.15992C11.9585 4.71565 11.9575 4.27139 11.956 3.82712C11.9546 3.43984 11.9537 3.05257 11.9534 2.6653C11.9532 2.46028 11.9527 2.25528 11.9518 2.05027C11.9506 1.82127 11.9506 1.59229 11.9507 1.3633C11.9501 1.29549 11.9496 1.22768 11.9491 1.15781C11.9509 0.578169 11.9509 0.57817 12.1069 0.30306C12.3791 0.00250278 12.5886 -0.0285817 12.949 0.0168655ZM12.3023 9.7229C12.2639 9.73853 12.2256 9.75417 12.1861 9.77027C12.0588 9.82222 11.9315 9.87429 11.8042 9.92637C11.7161 9.9623 11.6281 9.99824 11.54 10.0342C11.3078 10.1289 11.0757 10.2238 10.8435 10.3187C10.6068 10.4155 10.3701 10.5121 10.1334 10.6088C9.66849 10.7986 9.20367 10.9885 8.73886 11.1784C8.73886 11.2163 8.73886 11.254 8.73886 11.293C9.37989 11.5555 10.0211 11.8172 10.6627 12.0778C10.9375 12.1896 11.2121 12.302 11.4864 12.416C11.6194 12.4712 11.7526 12.5256 11.8858 12.5798C11.973 12.6157 12.0601 12.6525 12.1471 12.6892C12.1992 12.7103 12.2512 12.7313 12.3048 12.7529C12.3484 12.7711 12.3921 12.7892 12.4369 12.8078C12.7454 12.8763 13.0404 12.7579 13.3307 12.6381C13.3668 12.6236 13.4028 12.6091 13.44 12.594C13.5581 12.5464 13.6759 12.4982 13.7939 12.45C13.8761 12.4167 13.9585 12.3835 14.0409 12.3502C14.2565 12.2629 14.4721 12.1752 14.6877 12.0874C14.908 11.9976 15.1286 11.9085 15.3491 11.8191C15.781 11.6443 16.2127 11.4687 16.6444 11.293C16.6444 11.2551 16.6444 11.2174 16.6444 11.1784C16.1329 10.9694 15.6214 10.7604 15.1098 10.5516C14.8723 10.4546 14.6349 10.3576 14.3974 10.2605C14.1684 10.1669 13.9394 10.0734 13.7104 9.97994C13.6228 9.94419 13.5352 9.9084 13.4476 9.87259C13.3254 9.82261 13.2033 9.77275 13.0811 9.7229C13.0262 9.70042 13.0262 9.70042 12.9702 9.67749C12.6895 9.56326 12.5788 9.60955 12.3023 9.7229ZM7.05485 12.4949C7.05485 14.9316 7.05485 17.3683 7.05485 19.8788C7.30856 20.0141 7.30856 20.0141 7.56552 20.1281C7.59799 20.141 7.63048 20.154 7.66395 20.1673C7.71583 20.1876 7.71583 20.1876 7.76876 20.2083C7.80638 20.2233 7.844 20.2382 7.88275 20.2536C8.00728 20.3029 8.13187 20.352 8.25646 20.4011C8.43648 20.4723 8.61644 20.5436 8.79642 20.6148C8.84376 20.6336 8.89109 20.6523 8.93987 20.6716C9.31454 20.82 9.6887 20.9702 10.0627 21.1211C10.1744 21.166 10.286 21.211 10.3976 21.2558C10.562 21.322 10.7264 21.3883 10.8907 21.4547C11.0441 21.5168 11.1976 21.5785 11.3511 21.6403C11.4203 21.6684 11.4203 21.6684 11.4908 21.697C11.5331 21.714 11.5754 21.7309 11.6189 21.7484C11.6558 21.7632 11.6926 21.778 11.7305 21.7934C11.8323 21.8324 11.8323 21.8324 11.9666 21.8249C11.9666 19.3883 11.9666 16.9516 11.9666 14.4411C10.2868 13.739 10.2868 13.739 8.60238 13.054C8.47603 13.0033 8.34976 12.9523 8.22348 12.9012C8.07093 12.8397 7.91829 12.7785 7.76565 12.7172C7.68214 12.6835 7.68214 12.6835 7.59694 12.649C7.54602 12.6286 7.49509 12.6083 7.44261 12.5873C7.37573 12.5605 7.37573 12.5605 7.30748 12.533C7.19206 12.4873 7.19206 12.4873 7.05485 12.4949ZM17.8153 12.6421C17.7773 12.6577 17.7394 12.6733 17.7003 12.6895C17.6177 12.7234 17.5351 12.7575 17.4527 12.7917C17.2308 12.8836 17.0086 12.9748 16.7863 13.066C16.7403 13.0849 16.6942 13.1039 16.6467 13.1234C16.1056 13.3453 15.5627 13.5605 15.0196 13.7749C14.8998 13.8221 14.7802 13.8696 14.6605 13.9169C14.6269 13.9303 14.5932 13.9435 14.5585 13.9571C14.1749 14.1092 13.7974 14.2767 13.4167 14.4411C13.4167 16.8778 13.4167 19.3144 13.4167 21.8249C13.7056 21.7464 13.9785 21.6615 14.2574 21.5477C14.3169 21.5239 14.3169 21.5239 14.3775 21.4995C14.5071 21.4473 14.6366 21.3948 14.7661 21.3422C14.857 21.3056 14.9477 21.2689 15.0385 21.2323C15.2283 21.1557 15.418 21.0789 15.6076 21.0021C15.8501 20.9038 16.0925 20.8058 16.3351 20.708C16.5225 20.6324 16.7097 20.5567 16.897 20.4809C16.9863 20.4448 17.0758 20.4087 17.1651 20.3726C17.2902 20.322 17.4154 20.2713 17.5405 20.2205C17.577 20.2058 17.6135 20.1911 17.6511 20.1759C17.6856 20.162 17.7202 20.1479 17.7557 20.1334C17.7852 20.1215 17.8146 20.1095 17.8451 20.0973C18.0072 20.0278 18.1675 19.9526 18.3285 19.8788C18.3285 17.4421 18.3285 15.0055 18.3285 12.4949C18.1437 12.4949 17.9882 12.5699 17.8153 12.6421Z" fill="current"/>
</svg>
