<svg width="24" height="24" viewBox="0 0 24 24" fill="none" xmlns="http://www.w3.org/2000/svg">
<path d="M22.5 15.5551C21.5445 11.6914 21.0412 7.72986 21 3.75005C21.0004 3.59282 20.9514 3.43943 20.8599 3.31158C20.7683 3.18372 20.639 3.08787 20.49 3.03755C17.805 2.13005 15.2775 1.53755 15.1725 1.49255H15.075L15 1.50005H9.00001H8.92501H8.82001C8.71501 1.50005 6.18752 2.13755 3.50252 3.04505C3.35616 3.09621 3.22925 3.19147 3.13928 3.31772C3.04929 3.44397 3.00063 3.59501 3.00001 3.75005C2.9589 7.72986 2.45553 11.6914 1.50001 15.5551C1.49153 15.6198 1.49153 15.6854 1.50001 15.75V21.75C1.50001 21.9489 1.57904 22.1397 1.71969 22.2803C1.86034 22.4211 2.0511 22.5 2.25001 22.5H21.75C21.9489 22.5 22.1397 22.4211 22.2803 22.2803C22.421 22.1397 22.5 21.9489 22.5 21.75V15.75C22.5086 15.6854 22.5086 15.6198 22.5 15.5551ZM12 7.15505L10.155 3.00005H13.845L12 7.15505ZM3.00001 15.8476C3.92709 12.0702 4.43019 8.20134 4.50001 4.31255C6.16501 3.75005 7.74001 3.34505 8.57252 3.12755L11.25 9.12755V21H3.00001V15.8476ZM21 21H12.75V9.15755L15.4275 3.15755C16.2525 3.36755 17.8275 3.79505 19.5 4.34255C19.5699 8.23134 20.073 12.1002 21 15.8776V21Z" fill="#8CBBE9" fill-opacity="0.5"/>
<path d="M9 14.25H6C5.80108 14.25 5.61033 14.329 5.46967 14.4697C5.32901 14.6103 5.25 14.8011 5.25 15C5.25 15.1989 5.32901 15.3897 5.46967 15.5303C5.61033 15.671 5.80108 15.75 6 15.75H9C9.19892 15.75 9.38967 15.671 9.53033 15.5303C9.67099 15.3897 9.75 15.1989 9.75 15C9.75 14.8011 9.67099 14.6103 9.53033 14.4697C9.38967 14.329 9.19892 14.25 9 14.25Z" fill="#8CBBE9" fill-opacity="0.5"/>
<path d="M9 17.25H6C5.80108 17.25 5.61033 17.329 5.46967 17.4697C5.32901 17.6103 5.25 17.8011 5.25 18C5.25 18.1989 5.32901 18.3897 5.46967 18.5303C5.61033 18.671 5.80108 18.75 6 18.75H9C9.19892 18.75 9.38967 18.671 9.53033 18.5303C9.67099 18.3897 9.75 18.1989 9.75 18C9.75 17.8011 9.67099 17.6103 9.53033 17.4697C9.38967 17.329 9.19892 17.25 9 17.25Z" fill="#8CBBE9" fill-opacity="0.5"/>
<path d="M18 14.25H15C14.8011 14.25 14.6103 14.329 14.4697 14.4697C14.329 14.6103 14.25 14.8011 14.25 15C14.25 15.1989 14.329 15.3897 14.4697 15.5303C14.6103 15.671 14.8011 15.75 15 15.75H18C18.1989 15.75 18.3897 15.671 18.5303 15.5303C18.671 15.3897 18.75 15.1989 18.75 15C18.75 14.8011 18.671 14.6103 18.5303 14.4697C18.3897 14.329 18.1989 14.25 18 14.25Z" fill="#8CBBE9" fill-opacity="0.5"/>
<path d="M18 17.25H15C14.8011 17.25 14.6103 17.329 14.4697 17.4697C14.329 17.6103 14.25 17.8011 14.25 18C14.25 18.1989 14.329 18.3897 14.4697 18.5303C14.6103 18.671 14.8011 18.75 15 18.75H18C18.1989 18.75 18.3897 18.671 18.5303 18.5303C18.671 18.3897 18.75 18.1989 18.75 18C18.75 17.8011 18.671 17.6103 18.5303 17.4697C18.3897 17.329 18.1989 17.25 18 17.25Z" fill="#8CBBE9" fill-opacity="0.5"/>
</svg>
