<svg xmlns="http://www.w3.org/2000/svg" xmlns:xlink="http://www.w3.org/1999/xlink"><defs><style>
    .sprite-symbol-usage {display: none;}
    .sprite-symbol-usage:target {display: inline;}
  </style><symbol viewBox="0 0 25 24" id="icon-3d">
<path d="M12.949 0.0168655C13.1363 0.131481 13.2604 0.256124 13.3699 0.474778C13.4174 0.648949 13.4224 0.765268 13.4223 0.947463C13.4224 1.04101 13.4224 1.04101 13.4225 1.13644C13.4223 1.20488 13.4222 1.2733 13.422 1.3438C13.422 1.41585 13.422 1.48789 13.422 1.56212C13.4221 1.75971 13.4218 1.95732 13.4214 2.15492C13.4211 2.3614 13.4211 2.56789 13.4211 2.77438C13.4209 3.16541 13.4206 3.55645 13.42 3.94749C13.4196 4.39267 13.4193 4.83783 13.419 5.28301C13.4186 6.19877 13.4177 7.11455 13.4167 8.03032C13.463 8.04517 13.463 8.04517 13.5101 8.06031C13.8355 8.16656 14.1553 8.28754 14.4747 8.41756C14.5264 8.43844 14.578 8.45931 14.6313 8.48081C14.8002 8.5492 14.9692 8.61787 15.1382 8.68656C15.2265 8.7224 15.3147 8.75822 15.403 8.79406C15.6483 8.89367 15.8935 8.99342 16.1388 9.09332C16.4548 9.22207 16.7711 9.35037 17.0873 9.47828C17.333 9.57761 17.5785 9.67736 17.8238 9.77739C17.97 9.83696 18.1162 9.89631 18.2625 9.95534C18.4253 10.0211 18.5881 10.0876 18.7507 10.1542C18.7989 10.1734 18.8469 10.1927 18.8964 10.2125C19.2695 10.3665 19.5335 10.5091 19.7318 10.9496C19.7786 11.1692 19.7843 11.3762 19.7842 11.6026C19.7843 11.7137 19.7843 11.7137 19.7844 11.8271C19.7842 11.9088 19.7841 11.9904 19.7838 12.0721C19.7838 12.1584 19.7838 12.2448 19.7838 12.3311C19.7839 12.5651 19.7836 12.7991 19.7833 13.0331C19.783 13.2778 19.783 13.5225 19.783 13.7672C19.7827 14.2304 19.7824 14.6936 19.7819 15.1568C19.7814 15.6842 19.7811 16.2116 19.7809 16.739C19.7805 17.8237 19.7796 18.9085 19.7785 19.9933C19.8151 20.0018 19.8517 20.0103 19.8893 20.0192C20.0056 20.0487 20.1023 20.0895 20.2111 20.1467C20.2491 20.1664 20.2872 20.1863 20.3263 20.2067C20.3673 20.2283 20.4083 20.25 20.4504 20.2724C20.5156 20.3064 20.5156 20.3064 20.5821 20.3411C20.7246 20.4157 20.867 20.4907 21.0094 20.5657C21.108 20.6174 21.2066 20.669 21.3052 20.7207C21.4566 20.8 21.6081 20.8793 21.7595 20.9589C22.0929 21.1337 22.4269 21.3073 22.7613 21.4797C22.8469 21.524 22.9326 21.5683 23.0184 21.6125C23.1399 21.6753 23.2615 21.738 23.3832 21.8005C23.4949 21.8579 23.6065 21.9156 23.7182 21.9734C23.7504 21.9899 23.7827 22.0064 23.8159 22.0233C24.5145 22.3863 24.5145 22.3863 24.6435 22.7408C24.6865 23.1096 24.6855 23.4051 24.5031 23.7139C24.3052 23.912 24.1513 23.9948 23.895 24C23.5777 23.9108 23.2792 23.7602 22.9823 23.5997C22.9413 23.5779 22.9001 23.556 22.8577 23.5334C22.7701 23.4867 22.6826 23.4399 22.5951 23.393C22.3648 23.2695 22.1342 23.147 21.9037 23.0245C21.8579 23.0001 21.8119 22.9756 21.7647 22.9505C21.3098 22.7086 20.8531 22.4717 20.3946 22.2403C20.1443 22.1136 19.8958 21.9853 19.6509 21.8435C19.6105 21.8207 19.5702 21.798 19.5287 21.7745C19.4577 21.7341 19.3871 21.6923 19.3174 21.6484C18.8059 21.3614 18.0119 21.9095 17.5089 22.1138C17.4103 22.1536 17.3118 22.1936 17.2133 22.2334C16.9545 22.3381 16.6956 22.4431 16.4368 22.548C16.0246 22.7151 15.6122 22.882 15.1999 23.0488C15.0577 23.1064 14.9154 23.1641 14.7733 23.2219C14.5958 23.2939 14.4183 23.3653 14.2406 23.4363C14.0601 23.5087 13.8802 23.5828 13.7004 23.6582C13.6097 23.6953 13.5191 23.7324 13.4284 23.7695C13.3675 23.7957 13.3675 23.7957 13.3054 23.8224C12.9041 23.9844 12.5223 24.0055 12.1185 23.8392C12.0615 23.8163 12.0047 23.7934 11.9461 23.7698C11.8851 23.7443 11.8241 23.7187 11.7631 23.693C11.6979 23.6664 11.6326 23.6398 11.5672 23.6133C11.4282 23.5568 11.2894 23.4996 11.1507 23.442C10.9328 23.3516 10.7144 23.2625 10.4961 23.1737C10.1973 23.0521 9.8987 22.9299 9.60022 22.8072C9.54498 22.7845 9.54498 22.7845 9.48863 22.7614C9.45207 22.7463 9.41551 22.7313 9.37785 22.7159C8.8799 22.5111 8.3818 22.307 7.88312 22.1051C7.67852 22.0222 7.47428 21.9381 7.27009 21.8537C7.16425 21.8107 7.05838 21.7677 6.95252 21.7248C6.90501 21.7048 6.8575 21.685 6.80857 21.6645C6.42111 21.5091 6.19596 21.5654 5.82582 21.7677C5.7764 21.7941 5.7764 21.7941 5.72599 21.821C5.65462 21.8592 5.58332 21.8976 5.51208 21.9361C5.31884 22.0405 5.12515 22.1437 4.93155 22.247C4.87096 22.2795 4.87096 22.2795 4.80915 22.3126C4.35646 22.5545 3.90186 22.7909 3.44707 23.0269C3.37133 23.0663 3.2956 23.1057 3.21987 23.1449C3.11045 23.2019 3.00102 23.2586 2.89149 23.3151C2.70152 23.4133 2.512 23.5124 2.32298 23.6132C2.26325 23.6447 2.26325 23.6447 2.20231 23.6769C2.12647 23.7169 2.05075 23.7574 1.9752 23.7982C1.7076 23.9388 1.47224 24.0262 1.17832 23.9642C0.947076 23.8489 0.829418 23.678 0.692994 23.4276C0.658987 23.1539 0.642578 22.8686 0.742696 22.6147C0.982469 22.2479 1.37106 22.0939 1.71645 21.9161C1.76906 21.8889 1.76906 21.8889 1.82272 21.8611C1.93825 21.8012 2.05384 21.7415 2.16943 21.6818C2.29313 21.6178 2.41681 21.5537 2.54048 21.4896C2.6278 21.4443 2.71513 21.3992 2.80245 21.354C3.14401 21.1772 3.48526 20.9995 3.82641 20.8214C3.90166 20.7821 3.90166 20.7821 3.97844 20.7421C4.177 20.6386 4.37556 20.5351 4.57408 20.4313C4.71228 20.3592 4.8505 20.2871 4.98874 20.2151C5.03018 20.1934 5.07161 20.1718 5.11429 20.1494C5.15233 20.1297 5.19036 20.1098 5.22954 20.0894C5.26265 20.0722 5.29575 20.0548 5.32985 20.0371C5.40472 19.9997 5.48124 19.9673 5.55794 19.936C5.55809 19.8912 5.55825 19.8464 5.55841 19.8002C5.56221 18.7095 5.56651 17.6189 5.57139 16.5283C5.57373 16.0009 5.5759 15.4735 5.57767 14.946C5.57922 14.4863 5.58108 14.0266 5.58333 13.5669C5.58451 13.3235 5.58553 13.08 5.58616 12.8366C5.58677 12.6074 5.5878 12.3783 5.58916 12.1491C5.58958 12.0651 5.58985 11.981 5.58994 11.897C5.59011 11.7821 5.59088 11.6672 5.59169 11.5523C5.59208 11.4559 5.59208 11.4559 5.59248 11.3575C5.61762 10.9898 5.71974 10.7523 5.93216 10.4916C6.07635 10.4004 6.07635 10.4004 6.24566 10.3295C6.27769 10.3157 6.30972 10.302 6.34272 10.2879C6.45505 10.2402 6.56781 10.1942 6.68062 10.1482C6.76961 10.111 6.85857 10.0738 6.94753 10.0366C7.25996 9.90641 7.57309 9.77883 7.88625 9.65135C8.00138 9.60436 8.1165 9.55738 8.23162 9.51037C8.47118 9.41261 8.71076 9.31497 8.95037 9.21742C9.22732 9.10466 9.5042 8.99167 9.78105 8.87854C10.0486 8.76922 10.3162 8.66008 10.5839 8.55104C10.6974 8.50475 10.8109 8.45842 10.9244 8.41204C11.0821 8.34763 11.2399 8.28343 11.3976 8.21928C11.4447 8.20003 11.4917 8.18076 11.5402 8.16091C11.6043 8.13492 11.6043 8.13492 11.6697 8.10841C11.7069 8.09325 11.7442 8.07807 11.7825 8.06244C11.873 8.03032 11.873 8.03032 11.9666 8.03032C11.9665 7.99259 11.9663 7.95484 11.9662 7.91596C11.9631 6.99729 11.9607 6.07861 11.9593 5.15992C11.9585 4.71565 11.9575 4.27139 11.956 3.82712C11.9546 3.43984 11.9537 3.05257 11.9534 2.6653C11.9532 2.46028 11.9527 2.25528 11.9518 2.05027C11.9506 1.82127 11.9506 1.59229 11.9507 1.3633C11.9501 1.29549 11.9496 1.22768 11.9491 1.15781C11.9509 0.578169 11.9509 0.57817 12.1069 0.30306C12.3791 0.00250278 12.5886 -0.0285817 12.949 0.0168655ZM12.3023 9.7229C12.2639 9.73853 12.2256 9.75417 12.1861 9.77027C12.0588 9.82222 11.9315 9.87429 11.8042 9.92637C11.7161 9.9623 11.6281 9.99824 11.54 10.0342C11.3078 10.1289 11.0757 10.2238 10.8435 10.3187C10.6068 10.4155 10.3701 10.5121 10.1334 10.6088C9.66849 10.7986 9.20367 10.9885 8.73886 11.1784C8.73886 11.2163 8.73886 11.254 8.73886 11.293C9.37989 11.5555 10.0211 11.8172 10.6627 12.0778C10.9375 12.1896 11.2121 12.302 11.4864 12.416C11.6194 12.4712 11.7526 12.5256 11.8858 12.5798C11.973 12.6157 12.0601 12.6525 12.1471 12.6892C12.1992 12.7103 12.2512 12.7313 12.3048 12.7529C12.3484 12.7711 12.3921 12.7892 12.4369 12.8078C12.7454 12.8763 13.0404 12.7579 13.3307 12.6381C13.3668 12.6236 13.4028 12.6091 13.44 12.594C13.5581 12.5464 13.6759 12.4982 13.7939 12.45C13.8761 12.4167 13.9585 12.3835 14.0409 12.3502C14.2565 12.2629 14.4721 12.1752 14.6877 12.0874C14.908 11.9976 15.1286 11.9085 15.3491 11.8191C15.781 11.6443 16.2127 11.4687 16.6444 11.293C16.6444 11.2551 16.6444 11.2174 16.6444 11.1784C16.1329 10.9694 15.6214 10.7604 15.1098 10.5516C14.8723 10.4546 14.6349 10.3576 14.3974 10.2605C14.1684 10.1669 13.9394 10.0734 13.7104 9.97994C13.6228 9.94419 13.5352 9.9084 13.4476 9.87259C13.3254 9.82261 13.2033 9.77275 13.0811 9.7229C13.0262 9.70042 13.0262 9.70042 12.9702 9.67749C12.6895 9.56326 12.5788 9.60955 12.3023 9.7229ZM7.05485 12.4949C7.05485 14.9316 7.05485 17.3683 7.05485 19.8788C7.30856 20.0141 7.30856 20.0141 7.56552 20.1281C7.59799 20.141 7.63048 20.154 7.66395 20.1673C7.71583 20.1876 7.71583 20.1876 7.76876 20.2083C7.80638 20.2233 7.844 20.2382 7.88275 20.2536C8.00728 20.3029 8.13187 20.352 8.25646 20.4011C8.43648 20.4723 8.61644 20.5436 8.79642 20.6148C8.84376 20.6336 8.89109 20.6523 8.93987 20.6716C9.31454 20.82 9.6887 20.9702 10.0627 21.1211C10.1744 21.166 10.286 21.211 10.3976 21.2558C10.562 21.322 10.7264 21.3883 10.8907 21.4547C11.0441 21.5168 11.1976 21.5785 11.3511 21.6403C11.4203 21.6684 11.4203 21.6684 11.4908 21.697C11.5331 21.714 11.5754 21.7309 11.6189 21.7484C11.6558 21.7632 11.6926 21.778 11.7305 21.7934C11.8323 21.8324 11.8323 21.8324 11.9666 21.8249C11.9666 19.3883 11.9666 16.9516 11.9666 14.4411C10.2868 13.739 10.2868 13.739 8.60238 13.054C8.47603 13.0033 8.34976 12.9523 8.22348 12.9012C8.07093 12.8397 7.91829 12.7785 7.76565 12.7172C7.68214 12.6835 7.68214 12.6835 7.59694 12.649C7.54602 12.6286 7.49509 12.6083 7.44261 12.5873C7.37573 12.5605 7.37573 12.5605 7.30748 12.533C7.19206 12.4873 7.19206 12.4873 7.05485 12.4949ZM17.8153 12.6421C17.7773 12.6577 17.7394 12.6733 17.7003 12.6895C17.6177 12.7234 17.5351 12.7575 17.4527 12.7917C17.2308 12.8836 17.0086 12.9748 16.7863 13.066C16.7403 13.0849 16.6942 13.1039 16.6467 13.1234C16.1056 13.3453 15.5627 13.5605 15.0196 13.7749C14.8998 13.8221 14.7802 13.8696 14.6605 13.9169C14.6269 13.9303 14.5932 13.9435 14.5585 13.9571C14.1749 14.1092 13.7974 14.2767 13.4167 14.4411C13.4167 16.8778 13.4167 19.3144 13.4167 21.8249C13.7056 21.7464 13.9785 21.6615 14.2574 21.5477C14.3169 21.5239 14.3169 21.5239 14.3775 21.4995C14.5071 21.4473 14.6366 21.3948 14.7661 21.3422C14.857 21.3056 14.9477 21.2689 15.0385 21.2323C15.2283 21.1557 15.418 21.0789 15.6076 21.0021C15.8501 20.9038 16.0925 20.8058 16.3351 20.708C16.5225 20.6324 16.7097 20.5567 16.897 20.4809C16.9863 20.4448 17.0758 20.4087 17.1651 20.3726C17.2902 20.322 17.4154 20.2713 17.5405 20.2205C17.577 20.2058 17.6135 20.1911 17.6511 20.1759C17.6856 20.162 17.7202 20.1479 17.7557 20.1334C17.7852 20.1215 17.8146 20.1095 17.8451 20.0973C18.0072 20.0278 18.1675 19.9526 18.3285 19.8788C18.3285 17.4421 18.3285 15.0055 18.3285 12.4949C18.1437 12.4949 17.9882 12.5699 17.8153 12.6421Z" fill="current" />
</symbol><symbol viewBox="0 0 40 40" id="icon-arrow">
<path fill-rule="evenodd" clip-rule="evenodd" d="M31.9571 20.7071C32.3476 20.3166 32.3476 19.6834 31.9571 19.2929L25.9571 13.2929C25.5666 12.9024 24.9334 12.9024 24.5429 13.2929C24.1524 13.6834 24.1524 14.3166 24.5429 14.7071L28.8358 19H8.75C8.19772 19 7.75 19.4477 7.75 20C7.75 20.5523 8.19772 21 8.75 21H28.8358L24.5429 25.2929C24.1524 25.6834 24.1524 26.3166 24.5429 26.7071C24.9334 27.0976 25.5666 27.0976 25.9571 26.7071L31.9571 20.7071Z" fill="current" />
</symbol><symbol viewBox="0 0 10 5" fill="none" id="icon-arrow-bread">
<path d="M6.918 4.06C7.01133 3.81733 7.114 3.59333 7.226 3.388C7.338 3.17333 7.464 2.97267 7.604 2.786H0.1V1.638H7.604C7.47333 1.45133 7.352 1.25533 7.24 1.05C7.128 0.835333 7.02533 0.606666 6.932 0.363999H7.996C8.57467 1.04533 9.20933 1.56333 9.9 1.918V2.52C9.20933 2.856 8.57467 3.36933 7.996 4.06H6.918Z" fill="#999999" />
</symbol><symbol viewBox="0 0 5 9" id="icon-arrow-small">
<path fill-rule="evenodd" clip-rule="evenodd" d="M3.5859 4.50011L0.939453 1.29566L1.64656 0.439453L5.00011 4.50011L1.64656 8.56077L0.939453 7.70457L3.5859 4.50011Z" fill="current" />
</symbol><symbol viewBox="0 0 25 24" id="icon-briks">
<path d="M21.7474 0H2.91921C1.49331 0 0.333252 1.16006 0.333252 2.58596V21.414C0.333252 22.8399 1.49331 24 2.91921 24H21.7474C23.1732 24 24.3333 22.8399 24.3333 21.414V2.58596C24.3333 1.16006 23.1732 0 21.7474 0ZM7.38794 15.0625V8.93751H17.2786V15.0625H7.38794ZM1.7395 15.0625V8.93751H5.98169V15.0625H1.7395ZM18.6849 8.93751H22.927V15.0625H18.6849V8.93751ZM22.927 2.58596V7.53127H13.0363V1.40625H21.7474C22.3978 1.40625 22.927 1.93547 22.927 2.58596ZM2.91921 1.40625H11.6302V7.53127H1.7395V2.58596C1.7395 1.93547 2.26872 1.40625 2.91921 1.40625ZM1.7395 21.414V16.4687H11.6302V22.5937H2.91921C2.26872 22.5937 1.7395 22.0645 1.7395 21.414ZM21.7474 22.5937H13.0363V16.4687H22.927V21.414C22.927 22.0645 22.3978 22.5937 21.7474 22.5937Z" fill="current" />
</symbol><symbol viewBox="0 0 24 24" fill="none" id="icon-burger">
<path d="M20 10H8" stroke="#06224B" stroke-width="2" stroke-linecap="round" />
<path d="M20 6L4 6" stroke="#06224B" stroke-width="2" stroke-linecap="round" />
<path d="M20 14L4 14" stroke="#06224B" stroke-width="2" stroke-linecap="round" />
<path d="M20 18H8" stroke="#06224B" stroke-width="2" stroke-linecap="round" />
</symbol><symbol viewBox="0 0 28 28" fill="none" id="icon-cart">
<path d="M2.33325 3.5L3.55751 3.74485C4.56317 3.94598 5.31961 4.78021 5.42166 5.8007L5.59992 7.58333M5.59992 7.58333L6.75328 17.1947C6.89401 18.3674 7.88886 19.25 9.06999 19.25H19.5617C21.4355 19.25 23.0687 17.9748 23.5232 16.157L24.8331 10.9175C25.2564 9.22389 23.9755 7.58333 22.2298 7.58333H5.59992Z" stroke="#06224B" stroke-width="2" stroke-linecap="round" />
<path d="M15.1667 15.75H10.5" stroke="#06224B" stroke-width="2" stroke-linecap="round" stroke-linejoin="round" />
<circle cx="9.91675" cy="23.3333" r="1.75" fill="#06224B" />
<circle cx="20.4167" cy="23.3333" r="1.75" fill="#06224B" />
</symbol><symbol viewBox="0 0 24 24" fill="none" id="icon-cart-2">
<path d="M2 3L3.04936 3.20987C3.91136 3.38227 4.55973 4.09732 4.6472 4.97203L4.8 6.5M4.8 6.5L5.7886 14.7383C5.90922 15.7435 6.76195 16.5 7.77435 16.5H16.7673C18.3733 16.5 19.7733 15.407 20.1628 13.8489L21.2855 9.35783C21.6485 7.90619 20.5505 6.5 19.0542 6.5H4.8Z" stroke="#06224B" stroke-width="2" stroke-linecap="round" />
<path d="M13 13.5H9" stroke="#06224B" stroke-width="2" stroke-linecap="round" stroke-linejoin="round" />
<circle cx="8.5" cy="20" r="1.5" fill="#06224B" />
<circle cx="17.5" cy="20" r="1.5" fill="#06224B" />
</symbol><symbol viewBox="0 0 24 24" id="icon-cart-btn">
<path fill-rule="evenodd" clip-rule="evenodd" d="M1.15939 2.83179C1.25223 2.36759 1.70379 2.06655 2.16799 2.15939L3.21735 2.36926C4.44877 2.61555 5.37502 3.63704 5.49998 4.88662L5.57559 5.64274H19.0541C21.108 5.64274 22.6151 7.57298 22.117 9.5656L20.9942 14.0566C20.5093 15.9963 18.7665 17.357 16.7672 17.357H7.77423C6.32795 17.357 5.10976 16.2763 4.93744 14.8403L3.94784 6.5936L3.7942 5.0572C3.74422 4.55737 3.37372 4.14877 2.88115 4.05026L1.83179 3.84038C1.36759 3.74755 1.06655 3.29598 1.15939 2.83179ZM5.76604 7.35703L6.63952 14.6361C6.70845 15.2104 7.19572 15.6427 7.77423 15.6427H16.7672C17.9799 15.6427 19.037 14.8174 19.3311 13.6409L20.4539 9.14983C20.6815 8.23917 19.9928 7.35703 19.0541 7.35703H5.76604Z" fill="current" />
<path fill-rule="evenodd" clip-rule="evenodd" d="M8.14282 13.5C8.14282 13.0266 8.52658 12.6428 8.99997 12.6428H13C13.4734 12.6428 13.8571 13.0266 13.8571 13.5C13.8571 13.9734 13.4734 14.3571 13 14.3571H8.99997C8.52658 14.3571 8.14282 13.9734 8.14282 13.5Z" fill="current" />
<path d="M10 20C10 20.8284 9.32843 21.5 8.5 21.5C7.67157 21.5 7 20.8284 7 20C7 19.1716 7.67157 18.5 8.5 18.5C9.32843 18.5 10 19.1716 10 20Z" fill="current" />
<path d="M19 20C19 20.8284 18.3284 21.5 17.5 21.5C16.6716 21.5 16 20.8284 16 20C16 19.1716 16.6716 18.5 17.5 18.5C18.3284 18.5 19 19.1716 19 20Z" fill="current" />
</symbol><symbol viewBox="0 0 24 24" id="icon-catalog">
<path d="M4 13.0001H20C20.2652 13.0001 20.5195 12.8947 20.7071 12.7072C20.8946 12.5196 21 12.2653 21 12C21 11.7348 20.8946 11.4805 20.7071 11.2929C20.5195 11.1054 20.2652 11 20 11H4C3.73478 11 3.48043 11.1054 3.2929 11.2929C3.10536 11.4805 3 11.7348 3 12C3 12.2653 3.10536 12.5196 3.2929 12.7072C3.48043 12.8947 3.73478 13.0001 4 13.0001Z" fill="current" />
<path d="M20 5H4C3.73478 5 3.48043 5.10536 3.2929 5.2929C3.10536 5.48043 3 5.73478 3 6C3 6.26522 3.10536 6.51957 3.2929 6.70711C3.48043 6.89465 3.73478 7 4 7H20C20.2652 7 20.5195 6.89465 20.7071 6.70711C20.8946 6.51957 21 6.26522 21 6C21 5.73478 20.8946 5.48043 20.7071 5.2929C20.5195 5.10536 20.2652 5 20 5Z" fill="current" />
<path d="M4 19.0001H20C20.2652 19.0001 20.5195 18.8947 20.7071 18.7072C20.8946 18.5196 21 18.2653 21 18C21 17.7348 20.8946 17.4805 20.7071 17.2929C20.5195 17.1054 20.2652 17 20 17H4C3.73478 17 3.48043 17.1054 3.2929 17.2929C3.10536 17.4805 3 17.7348 3 18C3 18.2653 3.10536 18.5196 3.2929 18.7072C3.48043 18.8947 3.73478 19.0001 4 19.0001Z" fill="current" />
</symbol><symbol viewBox="0 0 25 24" id="icon-contacts">
<path d="M2.58325 18C2.16925 18 1.83325 18.336 1.83325 18.75C1.83325 19.164 2.16925 19.5 2.58325 19.5H3.33325V20.25C3.33325 21.4905 4.34275 22.5 5.58325 22.5H19.0833C20.3237 22.5 21.3333 21.4905 21.3333 20.25V3.75C21.3333 2.50949 20.3237 1.5 19.0833 1.5H5.58325C4.34275 1.5 3.33325 2.50949 3.33325 3.75V4.5H2.58325C2.16925 4.5 1.83325 4.836 1.83325 5.25C1.83325 5.664 2.16925 6 2.58325 6H3.33325V18H2.58325ZM4.83325 19.5H5.58325C5.99725 19.5 6.33325 19.164 6.33325 18.75C6.33325 18.336 5.99725 18 5.58325 18H4.83325V6H5.58325C5.99725 6 6.33325 5.664 6.33325 5.25C6.33325 4.836 5.99725 4.5 5.58325 4.5H4.83325V3.75C4.83325 3.33675 5.17 3 5.58325 3H19.0833C19.4965 3 19.8333 3.33675 19.8333 3.75V20.25C19.8333 20.6632 19.4965 21 19.0833 21H5.58325C5.17 21 4.83325 20.6632 4.83325 20.25V19.5Z" fill="current" />
<path d="M8.58325 18.75H16.0833C16.4973 18.75 16.8333 18.414 16.8333 18V16.5C16.8333 14.0183 14.815 12 12.3333 12C9.8515 12 7.83325 14.0183 7.83325 16.5V18C7.83325 18.414 8.16925 18.75 8.58325 18.75ZM9.33325 16.5C9.33325 14.8455 10.6787 13.5 12.3333 13.5C13.9877 13.5 15.3333 14.8455 15.3333 16.5V17.25H9.33325V16.5Z" fill="current" />
<path d="M12.3333 11.25C13.9877 11.25 15.3333 9.90449 15.3333 8.25C15.3333 6.59549 13.9877 5.25 12.3333 5.25C10.6787 5.25 9.33325 6.59549 9.33325 8.25C9.33325 9.90449 10.6787 11.25 12.3333 11.25ZM12.3333 6.75C13.1605 6.75 13.8333 7.42275 13.8333 8.25C13.8333 9.07725 13.1605 9.75 12.3333 9.75C11.506 9.75 10.8333 9.07725 10.8333 8.25C10.8333 7.42275 11.506 6.75 12.3333 6.75Z" fill="current" />
</symbol><symbol viewBox="0 0 8 8" id="icon-cross">
<path fill-rule="evenodd" clip-rule="evenodd" d="M3.29293 4.00004L0.646484 1.35359L1.35359 0.646484L4.00004 3.29293L6.64648 0.646484L7.35359 1.35359L4.70714 4.00004L7.35359 6.64648L6.64648 7.35359L4.00004 4.70714L1.35359 7.35359L0.646484 6.64648L3.29293 4.00004Z" fill="current" />
</symbol><symbol viewBox="0 0 28 28" fill="none" id="icon-graph">
<path d="M16.3333 23.3333V9.33331" stroke="#06224B" stroke-width="2" stroke-linecap="round" />
<path d="M21 23.3333V12.8333" stroke="#06224B" stroke-width="2" stroke-linecap="round" />
<path d="M11.6667 23.3333L11.6667 4.66665" stroke="#06224B" stroke-width="2" stroke-linecap="round" />
<path d="M7 23.3333L7 14" stroke="#06224B" stroke-width="2" stroke-linecap="round" />
</symbol><symbol viewBox="0 0 28 28" fill="none" id="icon-heart">
<path d="M4.27337 15.4158L11.4612 22.991C12.8414 24.4456 15.159 24.4456 16.5391 22.991L23.727 15.4158C26.3135 12.6899 26.3135 8.27042 23.727 5.54453C21.1405 2.81865 16.9469 2.81865 14.3604 5.54454V5.54454C14.1646 5.75092 13.8357 5.75092 13.6399 5.54454V5.54454C11.0534 2.81865 6.85987 2.81865 4.27337 5.54453C1.68687 8.27042 1.68687 12.6899 4.27337 15.4158Z" stroke="#06224B" stroke-width="2" />
</symbol><symbol viewBox="0 0 25 24" fill="none" id="icon-lk-contacts">
<rect x="4.5" y="2" width="16" height="20" rx="4" stroke="#1976D2" stroke-width="2" />
<path d="M8.5 7H16.5" stroke="#1976D2" stroke-width="2" stroke-linecap="round" />
<path d="M8.5 12H16.5" stroke="#1976D2" stroke-width="2" stroke-linecap="round" />
<path d="M8.5 17H12.5" stroke="#1976D2" stroke-width="2" stroke-linecap="round" />
</symbol><symbol viewBox="0 0 25 24" fill="none" id="icon-lk-exit">
<path d="M16.5 16V18C16.5 20.2091 14.7091 22 12.5 22H7.5C5.29086 22 3.5 20.2091 3.5 18V6C3.5 3.79086 5.29086 2 7.5 2H12.5C14.7091 2 16.5 3.79086 16.5 6V8" stroke="#E53935" stroke-width="2" stroke-linecap="round" />
<path d="M19.5 15L21.7929 12.7071C22.1834 12.3166 22.1834 11.6834 21.7929 11.2929L19.5 9" stroke="#E53935" stroke-width="2" stroke-linecap="round" />
<path d="M21.5 12L9.5 12" stroke="#E53935" stroke-width="2" stroke-linecap="round" />
</symbol><symbol viewBox="0 0 25 24" fill="none" id="icon-lk-history">
<path d="M5.5 3.5H19.5V19.4656C19.5 20.2959 18.5466 20.7645 17.8892 20.2574L16.5584 19.2307C16.2236 18.9725 15.7625 18.9527 15.4068 19.1813L13.5815 20.3547C12.9227 20.7783 12.0773 20.7783 11.4185 20.3547L9.5932 19.1813C9.23751 18.9527 8.77644 18.9725 8.44164 19.2307L7.1108 20.2574C6.45338 20.7645 5.5 20.2959 5.5 19.4656V3.5Z" stroke="#1976D2" stroke-width="2" />
<path d="M9.5 9.5H12.5" stroke="#1976D2" stroke-width="2" stroke-linecap="round" stroke-linejoin="round" />
<path d="M3.5 3.5H21.5" stroke="#1976D2" stroke-width="2" stroke-linecap="round" stroke-linejoin="round" />
<path d="M9.5 13.5H12.5" stroke="#1976D2" stroke-width="2" stroke-linecap="round" stroke-linejoin="round" />
<path d="M15.5 9.5H16" stroke="#1976D2" stroke-width="2" stroke-linecap="round" stroke-linejoin="round" />
<path d="M15.5 13.5H16" stroke="#1976D2" stroke-width="2" stroke-linecap="round" stroke-linejoin="round" />
</symbol><symbol viewBox="0 0 25 24" fill="none" id="icon-lk-user">
<circle cx="4" cy="4" r="4" transform="matrix(-1 0 0 1 16.5 3)" stroke="#1976D2" stroke-width="2" />
<path d="M5.5 16.9347C5.5 16.0743 6.04085 15.3068 6.85109 15.0175V15.0175C10.504 13.7128 14.496 13.7128 18.1489 15.0175V15.0175C18.9591 15.3068 19.5 16.0743 19.5 16.9347V18.2502C19.5 19.4376 18.4483 20.3498 17.2728 20.1818L16.3184 20.0455C13.7856 19.6837 11.2144 19.6837 8.68162 20.0455L7.72721 20.1818C6.5517 20.3498 5.5 19.4376 5.5 18.2502V16.9347Z" stroke="#1976D2" stroke-width="2" />
</symbol><symbol viewBox="0 0 16 16" fill="none" id="icon-login">
<path d="M6.00024 10.6666V12C6.00024 13.4727 7.19415 14.6666 8.66691 14.6666H12.0002C13.473 14.6666 14.6669 13.4727 14.6669 12V3.99998C14.6669 2.52722 13.473 1.33331 12.0002 1.33331H8.66691C7.19415 1.33331 6.00024 2.52722 6.00024 3.99998V5.33331" stroke="#5C6BC0" stroke-linecap="round" />
<path d="M9.33325 10L10.8618 8.4714C11.1222 8.21105 11.1222 7.78894 10.8618 7.5286L9.33325 6" stroke="#5C6BC0" stroke-linecap="round" />
<path d="M10.6667 8L2.66675 8" stroke="#5C6BC0" stroke-linecap="round" />
</symbol><symbol viewBox="0 0 24 25" id="icon-mail">
<path fill-rule="evenodd" clip-rule="evenodd" d="M1.25 9.6665C1.25 6.49087 3.82436 3.9165 7 3.9165H17C20.1756 3.9165 22.75 6.49087 22.75 9.6665V15.6665C22.75 18.8421 20.1756 21.4165 17 21.4165H7C3.82436 21.4165 1.25 18.8421 1.25 15.6665V9.6665ZM7 5.4165C4.65279 5.4165 2.75 7.31929 2.75 9.6665V15.6665C2.75 18.0137 4.65279 19.9165 7 19.9165H17C19.3472 19.9165 21.25 18.0137 21.25 15.6665V9.6665C21.25 7.31929 19.3472 5.4165 17 5.4165H7Z" fill="current" />
<path fill-rule="evenodd" clip-rule="evenodd" d="M5.40004 9.21655C5.64857 8.88518 6.11867 8.81802 6.45004 9.06655L11.25 12.6665C11.6945 12.9999 12.3056 12.9999 12.75 12.6665L17.55 9.06655C17.8814 8.81802 18.3515 8.88518 18.6 9.21655C18.8486 9.54792 18.7814 10.018 18.45 10.2665L13.65 13.8665C12.6723 14.5999 11.3278 14.5999 10.35 13.8665L5.55004 10.2665C5.21867 10.018 5.15152 9.54792 5.40004 9.21655Z" fill="current" />
</symbol><symbol viewBox="0 0 12 10" fill="none" id="icon-minus">
<path d="M1 5H5.94975H10.8995" stroke="#1976D2" stroke-width="2" stroke-linecap="round" stroke-linejoin="round" />
</symbol><symbol viewBox="0 0 16 16" fill="none" id="icon-person">
<circle cx="2.66667" cy="2.66667" r="2.66667" transform="matrix(-1 0 0 1 10.6665 2)" stroke="#5C6BC0" />
<path d="M3.33301 11.2898C3.33301 10.7162 3.69358 10.2046 4.23374 10.0117V10.0117C6.66903 9.14192 9.33031 9.14192 11.7656 10.0117V10.0117C12.3058 10.2046 12.6663 10.7162 12.6663 11.2898V12.1668C12.6663 12.9584 11.9652 13.5665 11.1815 13.4546L10.5453 13.3637C8.85677 13.1225 7.14257 13.1225 5.45409 13.3637L4.81781 13.4546C4.03414 13.5665 3.33301 12.9584 3.33301 12.1668V11.2898Z" stroke="#5C6BC0" />
</symbol><symbol viewBox="0 0 24 25" fill="none" id="icon-pin">
<path d="M20 10.7502C20 16.178 13.6 21.8335 12 21.8335C10.4 21.8335 4 16.178 4 10.7502C4 6.37791 7.58172 2.8335 12 2.8335C16.4183 2.8335 20 6.37791 20 10.7502Z" stroke="#E53935" stroke-width="1.5" />
<circle cx="3" cy="3" r="3" transform="matrix(-1 0 0 1 15 7.3335)" stroke="#E53935" stroke-width="1.5" />
</symbol><symbol viewBox="0 0 13 12" fill="none" id="icon-plus">
<path d="M1.90039 6H6.85014M11.7999 6H6.85014M6.85014 6V1.05025V10.9497" stroke="#1976D2" stroke-width="2" stroke-linecap="round" stroke-linejoin="round" />
</symbol><symbol viewBox="0 0 25 24" fill="none" id="icon-search">
<circle cx="11.25" cy="10.9999" r="8" stroke="#06224B" stroke-width="1.5" stroke-linecap="round" stroke-linejoin="round" />
<path d="M16.75 16.9579L21.75 21.9579" stroke="#06224B" stroke-width="1.5" stroke-linecap="round" stroke-linejoin="round" />
</symbol><symbol viewBox="0 0 24 24" fill="none" id="icon-search-2">
<circle cx="10.7518" cy="10.7517" r="6.75176" stroke="#06224B" stroke-width="2" stroke-linecap="round" stroke-linejoin="round" />
<path d="M15.3936 15.78L19.6134 19.9999" stroke="#06224B" stroke-width="2" stroke-linecap="round" stroke-linejoin="round" />
</symbol><symbol viewBox="0 0 25 24" id="icon-service">
<path d="M21.6665 10.5675H20.759C20.6091 8.66396 19.7752 6.87901 18.4114 5.54251L18.209 5.355C17.1873 4.41987 15.9468 3.757 14.6016 3.42751V2.25C14.6016 2.05108 14.5225 1.86033 14.3819 1.71967C14.2412 1.57901 14.0504 1.5 13.8516 1.5H11.5265C11.3276 1.5 11.1368 1.57901 10.9962 1.71967C10.8555 1.86033 10.7765 2.05108 10.7765 2.25V3.41251C9.12001 3.79414 7.62808 4.69334 6.51692 5.9798C5.40577 7.26625 4.73314 8.87312 4.5965 10.5675H3.6665C3.46759 10.5675 3.27683 10.6465 3.13617 10.7872C2.99552 10.9279 2.9165 11.1185 2.9165 11.3175V14.3175C2.9165 14.5164 2.99552 14.7072 3.13617 14.8478C3.27683 14.9884 3.46759 15.0675 3.6665 15.0675H4.5215C4.71608 17.0928 5.65825 18.9731 7.1642 20.3412C8.67016 21.7094 10.6318 22.4675 12.6665 22.4675C14.7012 22.4675 16.6628 21.7094 18.1688 20.3412C19.6747 18.9731 20.6169 17.0928 20.8116 15.0675H21.6665C21.8654 15.0675 22.0562 14.9884 22.1968 14.8478C22.3375 14.7072 22.4165 14.5164 22.4165 14.3175V11.3175C22.4165 11.1185 22.3375 10.9279 22.1968 10.7872C22.0562 10.6465 21.8654 10.5675 21.6665 10.5675ZM12.254 3H13.079V4.98751H12.254V3ZM7.6565 6.93751L8.2415 7.53C8.38174 7.67123 8.57233 7.75096 8.77135 7.75167C8.97037 7.75237 9.16152 7.67399 9.30275 7.53375C9.44398 7.39352 9.52371 7.20292 9.52442 7.0039C9.52512 6.80488 9.44674 6.61372 9.3065 6.47251L8.77401 5.93251C9.37793 5.5032 10.0498 5.17867 10.7615 4.97251V5.72251C10.7615 5.92141 10.8405 6.11218 10.9812 6.25283C11.1218 6.39348 11.3126 6.47251 11.5115 6.47251H13.8365C14.0354 6.47251 14.2262 6.39348 14.3668 6.25283C14.5075 6.11218 14.5865 5.92141 14.5865 5.72251V4.97251C15.292 5.1828 15.9582 5.50708 16.559 5.93251L16.034 6.465C15.9461 6.52929 15.8732 6.61193 15.8205 6.70721C15.7678 6.8025 15.7364 6.90811 15.7287 7.01673C15.7208 7.12534 15.7369 7.23435 15.7755 7.33618C15.814 7.438 15.8743 7.53021 15.9521 7.60637C16.03 7.68254 16.1235 7.74085 16.2261 7.77724C16.3287 7.81364 16.438 7.82724 16.5464 7.81713C16.6549 7.807 16.7598 7.77339 16.854 7.71863C16.9481 7.66387 17.0292 7.58926 17.0914 7.5L17.669 6.92249C18.568 7.93197 19.1246 9.19998 19.259 10.545H6.0815C6.21924 9.20815 6.76971 7.94733 7.6565 6.93751ZM12.6665 21C11.0242 20.9979 9.43988 20.3924 8.21476 19.2986C6.98963 18.2049 6.2091 16.6991 6.0215 15.0675H19.3116C19.1239 16.6991 18.3434 18.2049 17.1183 19.2986C15.8931 20.3924 14.3089 20.9979 12.6665 21ZM20.9165 13.5675H4.4165V12.0675H20.9165V13.5675Z" fill="current" />
</symbol><symbol viewBox="0 0 16 16" fill="none" id="icon-star">
<path d="M7.31463 1.80573C7.62556 1.28907 8.3746 1.28907 8.68553 1.80573L10.2392 4.38733C10.3509 4.57294 10.5331 4.70531 10.7441 4.75419L13.6794 5.43402C14.2669 5.57008 14.4984 6.28245 14.1031 6.73782L12.1279 9.01317C11.9859 9.17676 11.9163 9.39095 11.9351 9.60676L12.1956 12.6085C12.2477 13.2093 11.6417 13.6495 11.0865 13.4143L8.31215 12.239C8.11269 12.1545 7.88748 12.1545 7.68801 12.239L4.91367 13.4143C4.35844 13.6495 3.75246 13.2093 3.80459 12.6085L4.06511 9.60677C4.08384 9.39095 4.01424 9.17676 3.87223 9.01317L1.89708 6.73782C1.5018 6.28245 1.73326 5.57008 2.32071 5.43402L5.25606 4.75419C5.4671 4.70531 5.6493 4.57294 5.761 4.38733L7.31463 1.80573Z" fill="#E53935" />
</symbol><symbol viewBox="0 0 24 24" id="icon-suit">
<path d="M22.5 15.5551C21.5445 11.6914 21.0412 7.72986 21 3.75005C21.0004 3.59282 20.9514 3.43943 20.8599 3.31158C20.7683 3.18372 20.639 3.08787 20.49 3.03755C17.805 2.13005 15.2775 1.53755 15.1725 1.49255H15.075L15 1.50005H9.00001H8.92501H8.82001C8.71501 1.50005 6.18752 2.13755 3.50252 3.04505C3.35616 3.09621 3.22925 3.19147 3.13928 3.31772C3.04929 3.44397 3.00063 3.59501 3.00001 3.75005C2.9589 7.72986 2.45553 11.6914 1.50001 15.5551C1.49153 15.6198 1.49153 15.6854 1.50001 15.75V21.75C1.50001 21.9489 1.57904 22.1397 1.71969 22.2803C1.86034 22.4211 2.0511 22.5 2.25001 22.5H21.75C21.9489 22.5 22.1397 22.4211 22.2803 22.2803C22.421 22.1397 22.5 21.9489 22.5 21.75V15.75C22.5086 15.6854 22.5086 15.6198 22.5 15.5551ZM12 7.15505L10.155 3.00005H13.845L12 7.15505ZM3.00001 15.8476C3.92709 12.0702 4.43019 8.20134 4.50001 4.31255C6.16501 3.75005 7.74001 3.34505 8.57252 3.12755L11.25 9.12755V21H3.00001V15.8476ZM21 21H12.75V9.15755L15.4275 3.15755C16.2525 3.36755 17.8275 3.79505 19.5 4.34255C19.5699 8.23134 20.073 12.1002 21 15.8776V21Z" fill="current" />
<path d="M9 14.25H6C5.80108 14.25 5.61033 14.329 5.46967 14.4697C5.32901 14.6103 5.25 14.8011 5.25 15C5.25 15.1989 5.32901 15.3897 5.46967 15.5303C5.61033 15.671 5.80108 15.75 6 15.75H9C9.19892 15.75 9.38967 15.671 9.53033 15.5303C9.67099 15.3897 9.75 15.1989 9.75 15C9.75 14.8011 9.67099 14.6103 9.53033 14.4697C9.38967 14.329 9.19892 14.25 9 14.25Z" fill="current" />
<path d="M9 17.25H6C5.80108 17.25 5.61033 17.329 5.46967 17.4697C5.32901 17.6103 5.25 17.8011 5.25 18C5.25 18.1989 5.32901 18.3897 5.46967 18.5303C5.61033 18.671 5.80108 18.75 6 18.75H9C9.19892 18.75 9.38967 18.671 9.53033 18.5303C9.67099 18.3897 9.75 18.1989 9.75 18C9.75 17.8011 9.67099 17.6103 9.53033 17.4697C9.38967 17.329 9.19892 17.25 9 17.25Z" fill="current" />
<path d="M18 14.25H15C14.8011 14.25 14.6103 14.329 14.4697 14.4697C14.329 14.6103 14.25 14.8011 14.25 15C14.25 15.1989 14.329 15.3897 14.4697 15.5303C14.6103 15.671 14.8011 15.75 15 15.75H18C18.1989 15.75 18.3897 15.671 18.5303 15.5303C18.671 15.3897 18.75 15.1989 18.75 15C18.75 14.8011 18.671 14.6103 18.5303 14.4697C18.3897 14.329 18.1989 14.25 18 14.25Z" fill="current" />
<path d="M18 17.25H15C14.8011 17.25 14.6103 17.329 14.4697 17.4697C14.329 17.6103 14.25 17.8011 14.25 18C14.25 18.1989 14.329 18.3897 14.4697 18.5303C14.6103 18.671 14.8011 18.75 15 18.75H18C18.1989 18.75 18.3897 18.671 18.5303 18.5303C18.671 18.3897 18.75 18.1989 18.75 18C18.75 17.8011 18.671 17.6103 18.5303 17.4697C18.3897 17.329 18.1989 17.25 18 17.25Z" fill="current" />
</symbol><symbol viewBox="0 0 24 24" fill="none" id="icon-tel">
<path d="M19.0621 20.9693C17.1077 22.9236 12.1028 21.0873 7.88327 16.8677C3.66372 12.6482 1.82739 7.64325 3.7817 5.68893L5.06847 4.40216C5.9568 3.51383 7.42054 3.53731 8.33784 4.45461L10.3309 6.4477C11.2482 7.36499 11.2717 8.82874 10.3834 9.71706L10.107 9.99345C9.62737 10.4731 9.58045 11.2468 10.0261 11.7868C10.456 12.3078 10.9194 12.8266 11.4219 13.3291C11.9244 13.8316 12.4432 14.295 12.9641 14.7249C13.5042 15.1705 14.2779 15.1236 14.7575 14.644L15.0339 14.3676C15.9222 13.4793 17.386 13.5028 18.3033 14.4201L20.2964 16.4131C21.2137 17.3304 21.2371 18.7942 20.3488 19.6825L19.0621 20.9693Z" stroke="#E53935" stroke-width="1.5" />
<path d="M17.6264 9.75071C17.3825 9.15553 17.0188 8.5979 16.5356 8.11463C16.0796 7.65865 15.5574 7.30918 14.9999 7.06622" stroke="#E53935" stroke-width="1.5" stroke-linecap="round" />
<path d="M14.9999 3.66341C16.3346 4.14691 17.5868 4.92365 18.6568 5.99364C19.7536 7.09049 20.5423 8.37883 21.0229 9.75113" stroke="#E53935" stroke-width="1.5" stroke-linecap="round" />
</symbol><symbol viewBox="0 0 24 24" fill="none" id="icon-user">
<circle cx="4" cy="4" r="4" transform="matrix(-1 0 0 1 16.0029 3)" stroke="#06224B" stroke-width="2" />
<path d="M5.00195 16.9346C5.00195 16.0743 5.54281 15.3068 6.35304 15.0174V15.0174C10.006 13.7128 13.9979 13.7128 17.6509 15.0174V15.0174C18.4611 15.3068 19.002 16.0743 19.002 16.9346V18.2501C19.002 19.4376 17.9502 20.3497 16.7747 20.1818L15.8203 20.0454C13.2876 19.6836 10.7163 19.6836 8.18358 20.0454L7.22916 20.1818C6.05366 20.3497 5.00195 19.4376 5.00195 18.2501V16.9346Z" stroke="#06224B" stroke-width="2" />
</symbol><symbol viewBox="0 0 24 24" id="icon-zap">
<path d="M7.49962 22.5C7.37984 22.5052 7.26056 22.4816 7.15178 22.4312C7.04299 22.3808 6.94788 22.3049 6.87443 22.2103C6.80097 22.1155 6.7513 22.0045 6.72958 21.8866C6.70787 21.7687 6.71475 21.6472 6.74962 21.5325L9.48713 12.75H5.99962C5.86947 12.75 5.74156 12.7161 5.62847 12.6516C5.51538 12.5872 5.42101 12.4945 5.35462 12.3825C5.2888 12.2685 5.25415 12.1392 5.25415 12.0075C5.25415 11.8759 5.2888 11.7465 5.35462 11.6325L10.6046 1.88251C10.6691 1.76775 10.7627 1.67199 10.8759 1.60485C10.9892 1.53771 11.118 1.50155 11.2497 1.5H16.4997C16.6298 1.50002 16.7577 1.53392 16.8708 1.59836C16.9839 1.66279 17.0783 1.75555 17.1446 1.86751C17.2105 1.98152 17.2451 2.11084 17.2451 2.24251C17.2451 2.37416 17.2105 2.50348 17.1446 2.61751L14.0246 8.25H17.9997C18.141 8.2504 18.2794 8.29075 18.3988 8.36639C18.5182 8.44202 18.6138 8.54987 18.6746 8.67751C18.7367 8.8066 18.7606 8.9508 18.7432 9.09301C18.726 9.23523 18.6683 9.36952 18.5771 9.48L8.07713 22.23C8.00661 22.3147 7.9183 22.3827 7.8185 22.4294C7.71868 22.4761 7.60982 22.5002 7.49962 22.5ZM7.25213 11.25H10.4996C10.6167 11.2509 10.7319 11.2791 10.8361 11.3326C10.9403 11.3859 11.0306 11.4629 11.0997 11.5575C11.1695 11.6507 11.2167 11.7588 11.2376 11.8733C11.2584 11.9879 11.2523 12.1057 11.2197 12.2175L9.32963 18.3451L16.4097 9.75H12.7497C12.6195 9.74998 12.4916 9.71608 12.3784 9.65166C12.2654 9.58721 12.171 9.49447 12.1046 9.38251C12.0388 9.26848 12.0041 9.13916 12.0041 9.00751C12.0041 8.87585 12.0388 8.74652 12.1046 8.63251L15.2246 3H11.6997L7.25213 11.25Z" fill="current" />
</symbol></defs><use id="icon-3d-usage" xlink:href="#icon-3d" class="sprite-symbol-usage" /><use id="icon-arrow-usage" xlink:href="#icon-arrow" class="sprite-symbol-usage" /><use id="icon-arrow-bread-usage" xlink:href="#icon-arrow-bread" class="sprite-symbol-usage" /><use id="icon-arrow-small-usage" xlink:href="#icon-arrow-small" class="sprite-symbol-usage" /><use id="icon-briks-usage" xlink:href="#icon-briks" class="sprite-symbol-usage" /><use id="icon-burger-usage" xlink:href="#icon-burger" class="sprite-symbol-usage" /><use id="icon-cart-usage" xlink:href="#icon-cart" class="sprite-symbol-usage" /><use id="icon-cart-2-usage" xlink:href="#icon-cart-2" class="sprite-symbol-usage" /><use id="icon-cart-btn-usage" xlink:href="#icon-cart-btn" class="sprite-symbol-usage" /><use id="icon-catalog-usage" xlink:href="#icon-catalog" class="sprite-symbol-usage" /><use id="icon-contacts-usage" xlink:href="#icon-contacts" class="sprite-symbol-usage" /><use id="icon-cross-usage" xlink:href="#icon-cross" class="sprite-symbol-usage" /><use id="icon-graph-usage" xlink:href="#icon-graph" class="sprite-symbol-usage" /><use id="icon-heart-usage" xlink:href="#icon-heart" class="sprite-symbol-usage" /><use id="icon-lk-contacts-usage" xlink:href="#icon-lk-contacts" class="sprite-symbol-usage" /><use id="icon-lk-exit-usage" xlink:href="#icon-lk-exit" class="sprite-symbol-usage" /><use id="icon-lk-history-usage" xlink:href="#icon-lk-history" class="sprite-symbol-usage" /><use id="icon-lk-user-usage" xlink:href="#icon-lk-user" class="sprite-symbol-usage" /><use id="icon-login-usage" xlink:href="#icon-login" class="sprite-symbol-usage" /><use id="icon-mail-usage" xlink:href="#icon-mail" class="sprite-symbol-usage" /><use id="icon-minus-usage" xlink:href="#icon-minus" class="sprite-symbol-usage" /><use id="icon-person-usage" xlink:href="#icon-person" class="sprite-symbol-usage" /><use id="icon-pin-usage" xlink:href="#icon-pin" class="sprite-symbol-usage" /><use id="icon-plus-usage" xlink:href="#icon-plus" class="sprite-symbol-usage" /><use id="icon-search-usage" xlink:href="#icon-search" class="sprite-symbol-usage" /><use id="icon-search-2-usage" xlink:href="#icon-search-2" class="sprite-symbol-usage" /><use id="icon-service-usage" xlink:href="#icon-service" class="sprite-symbol-usage" /><use id="icon-star-usage" xlink:href="#icon-star" class="sprite-symbol-usage" /><use id="icon-suit-usage" xlink:href="#icon-suit" class="sprite-symbol-usage" /><use id="icon-tel-usage" xlink:href="#icon-tel" class="sprite-symbol-usage" /><use id="icon-user-usage" xlink:href="#icon-user" class="sprite-symbol-usage" /><use id="icon-zap-usage" xlink:href="#icon-zap" class="sprite-symbol-usage" /></svg>